%TF.GenerationSoftware,KiCad,Pcbnew,(5.0.0-3-g5ebb6b6)*%
%TF.CreationDate,2019-03-22T16:01:31+00:00*%
%TF.ProjectId,moodie_control_board,6D6F6F6469655F636F6E74726F6C5F62,rev?*%
%TF.SameCoordinates,Original*%
%TF.FileFunction,Legend,Top*%
%TF.FilePolarity,Positive*%
%FSLAX46Y46*%
G04 Gerber Fmt 4.6, Leading zero omitted, Abs format (unit mm)*
G04 Created by KiCad (PCBNEW (5.0.0-3-g5ebb6b6)) date Friday 22 March 2019 at 16:01:31*
%MOMM*%
%LPD*%
G01*
G04 APERTURE LIST*
%ADD10C,0.100000*%
%ADD11C,0.120000*%
%ADD12C,0.150000*%
G04 APERTURE END LIST*
D10*
X105347619Y-92311904D02*
X104966666Y-92311904D01*
X104928571Y-92692857D01*
X104966666Y-92654761D01*
X105042857Y-92616666D01*
X105233333Y-92616666D01*
X105309523Y-92654761D01*
X105347619Y-92692857D01*
X105385714Y-92769047D01*
X105385714Y-92959523D01*
X105347619Y-93035714D01*
X105309523Y-93073809D01*
X105233333Y-93111904D01*
X105042857Y-93111904D01*
X104966666Y-93073809D01*
X104928571Y-93035714D01*
X105614285Y-92311904D02*
X105880952Y-93111904D01*
X106147619Y-92311904D01*
X104640476Y-101850000D02*
X104564285Y-101811904D01*
X104450000Y-101811904D01*
X104335714Y-101850000D01*
X104259523Y-101926190D01*
X104221428Y-102002380D01*
X104183333Y-102154761D01*
X104183333Y-102269047D01*
X104221428Y-102421428D01*
X104259523Y-102497619D01*
X104335714Y-102573809D01*
X104450000Y-102611904D01*
X104526190Y-102611904D01*
X104640476Y-102573809D01*
X104678571Y-102535714D01*
X104678571Y-102269047D01*
X104526190Y-102269047D01*
X105021428Y-102611904D02*
X105021428Y-101811904D01*
X105478571Y-102611904D01*
X105478571Y-101811904D01*
X105859523Y-102611904D02*
X105859523Y-101811904D01*
X106050000Y-101811904D01*
X106164285Y-101850000D01*
X106240476Y-101926190D01*
X106278571Y-102002380D01*
X106316666Y-102154761D01*
X106316666Y-102269047D01*
X106278571Y-102421428D01*
X106240476Y-102497619D01*
X106164285Y-102573809D01*
X106050000Y-102611904D01*
X105859523Y-102611904D01*
X97750000Y-100700000D02*
X107500000Y-100700000D01*
X107500000Y-93500000D02*
X107500000Y-101500000D01*
X97750000Y-93500000D02*
X97750000Y-101500000D01*
X97750000Y-101500000D02*
X107500000Y-101500000D01*
X97750000Y-93500000D02*
X107500000Y-93500000D01*
D11*
X92750000Y-96800000D02*
X91250000Y-96800000D01*
X92000000Y-96050000D02*
X92000000Y-97550000D01*
X92279000Y-106331000D02*
X91721000Y-106331000D01*
X92672000Y-106291000D02*
X91328000Y-106291000D01*
X92913000Y-106251000D02*
X91087000Y-106251000D01*
X93104000Y-106211000D02*
X90896000Y-106211000D01*
X93265000Y-106171000D02*
X90735000Y-106171000D01*
X93407000Y-106131000D02*
X90593000Y-106131000D01*
X93536000Y-106091000D02*
X90464000Y-106091000D01*
X93654000Y-106051000D02*
X90346000Y-106051000D01*
X93763000Y-106011000D02*
X90237000Y-106011000D01*
X93866000Y-105971000D02*
X90134000Y-105971000D01*
X93962000Y-105931000D02*
X90038000Y-105931000D01*
X94053000Y-105891000D02*
X89947000Y-105891000D01*
X94140000Y-105851000D02*
X89860000Y-105851000D01*
X94222000Y-105811000D02*
X89778000Y-105811000D01*
X94301000Y-105771000D02*
X89699000Y-105771000D01*
X94377000Y-105731000D02*
X89623000Y-105731000D01*
X94449000Y-105691000D02*
X89551000Y-105691000D01*
X94519000Y-105651000D02*
X89481000Y-105651000D01*
X94587000Y-105611000D02*
X89413000Y-105611000D01*
X94652000Y-105571000D02*
X89348000Y-105571000D01*
X94715000Y-105531000D02*
X89285000Y-105531000D01*
X94777000Y-105491000D02*
X89223000Y-105491000D01*
X94836000Y-105451000D02*
X89164000Y-105451000D01*
X94894000Y-105411000D02*
X89106000Y-105411000D01*
X94949000Y-105371000D02*
X89051000Y-105371000D01*
X95004000Y-105331000D02*
X88996000Y-105331000D01*
X95057000Y-105291000D02*
X88943000Y-105291000D01*
X95108000Y-105251000D02*
X88892000Y-105251000D01*
X95158000Y-105211000D02*
X88842000Y-105211000D01*
X95207000Y-105171000D02*
X88793000Y-105171000D01*
X95255000Y-105131000D02*
X88745000Y-105131000D01*
X95302000Y-105091000D02*
X88698000Y-105091000D01*
X95347000Y-105051000D02*
X88653000Y-105051000D01*
X95391000Y-105011000D02*
X88609000Y-105011000D01*
X95435000Y-104971000D02*
X88565000Y-104971000D01*
X95477000Y-104931000D02*
X88523000Y-104931000D01*
X90819000Y-104891000D02*
X88482000Y-104891000D01*
X95518000Y-104891000D02*
X93181000Y-104891000D01*
X90819000Y-104851000D02*
X88441000Y-104851000D01*
X95559000Y-104851000D02*
X93181000Y-104851000D01*
X90819000Y-104811000D02*
X88402000Y-104811000D01*
X95598000Y-104811000D02*
X93181000Y-104811000D01*
X90819000Y-104771000D02*
X88363000Y-104771000D01*
X95637000Y-104771000D02*
X93181000Y-104771000D01*
X90819000Y-104731000D02*
X88325000Y-104731000D01*
X95675000Y-104731000D02*
X93181000Y-104731000D01*
X90819000Y-104691000D02*
X88288000Y-104691000D01*
X95712000Y-104691000D02*
X93181000Y-104691000D01*
X90819000Y-104651000D02*
X88252000Y-104651000D01*
X95748000Y-104651000D02*
X93181000Y-104651000D01*
X90819000Y-104611000D02*
X88216000Y-104611000D01*
X95784000Y-104611000D02*
X93181000Y-104611000D01*
X90819000Y-104571000D02*
X88181000Y-104571000D01*
X95819000Y-104571000D02*
X93181000Y-104571000D01*
X90819000Y-104531000D02*
X88147000Y-104531000D01*
X95853000Y-104531000D02*
X93181000Y-104531000D01*
X90819000Y-104491000D02*
X88114000Y-104491000D01*
X95886000Y-104491000D02*
X93181000Y-104491000D01*
X90819000Y-104451000D02*
X88081000Y-104451000D01*
X95919000Y-104451000D02*
X93181000Y-104451000D01*
X90819000Y-104411000D02*
X88049000Y-104411000D01*
X95951000Y-104411000D02*
X93181000Y-104411000D01*
X90819000Y-104371000D02*
X88018000Y-104371000D01*
X95982000Y-104371000D02*
X93181000Y-104371000D01*
X90819000Y-104331000D02*
X87987000Y-104331000D01*
X96013000Y-104331000D02*
X93181000Y-104331000D01*
X90819000Y-104291000D02*
X87957000Y-104291000D01*
X96043000Y-104291000D02*
X93181000Y-104291000D01*
X90819000Y-104251000D02*
X87928000Y-104251000D01*
X96072000Y-104251000D02*
X93181000Y-104251000D01*
X90819000Y-104211000D02*
X87899000Y-104211000D01*
X96101000Y-104211000D02*
X93181000Y-104211000D01*
X90819000Y-104171000D02*
X87870000Y-104171000D01*
X96130000Y-104171000D02*
X93181000Y-104171000D01*
X90819000Y-104131000D02*
X87843000Y-104131000D01*
X96157000Y-104131000D02*
X93181000Y-104131000D01*
X90819000Y-104091000D02*
X87815000Y-104091000D01*
X96185000Y-104091000D02*
X93181000Y-104091000D01*
X90819000Y-104051000D02*
X87789000Y-104051000D01*
X96211000Y-104051000D02*
X93181000Y-104051000D01*
X90819000Y-104011000D02*
X87763000Y-104011000D01*
X96237000Y-104011000D02*
X93181000Y-104011000D01*
X90819000Y-103971000D02*
X87737000Y-103971000D01*
X96263000Y-103971000D02*
X93181000Y-103971000D01*
X90819000Y-103931000D02*
X87712000Y-103931000D01*
X96288000Y-103931000D02*
X93181000Y-103931000D01*
X90819000Y-103891000D02*
X87688000Y-103891000D01*
X96312000Y-103891000D02*
X93181000Y-103891000D01*
X90819000Y-103851000D02*
X87664000Y-103851000D01*
X96336000Y-103851000D02*
X93181000Y-103851000D01*
X90819000Y-103811000D02*
X87640000Y-103811000D01*
X96360000Y-103811000D02*
X93181000Y-103811000D01*
X90819000Y-103771000D02*
X87617000Y-103771000D01*
X96383000Y-103771000D02*
X93181000Y-103771000D01*
X90819000Y-103731000D02*
X87595000Y-103731000D01*
X96405000Y-103731000D02*
X93181000Y-103731000D01*
X90819000Y-103691000D02*
X87572000Y-103691000D01*
X96428000Y-103691000D02*
X93181000Y-103691000D01*
X90819000Y-103651000D02*
X87551000Y-103651000D01*
X96449000Y-103651000D02*
X93181000Y-103651000D01*
X90819000Y-103611000D02*
X87530000Y-103611000D01*
X96470000Y-103611000D02*
X93181000Y-103611000D01*
X90819000Y-103571000D02*
X87509000Y-103571000D01*
X96491000Y-103571000D02*
X93181000Y-103571000D01*
X90819000Y-103531000D02*
X87489000Y-103531000D01*
X96511000Y-103531000D02*
X93181000Y-103531000D01*
X90819000Y-103491000D02*
X87469000Y-103491000D01*
X96531000Y-103491000D02*
X93181000Y-103491000D01*
X90819000Y-103451000D02*
X87450000Y-103451000D01*
X96550000Y-103451000D02*
X93181000Y-103451000D01*
X90819000Y-103411000D02*
X87431000Y-103411000D01*
X96569000Y-103411000D02*
X93181000Y-103411000D01*
X90819000Y-103371000D02*
X87412000Y-103371000D01*
X96588000Y-103371000D02*
X93181000Y-103371000D01*
X90819000Y-103331000D02*
X87394000Y-103331000D01*
X96606000Y-103331000D02*
X93181000Y-103331000D01*
X90819000Y-103291000D02*
X87376000Y-103291000D01*
X96624000Y-103291000D02*
X93181000Y-103291000D01*
X90819000Y-103251000D02*
X87359000Y-103251000D01*
X96641000Y-103251000D02*
X93181000Y-103251000D01*
X90819000Y-103211000D02*
X87342000Y-103211000D01*
X96658000Y-103211000D02*
X93181000Y-103211000D01*
X90819000Y-103171000D02*
X87326000Y-103171000D01*
X96674000Y-103171000D02*
X93181000Y-103171000D01*
X90819000Y-103131000D02*
X87309000Y-103131000D01*
X96691000Y-103131000D02*
X93181000Y-103131000D01*
X90819000Y-103091000D02*
X87294000Y-103091000D01*
X96706000Y-103091000D02*
X93181000Y-103091000D01*
X90819000Y-103051000D02*
X87278000Y-103051000D01*
X96722000Y-103051000D02*
X93181000Y-103051000D01*
X90819000Y-103011000D02*
X87263000Y-103011000D01*
X96737000Y-103011000D02*
X93181000Y-103011000D01*
X90819000Y-102971000D02*
X87249000Y-102971000D01*
X96751000Y-102971000D02*
X93181000Y-102971000D01*
X90819000Y-102931000D02*
X87235000Y-102931000D01*
X96765000Y-102931000D02*
X93181000Y-102931000D01*
X90819000Y-102891000D02*
X87221000Y-102891000D01*
X96779000Y-102891000D02*
X93181000Y-102891000D01*
X90819000Y-102851000D02*
X87208000Y-102851000D01*
X96792000Y-102851000D02*
X93181000Y-102851000D01*
X90819000Y-102811000D02*
X87194000Y-102811000D01*
X96806000Y-102811000D02*
X93181000Y-102811000D01*
X90819000Y-102771000D02*
X87182000Y-102771000D01*
X96818000Y-102771000D02*
X93181000Y-102771000D01*
X90819000Y-102731000D02*
X87169000Y-102731000D01*
X96831000Y-102731000D02*
X93181000Y-102731000D01*
X90819000Y-102691000D02*
X87157000Y-102691000D01*
X96843000Y-102691000D02*
X93181000Y-102691000D01*
X90819000Y-102651000D02*
X87146000Y-102651000D01*
X96854000Y-102651000D02*
X93181000Y-102651000D01*
X90819000Y-102611000D02*
X87135000Y-102611000D01*
X96865000Y-102611000D02*
X93181000Y-102611000D01*
X90819000Y-102571000D02*
X87124000Y-102571000D01*
X96876000Y-102571000D02*
X93181000Y-102571000D01*
X96887000Y-102531000D02*
X87113000Y-102531000D01*
X96897000Y-102491000D02*
X87103000Y-102491000D01*
X96907000Y-102451000D02*
X87093000Y-102451000D01*
X96917000Y-102411000D02*
X87083000Y-102411000D01*
X96926000Y-102371000D02*
X87074000Y-102371000D01*
X96935000Y-102331000D02*
X87065000Y-102331000D01*
X96943000Y-102291000D02*
X87057000Y-102291000D01*
X96951000Y-102251000D02*
X87049000Y-102251000D01*
X96959000Y-102211000D02*
X87041000Y-102211000D01*
X96967000Y-102171000D02*
X87033000Y-102171000D01*
X96974000Y-102131000D02*
X87026000Y-102131000D01*
X96981000Y-102091000D02*
X87019000Y-102091000D01*
X96987000Y-102051000D02*
X87013000Y-102051000D01*
X96993000Y-102011000D02*
X87007000Y-102011000D01*
X96999000Y-101971000D02*
X87001000Y-101971000D01*
X97005000Y-101930000D02*
X86995000Y-101930000D01*
X97010000Y-101890000D02*
X86990000Y-101890000D01*
X97015000Y-101850000D02*
X86985000Y-101850000D01*
X97020000Y-101810000D02*
X86980000Y-101810000D01*
X97024000Y-101770000D02*
X86976000Y-101770000D01*
X97028000Y-101730000D02*
X86972000Y-101730000D01*
X97031000Y-101690000D02*
X86969000Y-101690000D01*
X97035000Y-101650000D02*
X86965000Y-101650000D01*
X97038000Y-101610000D02*
X86962000Y-101610000D01*
X97040000Y-101570000D02*
X86960000Y-101570000D01*
X97043000Y-101530000D02*
X86957000Y-101530000D01*
X97045000Y-101490000D02*
X86955000Y-101490000D01*
X97047000Y-101450000D02*
X86953000Y-101450000D01*
X97048000Y-101410000D02*
X86952000Y-101410000D01*
X97049000Y-101370000D02*
X86951000Y-101370000D01*
X97050000Y-101330000D02*
X86950000Y-101330000D01*
X97050000Y-101290000D02*
X86950000Y-101290000D01*
X97050000Y-101250000D02*
X86950000Y-101250000D01*
X90616736Y-106148437D02*
G75*
G03X93380000Y-106149357I1383264J4898437D01*
G01*
X90616736Y-106148437D02*
G75*
G02X90620000Y-96350643I1383264J4898437D01*
G01*
X93383264Y-106148437D02*
G75*
G03X93380000Y-96350643I-1383264J4898437D01*
G01*
X59900000Y-92150000D02*
X59900000Y-94750000D01*
X45200000Y-92150000D02*
X59900000Y-92150000D01*
X59900000Y-101350000D02*
X58000000Y-101350000D01*
X59900000Y-98650000D02*
X59900000Y-101350000D01*
X45200000Y-101350000D02*
X45200000Y-92150000D01*
X54000000Y-101350000D02*
X45200000Y-101350000D01*
D10*
X98983333Y-101811904D02*
X98983333Y-102383333D01*
X98945238Y-102497619D01*
X98869047Y-102573809D01*
X98754761Y-102611904D01*
X98678571Y-102611904D01*
X99326190Y-101888095D02*
X99364285Y-101850000D01*
X99440476Y-101811904D01*
X99630952Y-101811904D01*
X99707142Y-101850000D01*
X99745238Y-101888095D01*
X99783333Y-101964285D01*
X99783333Y-102040476D01*
X99745238Y-102154761D01*
X99288095Y-102611904D01*
X99783333Y-102611904D01*
X102261904Y-99766666D02*
X102261904Y-99271428D01*
X102566666Y-99538095D01*
X102566666Y-99423809D01*
X102604761Y-99347619D01*
X102642857Y-99309523D01*
X102719047Y-99271428D01*
X102909523Y-99271428D01*
X102985714Y-99309523D01*
X103023809Y-99347619D01*
X103061904Y-99423809D01*
X103061904Y-99652380D01*
X103023809Y-99728571D01*
X102985714Y-99766666D01*
X102338095Y-97328571D02*
X102300000Y-97290476D01*
X102261904Y-97214285D01*
X102261904Y-97023809D01*
X102300000Y-96947619D01*
X102338095Y-96909523D01*
X102414285Y-96871428D01*
X102490476Y-96871428D01*
X102604761Y-96909523D01*
X103061904Y-97366666D01*
X103061904Y-96871428D01*
X103061904Y-94471428D02*
X103061904Y-94928571D01*
X103061904Y-94700000D02*
X102261904Y-94700000D01*
X102376190Y-94776190D01*
X102452380Y-94852380D01*
X102490476Y-94928571D01*
X96366666Y-106035714D02*
X96328571Y-106073809D01*
X96214285Y-106111904D01*
X96138095Y-106111904D01*
X96023809Y-106073809D01*
X95947619Y-105997619D01*
X95909523Y-105921428D01*
X95871428Y-105769047D01*
X95871428Y-105654761D01*
X95909523Y-105502380D01*
X95947619Y-105426190D01*
X96023809Y-105350000D01*
X96138095Y-105311904D01*
X96214285Y-105311904D01*
X96328571Y-105350000D01*
X96366666Y-105388095D01*
X97128571Y-106111904D02*
X96671428Y-106111904D01*
X96900000Y-106111904D02*
X96900000Y-105311904D01*
X96823809Y-105426190D01*
X96747619Y-105502380D01*
X96671428Y-105540476D01*
X86623809Y-96611904D02*
X86166666Y-96611904D01*
X86395238Y-96611904D02*
X86395238Y-95811904D01*
X86319047Y-95926190D01*
X86242857Y-96002380D01*
X86166666Y-96040476D01*
X86966666Y-96611904D02*
X86966666Y-95811904D01*
X87423809Y-96611904D02*
X87080952Y-96154761D01*
X87423809Y-95811904D02*
X86966666Y-96269047D01*
X88109523Y-96078571D02*
X88109523Y-96611904D01*
X87766666Y-96078571D02*
X87766666Y-96497619D01*
X87804761Y-96573809D01*
X87880952Y-96611904D01*
X87995238Y-96611904D01*
X88071428Y-96573809D01*
X88109523Y-96535714D01*
X88757142Y-96192857D02*
X88490476Y-96192857D01*
X88490476Y-96611904D02*
X88490476Y-95811904D01*
X88871428Y-95811904D01*
X60140476Y-87561904D02*
X60140476Y-88209523D01*
X60178571Y-88285714D01*
X60216666Y-88323809D01*
X60292857Y-88361904D01*
X60445238Y-88361904D01*
X60521428Y-88323809D01*
X60559523Y-88285714D01*
X60597619Y-88209523D01*
X60597619Y-87561904D01*
X61397619Y-88361904D02*
X60940476Y-88361904D01*
X61169047Y-88361904D02*
X61169047Y-87561904D01*
X61092857Y-87676190D01*
X61016666Y-87752380D01*
X60940476Y-87790476D01*
X82897619Y-105321904D02*
X82516666Y-105321904D01*
X82478571Y-105702857D01*
X82516666Y-105664761D01*
X82592857Y-105626666D01*
X82783333Y-105626666D01*
X82859523Y-105664761D01*
X82897619Y-105702857D01*
X82935714Y-105779047D01*
X82935714Y-105969523D01*
X82897619Y-106045714D01*
X82859523Y-106083809D01*
X82783333Y-106121904D01*
X82592857Y-106121904D01*
X82516666Y-106083809D01*
X82478571Y-106045714D01*
X83164285Y-105321904D02*
X83430952Y-106121904D01*
X83697619Y-105321904D01*
X81940476Y-102940000D02*
X81864285Y-102901904D01*
X81750000Y-102901904D01*
X81635714Y-102940000D01*
X81559523Y-103016190D01*
X81521428Y-103092380D01*
X81483333Y-103244761D01*
X81483333Y-103359047D01*
X81521428Y-103511428D01*
X81559523Y-103587619D01*
X81635714Y-103663809D01*
X81750000Y-103701904D01*
X81826190Y-103701904D01*
X81940476Y-103663809D01*
X81978571Y-103625714D01*
X81978571Y-103359047D01*
X81826190Y-103359047D01*
X82321428Y-103701904D02*
X82321428Y-102901904D01*
X82778571Y-103701904D01*
X82778571Y-102901904D01*
X83159523Y-103701904D02*
X83159523Y-102901904D01*
X83350000Y-102901904D01*
X83464285Y-102940000D01*
X83540476Y-103016190D01*
X83578571Y-103092380D01*
X83616666Y-103244761D01*
X83616666Y-103359047D01*
X83578571Y-103511428D01*
X83540476Y-103587619D01*
X83464285Y-103663809D01*
X83350000Y-103701904D01*
X83159523Y-103701904D01*
X68795238Y-87893333D02*
X69176190Y-87893333D01*
X68719047Y-88121904D02*
X68985714Y-87321904D01*
X69252380Y-88121904D01*
X69519047Y-88121904D02*
X69519047Y-87321904D01*
X69976190Y-88121904D01*
X69976190Y-87321904D01*
X70242857Y-87321904D02*
X70700000Y-87321904D01*
X70471428Y-88121904D02*
X70471428Y-87321904D01*
X70966666Y-87702857D02*
X71233333Y-87702857D01*
X71347619Y-88121904D02*
X70966666Y-88121904D01*
X70966666Y-87321904D01*
X71347619Y-87321904D01*
X71690476Y-88121904D02*
X71690476Y-87321904D01*
X72147619Y-88121904D01*
X72147619Y-87321904D01*
X72528571Y-88121904D02*
X72528571Y-87321904D01*
X72985714Y-88121904D01*
X72985714Y-87321904D01*
X73328571Y-87893333D02*
X73709523Y-87893333D01*
X73252380Y-88121904D02*
X73519047Y-87321904D01*
X73785714Y-88121904D01*
X74547619Y-87321904D02*
X75004761Y-87321904D01*
X74776190Y-88121904D02*
X74776190Y-87321904D01*
X75271428Y-88121904D02*
X75271428Y-87321904D01*
X75271428Y-87702857D02*
X75728571Y-87702857D01*
X75728571Y-88121904D02*
X75728571Y-87321904D01*
X76109523Y-88121904D02*
X76109523Y-87321904D01*
X76452380Y-88083809D02*
X76566666Y-88121904D01*
X76757142Y-88121904D01*
X76833333Y-88083809D01*
X76871428Y-88045714D01*
X76909523Y-87969523D01*
X76909523Y-87893333D01*
X76871428Y-87817142D01*
X76833333Y-87779047D01*
X76757142Y-87740952D01*
X76604761Y-87702857D01*
X76528571Y-87664761D01*
X76490476Y-87626666D01*
X76452380Y-87550476D01*
X76452380Y-87474285D01*
X76490476Y-87398095D01*
X76528571Y-87360000D01*
X76604761Y-87321904D01*
X76795238Y-87321904D01*
X76909523Y-87360000D01*
X77785714Y-87321904D02*
X77976190Y-88121904D01*
X78128571Y-87550476D01*
X78280952Y-88121904D01*
X78471428Y-87321904D01*
X78738095Y-87893333D02*
X79119047Y-87893333D01*
X78661904Y-88121904D02*
X78928571Y-87321904D01*
X79195238Y-88121904D01*
X79614285Y-87740952D02*
X79614285Y-88121904D01*
X79347619Y-87321904D02*
X79614285Y-87740952D01*
X79880952Y-87321904D01*
X69992857Y-106321904D02*
X69992857Y-106969523D01*
X70030952Y-107045714D01*
X70069047Y-107083809D01*
X70145238Y-107121904D01*
X70297619Y-107121904D01*
X70373809Y-107083809D01*
X70411904Y-107045714D01*
X70450000Y-106969523D01*
X70450000Y-106321904D01*
X70792857Y-107083809D02*
X70907142Y-107121904D01*
X71097619Y-107121904D01*
X71173809Y-107083809D01*
X71211904Y-107045714D01*
X71250000Y-106969523D01*
X71250000Y-106893333D01*
X71211904Y-106817142D01*
X71173809Y-106779047D01*
X71097619Y-106740952D01*
X70945238Y-106702857D01*
X70869047Y-106664761D01*
X70830952Y-106626666D01*
X70792857Y-106550476D01*
X70792857Y-106474285D01*
X70830952Y-106398095D01*
X70869047Y-106360000D01*
X70945238Y-106321904D01*
X71135714Y-106321904D01*
X71250000Y-106360000D01*
X71859523Y-106702857D02*
X71973809Y-106740952D01*
X72011904Y-106779047D01*
X72050000Y-106855238D01*
X72050000Y-106969523D01*
X72011904Y-107045714D01*
X71973809Y-107083809D01*
X71897619Y-107121904D01*
X71592857Y-107121904D01*
X71592857Y-106321904D01*
X71859523Y-106321904D01*
X71935714Y-106360000D01*
X71973809Y-106398095D01*
X72011904Y-106474285D01*
X72011904Y-106550476D01*
X71973809Y-106626666D01*
X71935714Y-106664761D01*
X71859523Y-106702857D01*
X71592857Y-106702857D01*
X72888095Y-106321904D02*
X73345238Y-106321904D01*
X73116666Y-107121904D02*
X73116666Y-106321904D01*
X73611904Y-107121904D02*
X73611904Y-106321904D01*
X73611904Y-106702857D02*
X74069047Y-106702857D01*
X74069047Y-107121904D02*
X74069047Y-106321904D01*
X74450000Y-107121904D02*
X74450000Y-106321904D01*
X74792857Y-107083809D02*
X74907142Y-107121904D01*
X75097619Y-107121904D01*
X75173809Y-107083809D01*
X75211904Y-107045714D01*
X75250000Y-106969523D01*
X75250000Y-106893333D01*
X75211904Y-106817142D01*
X75173809Y-106779047D01*
X75097619Y-106740952D01*
X74945238Y-106702857D01*
X74869047Y-106664761D01*
X74830952Y-106626666D01*
X74792857Y-106550476D01*
X74792857Y-106474285D01*
X74830952Y-106398095D01*
X74869047Y-106360000D01*
X74945238Y-106321904D01*
X75135714Y-106321904D01*
X75250000Y-106360000D01*
X76126190Y-106321904D02*
X76316666Y-107121904D01*
X76469047Y-106550476D01*
X76621428Y-107121904D01*
X76811904Y-106321904D01*
X77078571Y-106893333D02*
X77459523Y-106893333D01*
X77002380Y-107121904D02*
X77269047Y-106321904D01*
X77535714Y-107121904D01*
X77954761Y-106740952D02*
X77954761Y-107121904D01*
X77688095Y-106321904D02*
X77954761Y-106740952D01*
X78221428Y-106321904D01*
X69440476Y-95321904D02*
X69630952Y-96121904D01*
X69783333Y-95550476D01*
X69935714Y-96121904D01*
X70126190Y-95321904D01*
X70430952Y-95702857D02*
X70697619Y-95702857D01*
X70811904Y-96121904D02*
X70430952Y-96121904D01*
X70430952Y-95321904D01*
X70811904Y-95321904D01*
X71154761Y-96121904D02*
X71154761Y-95321904D01*
X71421428Y-95893333D01*
X71688095Y-95321904D01*
X71688095Y-96121904D01*
X72221428Y-95321904D02*
X72373809Y-95321904D01*
X72450000Y-95360000D01*
X72526190Y-95436190D01*
X72564285Y-95588571D01*
X72564285Y-95855238D01*
X72526190Y-96007619D01*
X72450000Y-96083809D01*
X72373809Y-96121904D01*
X72221428Y-96121904D01*
X72145238Y-96083809D01*
X72069047Y-96007619D01*
X72030952Y-95855238D01*
X72030952Y-95588571D01*
X72069047Y-95436190D01*
X72145238Y-95360000D01*
X72221428Y-95321904D01*
X72869047Y-96083809D02*
X72983333Y-96121904D01*
X73173809Y-96121904D01*
X73250000Y-96083809D01*
X73288095Y-96045714D01*
X73326190Y-95969523D01*
X73326190Y-95893333D01*
X73288095Y-95817142D01*
X73250000Y-95779047D01*
X73173809Y-95740952D01*
X73021428Y-95702857D01*
X72945238Y-95664761D01*
X72907142Y-95626666D01*
X72869047Y-95550476D01*
X72869047Y-95474285D01*
X72907142Y-95398095D01*
X72945238Y-95360000D01*
X73021428Y-95321904D01*
X73211904Y-95321904D01*
X73326190Y-95360000D01*
X74278571Y-96121904D02*
X74278571Y-95321904D01*
X74469047Y-95321904D01*
X74583333Y-95360000D01*
X74659523Y-95436190D01*
X74697619Y-95512380D01*
X74735714Y-95664761D01*
X74735714Y-95779047D01*
X74697619Y-95931428D01*
X74659523Y-96007619D01*
X74583333Y-96083809D01*
X74469047Y-96121904D01*
X74278571Y-96121904D01*
X75497619Y-96121904D02*
X75040476Y-96121904D01*
X75269047Y-96121904D02*
X75269047Y-95321904D01*
X75192857Y-95436190D01*
X75116666Y-95512380D01*
X75040476Y-95550476D01*
X76450000Y-96121904D02*
X76450000Y-95321904D01*
X76716666Y-95893333D01*
X76983333Y-95321904D01*
X76983333Y-96121904D01*
X77364285Y-96121904D02*
X77364285Y-95321904D01*
X77745238Y-96121904D02*
X77745238Y-95321904D01*
X78202380Y-96121904D01*
X78202380Y-95321904D01*
X78583333Y-96121904D02*
X78583333Y-95321904D01*
X64478571Y-90893333D02*
X64859523Y-90893333D01*
X64402380Y-91121904D02*
X64669047Y-90321904D01*
X64935714Y-91121904D01*
X65354761Y-90321904D02*
X65430952Y-90321904D01*
X65507142Y-90360000D01*
X65545238Y-90398095D01*
X65583333Y-90474285D01*
X65621428Y-90626666D01*
X65621428Y-90817142D01*
X65583333Y-90969523D01*
X65545238Y-91045714D01*
X65507142Y-91083809D01*
X65430952Y-91121904D01*
X65354761Y-91121904D01*
X65278571Y-91083809D01*
X65240476Y-91045714D01*
X65202380Y-90969523D01*
X65164285Y-90817142D01*
X65164285Y-90626666D01*
X65202380Y-90474285D01*
X65240476Y-90398095D01*
X65278571Y-90360000D01*
X65354761Y-90321904D01*
X64459523Y-103871904D02*
X64459523Y-103071904D01*
X64650000Y-103071904D01*
X64764285Y-103110000D01*
X64840476Y-103186190D01*
X64878571Y-103262380D01*
X64916666Y-103414761D01*
X64916666Y-103529047D01*
X64878571Y-103681428D01*
X64840476Y-103757619D01*
X64764285Y-103833809D01*
X64650000Y-103871904D01*
X64459523Y-103871904D01*
X65373809Y-103414761D02*
X65297619Y-103376666D01*
X65259523Y-103338571D01*
X65221428Y-103262380D01*
X65221428Y-103224285D01*
X65259523Y-103148095D01*
X65297619Y-103110000D01*
X65373809Y-103071904D01*
X65526190Y-103071904D01*
X65602380Y-103110000D01*
X65640476Y-103148095D01*
X65678571Y-103224285D01*
X65678571Y-103262380D01*
X65640476Y-103338571D01*
X65602380Y-103376666D01*
X65526190Y-103414761D01*
X65373809Y-103414761D01*
X65297619Y-103452857D01*
X65259523Y-103490952D01*
X65221428Y-103567142D01*
X65221428Y-103719523D01*
X65259523Y-103795714D01*
X65297619Y-103833809D01*
X65373809Y-103871904D01*
X65526190Y-103871904D01*
X65602380Y-103833809D01*
X65640476Y-103795714D01*
X65678571Y-103719523D01*
X65678571Y-103567142D01*
X65640476Y-103490952D01*
X65602380Y-103452857D01*
X65526190Y-103414761D01*
X64440476Y-105571904D02*
X64935714Y-105571904D01*
X64669047Y-105876666D01*
X64783333Y-105876666D01*
X64859523Y-105914761D01*
X64897619Y-105952857D01*
X64935714Y-106029047D01*
X64935714Y-106219523D01*
X64897619Y-106295714D01*
X64859523Y-106333809D01*
X64783333Y-106371904D01*
X64554761Y-106371904D01*
X64478571Y-106333809D01*
X64440476Y-106295714D01*
X65164285Y-105571904D02*
X65430952Y-106371904D01*
X65697619Y-105571904D01*
X82916666Y-91121904D02*
X82650000Y-90740952D01*
X82459523Y-91121904D02*
X82459523Y-90321904D01*
X82764285Y-90321904D01*
X82840476Y-90360000D01*
X82878571Y-90398095D01*
X82916666Y-90474285D01*
X82916666Y-90588571D01*
X82878571Y-90664761D01*
X82840476Y-90702857D01*
X82764285Y-90740952D01*
X82459523Y-90740952D01*
X83183333Y-90321904D02*
X83716666Y-91121904D01*
X83716666Y-90321904D02*
X83183333Y-91121904D01*
X82440476Y-87821904D02*
X82897619Y-87821904D01*
X82669047Y-88621904D02*
X82669047Y-87821904D01*
X83088095Y-87821904D02*
X83621428Y-88621904D01*
X83621428Y-87821904D02*
X83088095Y-88621904D01*
X64861904Y-88621904D02*
X64595238Y-88240952D01*
X64404761Y-88621904D02*
X64404761Y-87821904D01*
X64709523Y-87821904D01*
X64785714Y-87860000D01*
X64823809Y-87898095D01*
X64861904Y-87974285D01*
X64861904Y-88088571D01*
X64823809Y-88164761D01*
X64785714Y-88202857D01*
X64709523Y-88240952D01*
X64404761Y-88240952D01*
X65166666Y-88583809D02*
X65280952Y-88621904D01*
X65471428Y-88621904D01*
X65547619Y-88583809D01*
X65585714Y-88545714D01*
X65623809Y-88469523D01*
X65623809Y-88393333D01*
X65585714Y-88317142D01*
X65547619Y-88279047D01*
X65471428Y-88240952D01*
X65319047Y-88202857D01*
X65242857Y-88164761D01*
X65204761Y-88126666D01*
X65166666Y-88050476D01*
X65166666Y-87974285D01*
X65204761Y-87898095D01*
X65242857Y-87860000D01*
X65319047Y-87821904D01*
X65509523Y-87821904D01*
X65623809Y-87860000D01*
X65852380Y-87821904D02*
X66309523Y-87821904D01*
X66080952Y-88621904D02*
X66080952Y-87821904D01*
X72697619Y-98121904D02*
X72697619Y-97321904D01*
X72697619Y-97702857D02*
X73154761Y-97702857D01*
X73154761Y-98121904D02*
X73154761Y-97321904D01*
X73535714Y-97702857D02*
X73802380Y-97702857D01*
X73916666Y-98121904D02*
X73535714Y-98121904D01*
X73535714Y-97321904D01*
X73916666Y-97321904D01*
X74716666Y-98121904D02*
X74450000Y-97740952D01*
X74259523Y-98121904D02*
X74259523Y-97321904D01*
X74564285Y-97321904D01*
X74640476Y-97360000D01*
X74678571Y-97398095D01*
X74716666Y-97474285D01*
X74716666Y-97588571D01*
X74678571Y-97664761D01*
X74640476Y-97702857D01*
X74564285Y-97740952D01*
X74259523Y-97740952D01*
X75059523Y-97702857D02*
X75326190Y-97702857D01*
X75440476Y-98121904D02*
X75059523Y-98121904D01*
X75059523Y-97321904D01*
X75440476Y-97321904D01*
D12*
X59416666Y-102452380D02*
X59416666Y-103166666D01*
X59369047Y-103309523D01*
X59273809Y-103404761D01*
X59130952Y-103452380D01*
X59035714Y-103452380D01*
X60416666Y-103452380D02*
X59845238Y-103452380D01*
X60130952Y-103452380D02*
X60130952Y-102452380D01*
X60035714Y-102595238D01*
X59940476Y-102690476D01*
X59845238Y-102738095D01*
M02*
