%TF.GenerationSoftware,KiCad,Pcbnew,(5.0.0-3-g5ebb6b6)*%
%TF.CreationDate,2019-03-22T16:01:31+00:00*%
%TF.ProjectId,moodie_control_board,6D6F6F6469655F636F6E74726F6C5F62,rev?*%
%TF.SameCoordinates,Original*%
%TF.FileFunction,Legend,Bot*%
%TF.FilePolarity,Positive*%
%FSLAX46Y46*%
G04 Gerber Fmt 4.6, Leading zero omitted, Abs format (unit mm)*
G04 Created by KiCad (PCBNEW (5.0.0-3-g5ebb6b6)) date Friday 22 March 2019 at 16:01:31*
%MOMM*%
%LPD*%
G01*
G04 APERTURE LIST*
%ADD10C,0.100000*%
G04 APERTURE END LIST*
D10*
X76857142Y-93178571D02*
X76357142Y-94678571D01*
X75857142Y-93178571D01*
X73428571Y-94678571D02*
X74285714Y-94678571D01*
X73857142Y-94678571D02*
X73857142Y-93178571D01*
X74000000Y-93392857D01*
X74142857Y-93535714D01*
X74285714Y-93607142D01*
X72785714Y-94535714D02*
X72714285Y-94607142D01*
X72785714Y-94678571D01*
X72857142Y-94607142D01*
X72785714Y-94535714D01*
X72785714Y-94678571D01*
X71785714Y-93178571D02*
X71642857Y-93178571D01*
X71500000Y-93250000D01*
X71428571Y-93321428D01*
X71357142Y-93464285D01*
X71285714Y-93750000D01*
X71285714Y-94107142D01*
X71357142Y-94392857D01*
X71428571Y-94535714D01*
X71500000Y-94607142D01*
X71642857Y-94678571D01*
X71785714Y-94678571D01*
X71928571Y-94607142D01*
X72000000Y-94535714D01*
X72071428Y-94392857D01*
X72142857Y-94107142D01*
X72142857Y-93750000D01*
X72071428Y-93464285D01*
X72000000Y-93321428D01*
X71928571Y-93250000D01*
X71785714Y-93178571D01*
X80190476Y-101202380D02*
X80190476Y-100535714D01*
X80190476Y-100630952D02*
X80142857Y-100583333D01*
X80047619Y-100535714D01*
X79904761Y-100535714D01*
X79809523Y-100583333D01*
X79761904Y-100678571D01*
X79761904Y-101202380D01*
X79761904Y-100678571D02*
X79714285Y-100583333D01*
X79619047Y-100535714D01*
X79476190Y-100535714D01*
X79380952Y-100583333D01*
X79333333Y-100678571D01*
X79333333Y-101202380D01*
X78428571Y-101154761D02*
X78523809Y-101202380D01*
X78714285Y-101202380D01*
X78809523Y-101154761D01*
X78857142Y-101107142D01*
X78904761Y-101011904D01*
X78904761Y-100726190D01*
X78857142Y-100630952D01*
X78809523Y-100583333D01*
X78714285Y-100535714D01*
X78523809Y-100535714D01*
X78428571Y-100583333D01*
X77571428Y-101202380D02*
X77571428Y-100202380D01*
X77571428Y-101154761D02*
X77666666Y-101202380D01*
X77857142Y-101202380D01*
X77952380Y-101154761D01*
X78000000Y-101107142D01*
X78047619Y-101011904D01*
X78047619Y-100726190D01*
X78000000Y-100630952D01*
X77952380Y-100583333D01*
X77857142Y-100535714D01*
X77666666Y-100535714D01*
X77571428Y-100583333D01*
X76666666Y-101202380D02*
X76666666Y-100202380D01*
X76666666Y-101154761D02*
X76761904Y-101202380D01*
X76952380Y-101202380D01*
X77047619Y-101154761D01*
X77095238Y-101107142D01*
X77142857Y-101011904D01*
X77142857Y-100726190D01*
X77095238Y-100630952D01*
X77047619Y-100583333D01*
X76952380Y-100535714D01*
X76761904Y-100535714D01*
X76666666Y-100583333D01*
X76285714Y-100535714D02*
X76047619Y-101202380D01*
X75809523Y-100535714D01*
X75428571Y-101107142D02*
X75380952Y-101154761D01*
X75428571Y-101202380D01*
X75476190Y-101154761D01*
X75428571Y-101107142D01*
X75428571Y-101202380D01*
X74952380Y-101202380D02*
X74952380Y-100535714D01*
X74952380Y-100630952D02*
X74904761Y-100583333D01*
X74809523Y-100535714D01*
X74666666Y-100535714D01*
X74571428Y-100583333D01*
X74523809Y-100678571D01*
X74523809Y-101202380D01*
X74523809Y-100678571D02*
X74476190Y-100583333D01*
X74380952Y-100535714D01*
X74238095Y-100535714D01*
X74142857Y-100583333D01*
X74095238Y-100678571D01*
X74095238Y-101202380D01*
X73238095Y-101154761D02*
X73333333Y-101202380D01*
X73523809Y-101202380D01*
X73619047Y-101154761D01*
X73666666Y-101059523D01*
X73666666Y-100678571D01*
X73619047Y-100583333D01*
X73523809Y-100535714D01*
X73333333Y-100535714D01*
X73238095Y-100583333D01*
X73190476Y-100678571D01*
X73190476Y-100773809D01*
X73666666Y-100869047D01*
X72047619Y-100154761D02*
X72904761Y-101440476D01*
X71714285Y-101202380D02*
X71714285Y-100535714D01*
X71714285Y-100630952D02*
X71666666Y-100583333D01*
X71571428Y-100535714D01*
X71428571Y-100535714D01*
X71333333Y-100583333D01*
X71285714Y-100678571D01*
X71285714Y-101202380D01*
X71285714Y-100678571D02*
X71238095Y-100583333D01*
X71142857Y-100535714D01*
X71000000Y-100535714D01*
X70904761Y-100583333D01*
X70857142Y-100678571D01*
X70857142Y-101202380D01*
X70238095Y-101202380D02*
X70333333Y-101154761D01*
X70380952Y-101107142D01*
X70428571Y-101011904D01*
X70428571Y-100726190D01*
X70380952Y-100630952D01*
X70333333Y-100583333D01*
X70238095Y-100535714D01*
X70095238Y-100535714D01*
X70000000Y-100583333D01*
X69952380Y-100630952D01*
X69904761Y-100726190D01*
X69904761Y-101011904D01*
X69952380Y-101107142D01*
X70000000Y-101154761D01*
X70095238Y-101202380D01*
X70238095Y-101202380D01*
X69333333Y-101202380D02*
X69428571Y-101154761D01*
X69476190Y-101107142D01*
X69523809Y-101011904D01*
X69523809Y-100726190D01*
X69476190Y-100630952D01*
X69428571Y-100583333D01*
X69333333Y-100535714D01*
X69190476Y-100535714D01*
X69095238Y-100583333D01*
X69047619Y-100630952D01*
X69000000Y-100726190D01*
X69000000Y-101011904D01*
X69047619Y-101107142D01*
X69095238Y-101154761D01*
X69190476Y-101202380D01*
X69333333Y-101202380D01*
X68142857Y-101202380D02*
X68142857Y-100202380D01*
X68142857Y-101154761D02*
X68238095Y-101202380D01*
X68428571Y-101202380D01*
X68523809Y-101154761D01*
X68571428Y-101107142D01*
X68619047Y-101011904D01*
X68619047Y-100726190D01*
X68571428Y-100630952D01*
X68523809Y-100583333D01*
X68428571Y-100535714D01*
X68238095Y-100535714D01*
X68142857Y-100583333D01*
X67666666Y-101202380D02*
X67666666Y-100535714D01*
X67666666Y-100202380D02*
X67714285Y-100250000D01*
X67666666Y-100297619D01*
X67619047Y-100250000D01*
X67666666Y-100202380D01*
X67666666Y-100297619D01*
X66809523Y-101154761D02*
X66904761Y-101202380D01*
X67095238Y-101202380D01*
X67190476Y-101154761D01*
X67238095Y-101059523D01*
X67238095Y-100678571D01*
X67190476Y-100583333D01*
X67095238Y-100535714D01*
X66904761Y-100535714D01*
X66809523Y-100583333D01*
X66761904Y-100678571D01*
X66761904Y-100773809D01*
X67238095Y-100869047D01*
X84950000Y-97033333D02*
X84950000Y-95633333D01*
X84483333Y-96633333D01*
X84016666Y-95633333D01*
X84016666Y-97033333D01*
X83150000Y-97033333D02*
X83283333Y-96966666D01*
X83350000Y-96900000D01*
X83416666Y-96766666D01*
X83416666Y-96366666D01*
X83350000Y-96233333D01*
X83283333Y-96166666D01*
X83150000Y-96100000D01*
X82950000Y-96100000D01*
X82816666Y-96166666D01*
X82750000Y-96233333D01*
X82683333Y-96366666D01*
X82683333Y-96766666D01*
X82750000Y-96900000D01*
X82816666Y-96966666D01*
X82950000Y-97033333D01*
X83150000Y-97033333D01*
X81883333Y-97033333D02*
X82016666Y-96966666D01*
X82083333Y-96900000D01*
X82150000Y-96766666D01*
X82150000Y-96366666D01*
X82083333Y-96233333D01*
X82016666Y-96166666D01*
X81883333Y-96100000D01*
X81683333Y-96100000D01*
X81550000Y-96166666D01*
X81483333Y-96233333D01*
X81416666Y-96366666D01*
X81416666Y-96766666D01*
X81483333Y-96900000D01*
X81550000Y-96966666D01*
X81683333Y-97033333D01*
X81883333Y-97033333D01*
X80216666Y-97033333D02*
X80216666Y-95633333D01*
X80216666Y-96966666D02*
X80350000Y-97033333D01*
X80616666Y-97033333D01*
X80750000Y-96966666D01*
X80816666Y-96900000D01*
X80883333Y-96766666D01*
X80883333Y-96366666D01*
X80816666Y-96233333D01*
X80750000Y-96166666D01*
X80616666Y-96100000D01*
X80350000Y-96100000D01*
X80216666Y-96166666D01*
X79550000Y-97033333D02*
X79550000Y-96100000D01*
X79550000Y-95633333D02*
X79616666Y-95700000D01*
X79550000Y-95766666D01*
X79483333Y-95700000D01*
X79550000Y-95633333D01*
X79550000Y-95766666D01*
X78350000Y-96966666D02*
X78483333Y-97033333D01*
X78750000Y-97033333D01*
X78883333Y-96966666D01*
X78950000Y-96833333D01*
X78950000Y-96300000D01*
X78883333Y-96166666D01*
X78750000Y-96100000D01*
X78483333Y-96100000D01*
X78350000Y-96166666D01*
X78283333Y-96300000D01*
X78283333Y-96433333D01*
X78950000Y-96566666D01*
X75816666Y-96900000D02*
X75883333Y-96966666D01*
X76083333Y-97033333D01*
X76216666Y-97033333D01*
X76416666Y-96966666D01*
X76550000Y-96833333D01*
X76616666Y-96700000D01*
X76683333Y-96433333D01*
X76683333Y-96233333D01*
X76616666Y-95966666D01*
X76550000Y-95833333D01*
X76416666Y-95700000D01*
X76216666Y-95633333D01*
X76083333Y-95633333D01*
X75883333Y-95700000D01*
X75816666Y-95766666D01*
X75016666Y-97033333D02*
X75150000Y-96966666D01*
X75216666Y-96900000D01*
X75283333Y-96766666D01*
X75283333Y-96366666D01*
X75216666Y-96233333D01*
X75150000Y-96166666D01*
X75016666Y-96100000D01*
X74816666Y-96100000D01*
X74683333Y-96166666D01*
X74616666Y-96233333D01*
X74550000Y-96366666D01*
X74550000Y-96766666D01*
X74616666Y-96900000D01*
X74683333Y-96966666D01*
X74816666Y-97033333D01*
X75016666Y-97033333D01*
X73950000Y-96100000D02*
X73950000Y-97033333D01*
X73950000Y-96233333D02*
X73883333Y-96166666D01*
X73750000Y-96100000D01*
X73550000Y-96100000D01*
X73416666Y-96166666D01*
X73350000Y-96300000D01*
X73350000Y-97033333D01*
X72883333Y-96100000D02*
X72350000Y-96100000D01*
X72683333Y-95633333D02*
X72683333Y-96833333D01*
X72616666Y-96966666D01*
X72483333Y-97033333D01*
X72350000Y-97033333D01*
X71883333Y-97033333D02*
X71883333Y-96100000D01*
X71883333Y-96366666D02*
X71816666Y-96233333D01*
X71750000Y-96166666D01*
X71616666Y-96100000D01*
X71483333Y-96100000D01*
X70816666Y-97033333D02*
X70950000Y-96966666D01*
X71016666Y-96900000D01*
X71083333Y-96766666D01*
X71083333Y-96366666D01*
X71016666Y-96233333D01*
X70950000Y-96166666D01*
X70816666Y-96100000D01*
X70616666Y-96100000D01*
X70483333Y-96166666D01*
X70416666Y-96233333D01*
X70350000Y-96366666D01*
X70350000Y-96766666D01*
X70416666Y-96900000D01*
X70483333Y-96966666D01*
X70616666Y-97033333D01*
X70816666Y-97033333D01*
X69550000Y-97033333D02*
X69683333Y-96966666D01*
X69750000Y-96833333D01*
X69750000Y-95633333D01*
X67483333Y-96300000D02*
X67283333Y-96366666D01*
X67216666Y-96433333D01*
X67150000Y-96566666D01*
X67150000Y-96766666D01*
X67216666Y-96900000D01*
X67283333Y-96966666D01*
X67416666Y-97033333D01*
X67950000Y-97033333D01*
X67950000Y-95633333D01*
X67483333Y-95633333D01*
X67350000Y-95700000D01*
X67283333Y-95766666D01*
X67216666Y-95900000D01*
X67216666Y-96033333D01*
X67283333Y-96166666D01*
X67350000Y-96233333D01*
X67483333Y-96300000D01*
X67950000Y-96300000D01*
X66350000Y-97033333D02*
X66483333Y-96966666D01*
X66550000Y-96900000D01*
X66616666Y-96766666D01*
X66616666Y-96366666D01*
X66550000Y-96233333D01*
X66483333Y-96166666D01*
X66350000Y-96100000D01*
X66150000Y-96100000D01*
X66016666Y-96166666D01*
X65950000Y-96233333D01*
X65883333Y-96366666D01*
X65883333Y-96766666D01*
X65950000Y-96900000D01*
X66016666Y-96966666D01*
X66150000Y-97033333D01*
X66350000Y-97033333D01*
X64683333Y-97033333D02*
X64683333Y-96300000D01*
X64750000Y-96166666D01*
X64883333Y-96100000D01*
X65150000Y-96100000D01*
X65283333Y-96166666D01*
X64683333Y-96966666D02*
X64816666Y-97033333D01*
X65150000Y-97033333D01*
X65283333Y-96966666D01*
X65350000Y-96833333D01*
X65350000Y-96700000D01*
X65283333Y-96566666D01*
X65150000Y-96500000D01*
X64816666Y-96500000D01*
X64683333Y-96433333D01*
X64016666Y-97033333D02*
X64016666Y-96100000D01*
X64016666Y-96366666D02*
X63950000Y-96233333D01*
X63883333Y-96166666D01*
X63750000Y-96100000D01*
X63616666Y-96100000D01*
X62550000Y-97033333D02*
X62550000Y-95633333D01*
X62550000Y-96966666D02*
X62683333Y-97033333D01*
X62950000Y-97033333D01*
X63083333Y-96966666D01*
X63150000Y-96900000D01*
X63216666Y-96766666D01*
X63216666Y-96366666D01*
X63150000Y-96233333D01*
X63083333Y-96166666D01*
X62950000Y-96100000D01*
X62683333Y-96100000D01*
X62550000Y-96166666D01*
X78316666Y-97833333D02*
X78983333Y-97833333D01*
X79050000Y-98500000D01*
X78983333Y-98433333D01*
X78850000Y-98366666D01*
X78516666Y-98366666D01*
X78383333Y-98433333D01*
X78316666Y-98500000D01*
X78250000Y-98633333D01*
X78250000Y-98966666D01*
X78316666Y-99100000D01*
X78383333Y-99166666D01*
X78516666Y-99233333D01*
X78850000Y-99233333D01*
X78983333Y-99166666D01*
X79050000Y-99100000D01*
X77850000Y-97833333D02*
X77383333Y-99233333D01*
X76916666Y-97833333D01*
X76650000Y-98700000D02*
X76583333Y-98633333D01*
X76450000Y-98566666D01*
X76183333Y-98700000D01*
X76050000Y-98633333D01*
X75983333Y-98566666D01*
X74850000Y-98300000D02*
X74850000Y-99233333D01*
X75183333Y-97766666D02*
X75516666Y-98766666D01*
X74650000Y-98766666D01*
X74183333Y-98833333D02*
X73516666Y-98833333D01*
X74316666Y-99233333D02*
X73850000Y-97833333D01*
X73383333Y-99233333D01*
X71850000Y-99233333D02*
X71850000Y-97833333D01*
X71383333Y-98833333D01*
X70916666Y-97833333D01*
X70916666Y-99233333D01*
X69650000Y-99233333D02*
X69650000Y-98500000D01*
X69716666Y-98366666D01*
X69850000Y-98300000D01*
X70116666Y-98300000D01*
X70250000Y-98366666D01*
X69650000Y-99166666D02*
X69783333Y-99233333D01*
X70116666Y-99233333D01*
X70250000Y-99166666D01*
X70316666Y-99033333D01*
X70316666Y-98900000D01*
X70250000Y-98766666D01*
X70116666Y-98700000D01*
X69783333Y-98700000D01*
X69650000Y-98633333D01*
X69116666Y-99233333D02*
X68383333Y-98300000D01*
X69116666Y-98300000D02*
X68383333Y-99233333D01*
M02*
