%TF.GenerationSoftware,KiCad,Pcbnew,(5.0.0-3-g5ebb6b6)*%
%TF.CreationDate,2019-03-22T16:01:31+00:00*%
%TF.ProjectId,moodie_control_board,6D6F6F6469655F636F6E74726F6C5F62,rev?*%
%TF.SameCoordinates,Original*%
%TF.FileFunction,Copper,L1,Top,Signal*%
%TF.FilePolarity,Positive*%
%FSLAX46Y46*%
G04 Gerber Fmt 4.6, Leading zero omitted, Abs format (unit mm)*
G04 Created by KiCad (PCBNEW (5.0.0-3-g5ebb6b6)) date Friday 22 March 2019 at 16:01:31*
%MOMM*%
%LPD*%
G01*
G04 APERTURE LIST*
%ADD10C,6.000000*%
%ADD11C,1.900000*%
%ADD12C,2.000000*%
%ADD13R,2.000000X2.000000*%
%ADD14C,1.700000*%
%ADD15R,3.500000X3.500000*%
%ADD16C,0.800000*%
%ADD17C,0.250000*%
%ADD18C,0.254000*%
G04 APERTURE END LIST*
D10*
X102750000Y-106000000D03*
X102750000Y-88000000D03*
X51250000Y-106000000D03*
X51250000Y-88000000D03*
D11*
X100000000Y-94600000D03*
X100000000Y-99600000D03*
X100000000Y-97100000D03*
X105000000Y-94600000D03*
X105000000Y-97100000D03*
X105000000Y-99600000D03*
D12*
X92000000Y-103750000D03*
D13*
X92000000Y-98750000D03*
D14*
X85250000Y-88100000D03*
X85250000Y-90640000D03*
X85250000Y-103340000D03*
X85250000Y-105880000D03*
X62850000Y-88100000D03*
X62850000Y-90640000D03*
X62850000Y-103340000D03*
X62850000Y-105880000D03*
D15*
X56000000Y-101450000D03*
X53000000Y-96750000D03*
X59000000Y-96750000D03*
D16*
X86500000Y-94750000D03*
D17*
X77170000Y-103330000D02*
X62800000Y-103330000D01*
X105000000Y-97250000D02*
X100000000Y-97250000D01*
X86500000Y-94750000D02*
X85750000Y-94750000D01*
X85750000Y-94750000D02*
X77170000Y-103330000D01*
D18*
G36*
X55448508Y-86452599D02*
X55488119Y-86511881D01*
X55722972Y-86668805D01*
X55930074Y-86710000D01*
X55930078Y-86710000D01*
X55999999Y-86723908D01*
X56069920Y-86710000D01*
X62325265Y-86710000D01*
X62008815Y-86841078D01*
X61591078Y-87258815D01*
X61365000Y-87804615D01*
X61365000Y-88395385D01*
X61591078Y-88941185D01*
X62008815Y-89358922D01*
X62035560Y-89370000D01*
X62008815Y-89381078D01*
X61591078Y-89798815D01*
X61365000Y-90344615D01*
X61365000Y-90935385D01*
X61591078Y-91481185D01*
X62008815Y-91898922D01*
X62554615Y-92125000D01*
X63145385Y-92125000D01*
X63691185Y-91898922D01*
X64108922Y-91481185D01*
X64335000Y-90935385D01*
X64335000Y-90344615D01*
X64108922Y-89798815D01*
X63691185Y-89381078D01*
X63664440Y-89370000D01*
X63691185Y-89358922D01*
X64108922Y-88941185D01*
X64335000Y-88395385D01*
X64335000Y-87804615D01*
X64108922Y-87258815D01*
X63691185Y-86841078D01*
X63374735Y-86710000D01*
X84725265Y-86710000D01*
X84408815Y-86841078D01*
X83991078Y-87258815D01*
X83765000Y-87804615D01*
X83765000Y-88395385D01*
X83991078Y-88941185D01*
X84408815Y-89358922D01*
X84435560Y-89370000D01*
X84408815Y-89381078D01*
X83991078Y-89798815D01*
X83765000Y-90344615D01*
X83765000Y-90935385D01*
X83991078Y-91481185D01*
X84408815Y-91898922D01*
X84954615Y-92125000D01*
X85545385Y-92125000D01*
X86091185Y-91898922D01*
X86508922Y-91481185D01*
X86735000Y-90935385D01*
X86735000Y-90344615D01*
X86508922Y-89798815D01*
X86091185Y-89381078D01*
X86064440Y-89370000D01*
X86091185Y-89358922D01*
X86508922Y-88941185D01*
X86735000Y-88395385D01*
X86735000Y-87804615D01*
X86508922Y-87258815D01*
X86091185Y-86841078D01*
X85774735Y-86710000D01*
X97930076Y-86710000D01*
X98000000Y-86723909D01*
X98069924Y-86710000D01*
X98069926Y-86710000D01*
X98277028Y-86668805D01*
X98511881Y-86511881D01*
X98551494Y-86452596D01*
X100294091Y-84710000D01*
X101194050Y-84710000D01*
X100690938Y-84918396D01*
X99668396Y-85940938D01*
X99115000Y-87276954D01*
X99115000Y-88723046D01*
X99668396Y-90059062D01*
X100690938Y-91081604D01*
X102026954Y-91635000D01*
X103473046Y-91635000D01*
X104809062Y-91081604D01*
X105831604Y-90059062D01*
X106290000Y-88952396D01*
X106290000Y-93724665D01*
X106116350Y-93663255D01*
X105179605Y-94600000D01*
X106116350Y-95536745D01*
X106290000Y-95475335D01*
X106290000Y-96148472D01*
X105916141Y-95774613D01*
X105936745Y-95716350D01*
X105000000Y-94779605D01*
X104063255Y-95716350D01*
X104083859Y-95774613D01*
X103656302Y-96202170D01*
X103537079Y-96490000D01*
X101462921Y-96490000D01*
X101343698Y-96202170D01*
X100916141Y-95774613D01*
X100936745Y-95716350D01*
X100000000Y-94779605D01*
X99063255Y-95716350D01*
X99083859Y-95774613D01*
X98656302Y-96202170D01*
X98415000Y-96784724D01*
X98415000Y-97415276D01*
X98656302Y-97997830D01*
X99008472Y-98350000D01*
X98656302Y-98702170D01*
X98415000Y-99284724D01*
X98415000Y-99915276D01*
X98656302Y-100497830D01*
X99102170Y-100943698D01*
X99684724Y-101185000D01*
X100315276Y-101185000D01*
X100897830Y-100943698D01*
X101343698Y-100497830D01*
X101585000Y-99915276D01*
X101585000Y-99284724D01*
X101343698Y-98702170D01*
X100991528Y-98350000D01*
X101331528Y-98010000D01*
X103668472Y-98010000D01*
X104008472Y-98350000D01*
X103656302Y-98702170D01*
X103415000Y-99284724D01*
X103415000Y-99915276D01*
X103656302Y-100497830D01*
X104102170Y-100943698D01*
X104684724Y-101185000D01*
X105315276Y-101185000D01*
X105897830Y-100943698D01*
X106290001Y-100551527D01*
X106290001Y-105047606D01*
X105831604Y-103940938D01*
X104809062Y-102918396D01*
X103473046Y-102365000D01*
X102026954Y-102365000D01*
X100690938Y-102918396D01*
X99668396Y-103940938D01*
X99115000Y-105276954D01*
X99115000Y-106723046D01*
X99668396Y-108059062D01*
X100690938Y-109081604D01*
X101194050Y-109290000D01*
X100294091Y-109290000D01*
X98551494Y-107547404D01*
X98511881Y-107488119D01*
X98277028Y-107331195D01*
X98069926Y-107290000D01*
X98069924Y-107290000D01*
X98000000Y-107276091D01*
X97930076Y-107290000D01*
X85757071Y-107290000D01*
X86034080Y-107175259D01*
X86114353Y-106923958D01*
X85250000Y-106059605D01*
X84385647Y-106923958D01*
X84465920Y-107175259D01*
X84782225Y-107290000D01*
X63326451Y-107290000D01*
X63691185Y-107138922D01*
X64108922Y-106721185D01*
X64335000Y-106175385D01*
X64335000Y-105651279D01*
X83753282Y-105651279D01*
X83779685Y-106241458D01*
X83954741Y-106664080D01*
X84206042Y-106744353D01*
X85070395Y-105880000D01*
X85429605Y-105880000D01*
X86293958Y-106744353D01*
X86545259Y-106664080D01*
X86746718Y-106108721D01*
X86720315Y-105518542D01*
X86545259Y-105095920D01*
X86293958Y-105015647D01*
X85429605Y-105880000D01*
X85070395Y-105880000D01*
X84206042Y-105015647D01*
X83954741Y-105095920D01*
X83753282Y-105651279D01*
X64335000Y-105651279D01*
X64335000Y-105584615D01*
X64108922Y-105038815D01*
X63691185Y-104621078D01*
X63664440Y-104610000D01*
X63691185Y-104598922D01*
X64108922Y-104181185D01*
X64146692Y-104090000D01*
X77095153Y-104090000D01*
X77170000Y-104104888D01*
X77244847Y-104090000D01*
X77244852Y-104090000D01*
X77466537Y-104045904D01*
X77717929Y-103877929D01*
X77760331Y-103814470D01*
X78530186Y-103044615D01*
X83765000Y-103044615D01*
X83765000Y-103635385D01*
X83991078Y-104181185D01*
X84408815Y-104598922D01*
X84455247Y-104618155D01*
X84385647Y-104836042D01*
X85250000Y-105700395D01*
X86114353Y-104836042D01*
X86044753Y-104618155D01*
X86091185Y-104598922D01*
X86508922Y-104181185D01*
X86735000Y-103635385D01*
X86735000Y-103424778D01*
X90365000Y-103424778D01*
X90365000Y-104075222D01*
X90613914Y-104676153D01*
X91073847Y-105136086D01*
X91674778Y-105385000D01*
X92325222Y-105385000D01*
X92926153Y-105136086D01*
X93386086Y-104676153D01*
X93635000Y-104075222D01*
X93635000Y-103424778D01*
X93386086Y-102823847D01*
X92926153Y-102363914D01*
X92325222Y-102115000D01*
X91674778Y-102115000D01*
X91073847Y-102363914D01*
X90613914Y-102823847D01*
X90365000Y-103424778D01*
X86735000Y-103424778D01*
X86735000Y-103044615D01*
X86508922Y-102498815D01*
X86091185Y-102081078D01*
X85545385Y-101855000D01*
X84954615Y-101855000D01*
X84408815Y-102081078D01*
X83991078Y-102498815D01*
X83765000Y-103044615D01*
X78530186Y-103044615D01*
X82539052Y-99035750D01*
X90365000Y-99035750D01*
X90365000Y-99876309D01*
X90461673Y-100109698D01*
X90640301Y-100288327D01*
X90873690Y-100385000D01*
X91714250Y-100385000D01*
X91873000Y-100226250D01*
X91873000Y-98877000D01*
X92127000Y-98877000D01*
X92127000Y-100226250D01*
X92285750Y-100385000D01*
X93126310Y-100385000D01*
X93359699Y-100288327D01*
X93538327Y-100109698D01*
X93635000Y-99876309D01*
X93635000Y-99035750D01*
X93476250Y-98877000D01*
X92127000Y-98877000D01*
X91873000Y-98877000D01*
X90523750Y-98877000D01*
X90365000Y-99035750D01*
X82539052Y-99035750D01*
X83951111Y-97623691D01*
X90365000Y-97623691D01*
X90365000Y-98464250D01*
X90523750Y-98623000D01*
X91873000Y-98623000D01*
X91873000Y-97273750D01*
X92127000Y-97273750D01*
X92127000Y-98623000D01*
X93476250Y-98623000D01*
X93635000Y-98464250D01*
X93635000Y-97623691D01*
X93538327Y-97390302D01*
X93359699Y-97211673D01*
X93126310Y-97115000D01*
X92285750Y-97115000D01*
X92127000Y-97273750D01*
X91873000Y-97273750D01*
X91714250Y-97115000D01*
X90873690Y-97115000D01*
X90640301Y-97211673D01*
X90461673Y-97390302D01*
X90365000Y-97623691D01*
X83951111Y-97623691D01*
X85937516Y-95637287D01*
X86294126Y-95785000D01*
X86705874Y-95785000D01*
X87086280Y-95627431D01*
X87377431Y-95336280D01*
X87535000Y-94955874D01*
X87535000Y-94544126D01*
X87453513Y-94347398D01*
X98403812Y-94347398D01*
X98428648Y-94977461D01*
X98621981Y-95444208D01*
X98883650Y-95536745D01*
X99820395Y-94600000D01*
X100179605Y-94600000D01*
X101116350Y-95536745D01*
X101378019Y-95444208D01*
X101596188Y-94852602D01*
X101576274Y-94347398D01*
X103403812Y-94347398D01*
X103428648Y-94977461D01*
X103621981Y-95444208D01*
X103883650Y-95536745D01*
X104820395Y-94600000D01*
X103883650Y-93663255D01*
X103621981Y-93755792D01*
X103403812Y-94347398D01*
X101576274Y-94347398D01*
X101571352Y-94222539D01*
X101378019Y-93755792D01*
X101116350Y-93663255D01*
X100179605Y-94600000D01*
X99820395Y-94600000D01*
X98883650Y-93663255D01*
X98621981Y-93755792D01*
X98403812Y-94347398D01*
X87453513Y-94347398D01*
X87377431Y-94163720D01*
X87086280Y-93872569D01*
X86705874Y-93715000D01*
X86294126Y-93715000D01*
X85913720Y-93872569D01*
X85801027Y-93985262D01*
X85749999Y-93975112D01*
X85675152Y-93990000D01*
X85675148Y-93990000D01*
X85453463Y-94034096D01*
X85453461Y-94034097D01*
X85453462Y-94034097D01*
X85265526Y-94159671D01*
X85265524Y-94159673D01*
X85202071Y-94202071D01*
X85159673Y-94265524D01*
X76855199Y-102570000D01*
X64138408Y-102570000D01*
X64108922Y-102498815D01*
X63691185Y-102081078D01*
X63145385Y-101855000D01*
X62554615Y-101855000D01*
X62008815Y-102081078D01*
X61591078Y-102498815D01*
X61365000Y-103044615D01*
X61365000Y-103635385D01*
X61591078Y-104181185D01*
X62008815Y-104598922D01*
X62035560Y-104610000D01*
X62008815Y-104621078D01*
X61591078Y-105038815D01*
X61365000Y-105584615D01*
X61365000Y-106175385D01*
X61591078Y-106721185D01*
X62008815Y-107138922D01*
X62373549Y-107290000D01*
X56069920Y-107290000D01*
X55999999Y-107276092D01*
X55930078Y-107290000D01*
X55930074Y-107290000D01*
X55722972Y-107331195D01*
X55488119Y-107488119D01*
X55448508Y-107547401D01*
X53705910Y-109290000D01*
X52805950Y-109290000D01*
X53309062Y-109081604D01*
X54331604Y-108059062D01*
X54885000Y-106723046D01*
X54885000Y-105276954D01*
X54331604Y-103940938D01*
X54235153Y-103844487D01*
X54250000Y-103847440D01*
X57750000Y-103847440D01*
X57997765Y-103798157D01*
X58207809Y-103657809D01*
X58348157Y-103447765D01*
X58397440Y-103200000D01*
X58397440Y-99700000D01*
X58348157Y-99452235D01*
X58207809Y-99242191D01*
X58047388Y-99135000D01*
X58714250Y-99135000D01*
X58873000Y-98976250D01*
X58873000Y-96877000D01*
X59127000Y-96877000D01*
X59127000Y-98976250D01*
X59285750Y-99135000D01*
X60876309Y-99135000D01*
X61109698Y-99038327D01*
X61288327Y-98859699D01*
X61385000Y-98626310D01*
X61385000Y-97035750D01*
X61226250Y-96877000D01*
X59127000Y-96877000D01*
X58873000Y-96877000D01*
X56773750Y-96877000D01*
X56615000Y-97035750D01*
X56615000Y-98626310D01*
X56711673Y-98859699D01*
X56890302Y-99038327D01*
X56924663Y-99052560D01*
X55066005Y-99052560D01*
X55207809Y-98957809D01*
X55348157Y-98747765D01*
X55397440Y-98500000D01*
X55397440Y-95000000D01*
X55372316Y-94873690D01*
X56615000Y-94873690D01*
X56615000Y-96464250D01*
X56773750Y-96623000D01*
X58873000Y-96623000D01*
X58873000Y-94523750D01*
X59127000Y-94523750D01*
X59127000Y-96623000D01*
X61226250Y-96623000D01*
X61385000Y-96464250D01*
X61385000Y-94873690D01*
X61288327Y-94640301D01*
X61109698Y-94461673D01*
X60876309Y-94365000D01*
X59285750Y-94365000D01*
X59127000Y-94523750D01*
X58873000Y-94523750D01*
X58714250Y-94365000D01*
X57123691Y-94365000D01*
X56890302Y-94461673D01*
X56711673Y-94640301D01*
X56615000Y-94873690D01*
X55372316Y-94873690D01*
X55348157Y-94752235D01*
X55207809Y-94542191D01*
X54997765Y-94401843D01*
X54750000Y-94352560D01*
X51250000Y-94352560D01*
X51002235Y-94401843D01*
X50792191Y-94542191D01*
X50651843Y-94752235D01*
X50602560Y-95000000D01*
X50602560Y-98500000D01*
X50651843Y-98747765D01*
X50792191Y-98957809D01*
X51002235Y-99098157D01*
X51250000Y-99147440D01*
X53933995Y-99147440D01*
X53792191Y-99242191D01*
X53651843Y-99452235D01*
X53602560Y-99700000D01*
X53602560Y-103200000D01*
X53605513Y-103214847D01*
X53309062Y-102918396D01*
X51973046Y-102365000D01*
X50526954Y-102365000D01*
X49190938Y-102918396D01*
X48168396Y-103940938D01*
X47710000Y-105047604D01*
X47710000Y-93483650D01*
X99063255Y-93483650D01*
X100000000Y-94420395D01*
X100936745Y-93483650D01*
X104063255Y-93483650D01*
X105000000Y-94420395D01*
X105936745Y-93483650D01*
X105844208Y-93221981D01*
X105252602Y-93003812D01*
X104622539Y-93028648D01*
X104155792Y-93221981D01*
X104063255Y-93483650D01*
X100936745Y-93483650D01*
X100844208Y-93221981D01*
X100252602Y-93003812D01*
X99622539Y-93028648D01*
X99155792Y-93221981D01*
X99063255Y-93483650D01*
X47710000Y-93483650D01*
X47710000Y-88952396D01*
X48168396Y-90059062D01*
X49190938Y-91081604D01*
X50526954Y-91635000D01*
X51973046Y-91635000D01*
X53309062Y-91081604D01*
X54331604Y-90059062D01*
X54885000Y-88723046D01*
X54885000Y-87276954D01*
X54331604Y-85940938D01*
X53309062Y-84918396D01*
X52805950Y-84710000D01*
X53705910Y-84710000D01*
X55448508Y-86452599D01*
X55448508Y-86452599D01*
G37*
X55448508Y-86452599D02*
X55488119Y-86511881D01*
X55722972Y-86668805D01*
X55930074Y-86710000D01*
X55930078Y-86710000D01*
X55999999Y-86723908D01*
X56069920Y-86710000D01*
X62325265Y-86710000D01*
X62008815Y-86841078D01*
X61591078Y-87258815D01*
X61365000Y-87804615D01*
X61365000Y-88395385D01*
X61591078Y-88941185D01*
X62008815Y-89358922D01*
X62035560Y-89370000D01*
X62008815Y-89381078D01*
X61591078Y-89798815D01*
X61365000Y-90344615D01*
X61365000Y-90935385D01*
X61591078Y-91481185D01*
X62008815Y-91898922D01*
X62554615Y-92125000D01*
X63145385Y-92125000D01*
X63691185Y-91898922D01*
X64108922Y-91481185D01*
X64335000Y-90935385D01*
X64335000Y-90344615D01*
X64108922Y-89798815D01*
X63691185Y-89381078D01*
X63664440Y-89370000D01*
X63691185Y-89358922D01*
X64108922Y-88941185D01*
X64335000Y-88395385D01*
X64335000Y-87804615D01*
X64108922Y-87258815D01*
X63691185Y-86841078D01*
X63374735Y-86710000D01*
X84725265Y-86710000D01*
X84408815Y-86841078D01*
X83991078Y-87258815D01*
X83765000Y-87804615D01*
X83765000Y-88395385D01*
X83991078Y-88941185D01*
X84408815Y-89358922D01*
X84435560Y-89370000D01*
X84408815Y-89381078D01*
X83991078Y-89798815D01*
X83765000Y-90344615D01*
X83765000Y-90935385D01*
X83991078Y-91481185D01*
X84408815Y-91898922D01*
X84954615Y-92125000D01*
X85545385Y-92125000D01*
X86091185Y-91898922D01*
X86508922Y-91481185D01*
X86735000Y-90935385D01*
X86735000Y-90344615D01*
X86508922Y-89798815D01*
X86091185Y-89381078D01*
X86064440Y-89370000D01*
X86091185Y-89358922D01*
X86508922Y-88941185D01*
X86735000Y-88395385D01*
X86735000Y-87804615D01*
X86508922Y-87258815D01*
X86091185Y-86841078D01*
X85774735Y-86710000D01*
X97930076Y-86710000D01*
X98000000Y-86723909D01*
X98069924Y-86710000D01*
X98069926Y-86710000D01*
X98277028Y-86668805D01*
X98511881Y-86511881D01*
X98551494Y-86452596D01*
X100294091Y-84710000D01*
X101194050Y-84710000D01*
X100690938Y-84918396D01*
X99668396Y-85940938D01*
X99115000Y-87276954D01*
X99115000Y-88723046D01*
X99668396Y-90059062D01*
X100690938Y-91081604D01*
X102026954Y-91635000D01*
X103473046Y-91635000D01*
X104809062Y-91081604D01*
X105831604Y-90059062D01*
X106290000Y-88952396D01*
X106290000Y-93724665D01*
X106116350Y-93663255D01*
X105179605Y-94600000D01*
X106116350Y-95536745D01*
X106290000Y-95475335D01*
X106290000Y-96148472D01*
X105916141Y-95774613D01*
X105936745Y-95716350D01*
X105000000Y-94779605D01*
X104063255Y-95716350D01*
X104083859Y-95774613D01*
X103656302Y-96202170D01*
X103537079Y-96490000D01*
X101462921Y-96490000D01*
X101343698Y-96202170D01*
X100916141Y-95774613D01*
X100936745Y-95716350D01*
X100000000Y-94779605D01*
X99063255Y-95716350D01*
X99083859Y-95774613D01*
X98656302Y-96202170D01*
X98415000Y-96784724D01*
X98415000Y-97415276D01*
X98656302Y-97997830D01*
X99008472Y-98350000D01*
X98656302Y-98702170D01*
X98415000Y-99284724D01*
X98415000Y-99915276D01*
X98656302Y-100497830D01*
X99102170Y-100943698D01*
X99684724Y-101185000D01*
X100315276Y-101185000D01*
X100897830Y-100943698D01*
X101343698Y-100497830D01*
X101585000Y-99915276D01*
X101585000Y-99284724D01*
X101343698Y-98702170D01*
X100991528Y-98350000D01*
X101331528Y-98010000D01*
X103668472Y-98010000D01*
X104008472Y-98350000D01*
X103656302Y-98702170D01*
X103415000Y-99284724D01*
X103415000Y-99915276D01*
X103656302Y-100497830D01*
X104102170Y-100943698D01*
X104684724Y-101185000D01*
X105315276Y-101185000D01*
X105897830Y-100943698D01*
X106290001Y-100551527D01*
X106290001Y-105047606D01*
X105831604Y-103940938D01*
X104809062Y-102918396D01*
X103473046Y-102365000D01*
X102026954Y-102365000D01*
X100690938Y-102918396D01*
X99668396Y-103940938D01*
X99115000Y-105276954D01*
X99115000Y-106723046D01*
X99668396Y-108059062D01*
X100690938Y-109081604D01*
X101194050Y-109290000D01*
X100294091Y-109290000D01*
X98551494Y-107547404D01*
X98511881Y-107488119D01*
X98277028Y-107331195D01*
X98069926Y-107290000D01*
X98069924Y-107290000D01*
X98000000Y-107276091D01*
X97930076Y-107290000D01*
X85757071Y-107290000D01*
X86034080Y-107175259D01*
X86114353Y-106923958D01*
X85250000Y-106059605D01*
X84385647Y-106923958D01*
X84465920Y-107175259D01*
X84782225Y-107290000D01*
X63326451Y-107290000D01*
X63691185Y-107138922D01*
X64108922Y-106721185D01*
X64335000Y-106175385D01*
X64335000Y-105651279D01*
X83753282Y-105651279D01*
X83779685Y-106241458D01*
X83954741Y-106664080D01*
X84206042Y-106744353D01*
X85070395Y-105880000D01*
X85429605Y-105880000D01*
X86293958Y-106744353D01*
X86545259Y-106664080D01*
X86746718Y-106108721D01*
X86720315Y-105518542D01*
X86545259Y-105095920D01*
X86293958Y-105015647D01*
X85429605Y-105880000D01*
X85070395Y-105880000D01*
X84206042Y-105015647D01*
X83954741Y-105095920D01*
X83753282Y-105651279D01*
X64335000Y-105651279D01*
X64335000Y-105584615D01*
X64108922Y-105038815D01*
X63691185Y-104621078D01*
X63664440Y-104610000D01*
X63691185Y-104598922D01*
X64108922Y-104181185D01*
X64146692Y-104090000D01*
X77095153Y-104090000D01*
X77170000Y-104104888D01*
X77244847Y-104090000D01*
X77244852Y-104090000D01*
X77466537Y-104045904D01*
X77717929Y-103877929D01*
X77760331Y-103814470D01*
X78530186Y-103044615D01*
X83765000Y-103044615D01*
X83765000Y-103635385D01*
X83991078Y-104181185D01*
X84408815Y-104598922D01*
X84455247Y-104618155D01*
X84385647Y-104836042D01*
X85250000Y-105700395D01*
X86114353Y-104836042D01*
X86044753Y-104618155D01*
X86091185Y-104598922D01*
X86508922Y-104181185D01*
X86735000Y-103635385D01*
X86735000Y-103424778D01*
X90365000Y-103424778D01*
X90365000Y-104075222D01*
X90613914Y-104676153D01*
X91073847Y-105136086D01*
X91674778Y-105385000D01*
X92325222Y-105385000D01*
X92926153Y-105136086D01*
X93386086Y-104676153D01*
X93635000Y-104075222D01*
X93635000Y-103424778D01*
X93386086Y-102823847D01*
X92926153Y-102363914D01*
X92325222Y-102115000D01*
X91674778Y-102115000D01*
X91073847Y-102363914D01*
X90613914Y-102823847D01*
X90365000Y-103424778D01*
X86735000Y-103424778D01*
X86735000Y-103044615D01*
X86508922Y-102498815D01*
X86091185Y-102081078D01*
X85545385Y-101855000D01*
X84954615Y-101855000D01*
X84408815Y-102081078D01*
X83991078Y-102498815D01*
X83765000Y-103044615D01*
X78530186Y-103044615D01*
X82539052Y-99035750D01*
X90365000Y-99035750D01*
X90365000Y-99876309D01*
X90461673Y-100109698D01*
X90640301Y-100288327D01*
X90873690Y-100385000D01*
X91714250Y-100385000D01*
X91873000Y-100226250D01*
X91873000Y-98877000D01*
X92127000Y-98877000D01*
X92127000Y-100226250D01*
X92285750Y-100385000D01*
X93126310Y-100385000D01*
X93359699Y-100288327D01*
X93538327Y-100109698D01*
X93635000Y-99876309D01*
X93635000Y-99035750D01*
X93476250Y-98877000D01*
X92127000Y-98877000D01*
X91873000Y-98877000D01*
X90523750Y-98877000D01*
X90365000Y-99035750D01*
X82539052Y-99035750D01*
X83951111Y-97623691D01*
X90365000Y-97623691D01*
X90365000Y-98464250D01*
X90523750Y-98623000D01*
X91873000Y-98623000D01*
X91873000Y-97273750D01*
X92127000Y-97273750D01*
X92127000Y-98623000D01*
X93476250Y-98623000D01*
X93635000Y-98464250D01*
X93635000Y-97623691D01*
X93538327Y-97390302D01*
X93359699Y-97211673D01*
X93126310Y-97115000D01*
X92285750Y-97115000D01*
X92127000Y-97273750D01*
X91873000Y-97273750D01*
X91714250Y-97115000D01*
X90873690Y-97115000D01*
X90640301Y-97211673D01*
X90461673Y-97390302D01*
X90365000Y-97623691D01*
X83951111Y-97623691D01*
X85937516Y-95637287D01*
X86294126Y-95785000D01*
X86705874Y-95785000D01*
X87086280Y-95627431D01*
X87377431Y-95336280D01*
X87535000Y-94955874D01*
X87535000Y-94544126D01*
X87453513Y-94347398D01*
X98403812Y-94347398D01*
X98428648Y-94977461D01*
X98621981Y-95444208D01*
X98883650Y-95536745D01*
X99820395Y-94600000D01*
X100179605Y-94600000D01*
X101116350Y-95536745D01*
X101378019Y-95444208D01*
X101596188Y-94852602D01*
X101576274Y-94347398D01*
X103403812Y-94347398D01*
X103428648Y-94977461D01*
X103621981Y-95444208D01*
X103883650Y-95536745D01*
X104820395Y-94600000D01*
X103883650Y-93663255D01*
X103621981Y-93755792D01*
X103403812Y-94347398D01*
X101576274Y-94347398D01*
X101571352Y-94222539D01*
X101378019Y-93755792D01*
X101116350Y-93663255D01*
X100179605Y-94600000D01*
X99820395Y-94600000D01*
X98883650Y-93663255D01*
X98621981Y-93755792D01*
X98403812Y-94347398D01*
X87453513Y-94347398D01*
X87377431Y-94163720D01*
X87086280Y-93872569D01*
X86705874Y-93715000D01*
X86294126Y-93715000D01*
X85913720Y-93872569D01*
X85801027Y-93985262D01*
X85749999Y-93975112D01*
X85675152Y-93990000D01*
X85675148Y-93990000D01*
X85453463Y-94034096D01*
X85453461Y-94034097D01*
X85453462Y-94034097D01*
X85265526Y-94159671D01*
X85265524Y-94159673D01*
X85202071Y-94202071D01*
X85159673Y-94265524D01*
X76855199Y-102570000D01*
X64138408Y-102570000D01*
X64108922Y-102498815D01*
X63691185Y-102081078D01*
X63145385Y-101855000D01*
X62554615Y-101855000D01*
X62008815Y-102081078D01*
X61591078Y-102498815D01*
X61365000Y-103044615D01*
X61365000Y-103635385D01*
X61591078Y-104181185D01*
X62008815Y-104598922D01*
X62035560Y-104610000D01*
X62008815Y-104621078D01*
X61591078Y-105038815D01*
X61365000Y-105584615D01*
X61365000Y-106175385D01*
X61591078Y-106721185D01*
X62008815Y-107138922D01*
X62373549Y-107290000D01*
X56069920Y-107290000D01*
X55999999Y-107276092D01*
X55930078Y-107290000D01*
X55930074Y-107290000D01*
X55722972Y-107331195D01*
X55488119Y-107488119D01*
X55448508Y-107547401D01*
X53705910Y-109290000D01*
X52805950Y-109290000D01*
X53309062Y-109081604D01*
X54331604Y-108059062D01*
X54885000Y-106723046D01*
X54885000Y-105276954D01*
X54331604Y-103940938D01*
X54235153Y-103844487D01*
X54250000Y-103847440D01*
X57750000Y-103847440D01*
X57997765Y-103798157D01*
X58207809Y-103657809D01*
X58348157Y-103447765D01*
X58397440Y-103200000D01*
X58397440Y-99700000D01*
X58348157Y-99452235D01*
X58207809Y-99242191D01*
X58047388Y-99135000D01*
X58714250Y-99135000D01*
X58873000Y-98976250D01*
X58873000Y-96877000D01*
X59127000Y-96877000D01*
X59127000Y-98976250D01*
X59285750Y-99135000D01*
X60876309Y-99135000D01*
X61109698Y-99038327D01*
X61288327Y-98859699D01*
X61385000Y-98626310D01*
X61385000Y-97035750D01*
X61226250Y-96877000D01*
X59127000Y-96877000D01*
X58873000Y-96877000D01*
X56773750Y-96877000D01*
X56615000Y-97035750D01*
X56615000Y-98626310D01*
X56711673Y-98859699D01*
X56890302Y-99038327D01*
X56924663Y-99052560D01*
X55066005Y-99052560D01*
X55207809Y-98957809D01*
X55348157Y-98747765D01*
X55397440Y-98500000D01*
X55397440Y-95000000D01*
X55372316Y-94873690D01*
X56615000Y-94873690D01*
X56615000Y-96464250D01*
X56773750Y-96623000D01*
X58873000Y-96623000D01*
X58873000Y-94523750D01*
X59127000Y-94523750D01*
X59127000Y-96623000D01*
X61226250Y-96623000D01*
X61385000Y-96464250D01*
X61385000Y-94873690D01*
X61288327Y-94640301D01*
X61109698Y-94461673D01*
X60876309Y-94365000D01*
X59285750Y-94365000D01*
X59127000Y-94523750D01*
X58873000Y-94523750D01*
X58714250Y-94365000D01*
X57123691Y-94365000D01*
X56890302Y-94461673D01*
X56711673Y-94640301D01*
X56615000Y-94873690D01*
X55372316Y-94873690D01*
X55348157Y-94752235D01*
X55207809Y-94542191D01*
X54997765Y-94401843D01*
X54750000Y-94352560D01*
X51250000Y-94352560D01*
X51002235Y-94401843D01*
X50792191Y-94542191D01*
X50651843Y-94752235D01*
X50602560Y-95000000D01*
X50602560Y-98500000D01*
X50651843Y-98747765D01*
X50792191Y-98957809D01*
X51002235Y-99098157D01*
X51250000Y-99147440D01*
X53933995Y-99147440D01*
X53792191Y-99242191D01*
X53651843Y-99452235D01*
X53602560Y-99700000D01*
X53602560Y-103200000D01*
X53605513Y-103214847D01*
X53309062Y-102918396D01*
X51973046Y-102365000D01*
X50526954Y-102365000D01*
X49190938Y-102918396D01*
X48168396Y-103940938D01*
X47710000Y-105047604D01*
X47710000Y-93483650D01*
X99063255Y-93483650D01*
X100000000Y-94420395D01*
X100936745Y-93483650D01*
X104063255Y-93483650D01*
X105000000Y-94420395D01*
X105936745Y-93483650D01*
X105844208Y-93221981D01*
X105252602Y-93003812D01*
X104622539Y-93028648D01*
X104155792Y-93221981D01*
X104063255Y-93483650D01*
X100936745Y-93483650D01*
X100844208Y-93221981D01*
X100252602Y-93003812D01*
X99622539Y-93028648D01*
X99155792Y-93221981D01*
X99063255Y-93483650D01*
X47710000Y-93483650D01*
X47710000Y-88952396D01*
X48168396Y-90059062D01*
X49190938Y-91081604D01*
X50526954Y-91635000D01*
X51973046Y-91635000D01*
X53309062Y-91081604D01*
X54331604Y-90059062D01*
X54885000Y-88723046D01*
X54885000Y-87276954D01*
X54331604Y-85940938D01*
X53309062Y-84918396D01*
X52805950Y-84710000D01*
X53705910Y-84710000D01*
X55448508Y-86452599D01*
M02*
