<svg version="1.1" viewBox="0.0 0.0 559.5511811023622 470.98162729658793" fill="none" stroke="none" stroke-linecap="square" stroke-miterlimit="10" xmlns:xlink="http://www.w3.org/1999/xlink" xmlns="http://www.w3.org/2000/svg"><clipPath id="p.0"><path d="m0 0l559.5512 0l0 470.98163l-559.5512 0l0 -470.98163z" clip-rule="nonzero"/></clipPath><g clip-path="url(#p.0)"><path fill="#000000" fill-opacity="0.0" d="m0 0l559.5512 0l0 470.98163l-559.5512 0z" fill-rule="evenodd"/><path fill="#b6d7a8" d="m27.408136 349.4134l125.18897 0l0 80.66141l-62.594482 20.165344l-62.59449 -20.165344z" fill-rule="evenodd"/><path stroke="#666666" stroke-width="1.0" stroke-linejoin="round" stroke-linecap="butt" d="m27.408136 349.4134l125.18897 0l0 80.66141l-62.594482 20.165344l-62.59449 -20.165344z" fill-rule="evenodd"/><path fill="#666666" d="m54.82845 370.27847l0 -1.125l2.6875 0l0 9.390625l-1.265625 0l0 -8.265625l-1.421875 0zm4.21579 7.328125q2.265625 -1.515625 3.625 -3.015625q1.3593712 -1.5 1.3593712 -2.796875q0 -0.796875 -0.4062462 -1.28125q-0.40625 -0.484375 -1.3125 -0.484375q-0.9375 0 -1.421875 0.59375q-0.46875 0.59375 -0.53125 1.625l-1.1875 0q0.078125 -1.5625 0.953125 -2.40625q0.890625 -0.859375 2.28125 -0.859375q1.3125 0 2.0781212 0.71875q0.78125 0.703125 0.78125 2.0q0 1.0625 -0.6875 2.171875q-0.6874962 1.09375 -1.7187462 2.03125q-1.03125 0.9375 -2.125 1.59375l4.781246 0l0 1.0l-6.468746 0l0 -0.890625zm8.588268 -8.453125l2.859375 8.046875l2.90625 -8.046875l1.3125 0l-3.453125 9.390625l-1.53125 0l-3.4375 -9.390625l1.34375 0zm17.112473 7.21875l-4.140625 0l-0.78125 2.171875l-1.3125 0l3.484375 -9.21875l1.375 0l3.453125 9.21875l-1.296875 0l-0.78125 -2.171875zm-0.359375 -0.953125l-1.71875 -4.734375l-1.71875 4.734375l3.4375 0zm7.526306 -4.3125q1.28125 0 2.0625 0.828125q0.78125 0.8125 0.78125 2.359375l0 4.25l-1.203125 0l0 -4.140625q0 -1.09375 -0.5625 -1.671875q-0.5625 -0.59375 -1.515625 -0.59375q-1.0 0 -1.609375 0.640625q-0.59375 0.640625 -0.59375 1.890625l0 3.875l-1.21875 0l0 -7.3125l1.21875 0l0 1.734375q0.28125 -0.90625 0.984375 -1.375q0.71875 -0.484375 1.65625 -0.484375zm7.7105713 0.03125q1.0625 0 1.796875 0.53125q0.75 0.53125 1.046875 1.421875l0 -1.859375l1.21875 0l0 7.3125l-1.21875 0l0 -1.859375q-0.296875 0.890625 -1.046875 1.421875q-0.734375 0.53125 -1.796875 0.53125q-0.96875 0 -1.734375 -0.453125q-0.75 -0.453125 -1.1875 -1.296875q-0.4375 -0.84375 -0.4375 -2.0q0 -1.140625 0.4375 -1.984375q0.4375 -0.859375 1.1875 -1.3125q0.765625 -0.453125 1.734375 -0.453125zm0.34375 1.078125q-1.109375 0 -1.78125 0.71875q-0.671875 0.703125 -0.671875 1.953125q0 1.25 0.671875 1.96875q0.671875 0.71875 1.78125 0.71875q0.71875 0 1.28125 -0.328125q0.578125 -0.34375 0.890625 -0.953125q0.328125 -0.609375 0.328125 -1.40625q0 -0.796875 -0.328125 -1.40625q-0.3125 -0.609375 -0.890625 -0.9375q-0.5625 -0.328125 -1.28125 -0.328125zm6.858124 -3.53125l0 9.859375l-1.21875 0l0 -9.859375l1.21875 0zm5.2681274 2.453125q1.046875 0 1.875 0.453125q0.84375 0.453125 1.3125 1.3125q0.46875 0.84375 0.46875 1.984375q0 1.15625 -0.46875 2.0q-0.46875 0.84375 -1.3125 1.296875q-0.828125 0.453125 -1.875 0.453125q-1.0625 0 -1.890625 -0.453125q-0.828125 -0.453125 -1.3125 -1.296875q-0.484375 -0.84375 -0.484375 -2.0q0 -1.140625 0.484375 -1.984375q0.484375 -0.859375 1.3125 -1.3125q0.828125 -0.453125 1.890625 -0.453125zm0 1.0625q-0.65625 0 -1.21875 0.296875q-0.546875 0.296875 -0.890625 0.90625q-0.328125 0.59375 -0.328125 1.484375q0 0.890625 0.328125 1.5q0.34375 0.59375 0.890625 0.890625q0.5625 0.296875 1.21875 0.296875q0.640625 0 1.1875 -0.296875q0.5625 -0.296875 0.90625 -0.890625q0.34375 -0.609375 0.34375 -1.5q0 -0.890625 -0.34375 -1.484375q-0.34375 -0.609375 -0.90625 -0.90625q-0.546875 -0.296875 -1.1875 -0.296875zm8.241821 -1.0625q1.0625 0 1.796875 0.53125q0.75 0.53125 1.046875 1.421875l0 -1.859375l1.21875 0l0 7.4375q0 1.015625 -0.4375 1.796875q-0.421875 0.78125 -1.203125 1.21875q-0.765625 0.4375 -1.796875 0.4375q-1.46875 0 -2.40625 -0.71875q-0.9375 -0.703125 -1.1875 -1.90625l1.203125 0q0.203125 0.71875 0.796875 1.140625q0.59375 0.421875 1.53125 0.421875q0.984375 0 1.625 -0.640625q0.65625 -0.625 0.65625 -1.75l0 -1.984375q-0.296875 0.890625 -1.046875 1.421875q-0.734375 0.53125 -1.796875 0.53125q-0.96875 0 -1.734375 -0.453125q-0.75 -0.453125 -1.1875 -1.296875q-0.4375 -0.84375 -0.4375 -2.0q0 -1.140625 0.4375 -1.984375q0.4375 -0.859375 1.1875 -1.3125q0.765625 -0.453125 1.734375 -0.453125zm0.34375 1.078125q-1.109375 0 -1.78125 0.71875q-0.671875 0.703125 -0.671875 1.953125q0 1.25 0.671875 1.96875q0.671875 0.71875 1.78125 0.71875q0.71875 0 1.28125 -0.328125q0.578125 -0.34375 0.890625 -0.953125q0.328125 -0.609375 0.328125 -1.40625q0 -0.796875 -0.328125 -1.40625q-0.3125 -0.609375 -0.890625 -0.9375q-0.5625 -0.328125 -1.28125 -0.328125z" fill-rule="nonzero"/><path fill="#666666" d="m82.860916 394.5441l-2.453125 -3.84375l-1.3125 0l0 3.84375l-1.21875 0l0 -9.390625l3.09375 0q1.609375 0 2.40625 0.765625q0.796875 0.765625 0.796875 2.03125q0 1.140625 -0.640625 1.84375q-0.640625 0.703125 -1.859375 0.875l2.5625 3.875l-1.375 0zm-3.765625 -4.71875l1.765625 0q2.078125 0 2.078125 -1.8125q0 -1.8125 -2.078125 -1.8125l-1.765625 0l0 3.625zm10.817139 -4.765625q1.640625 0 2.75 0.8125q1.125 0.8125 1.5 2.203125l-1.28125 0q-0.328125 -0.84375 -1.109375 -1.359375q-0.78125 -0.53125 -1.84375 -0.53125q-0.953125 0 -1.71875 0.453125q-0.765625 0.4375 -1.203125 1.265625q-0.421875 0.828125 -0.421875 1.953125q0 1.140625 0.4375 1.984375q0.4375 0.828125 1.21875 1.28125q0.78125 0.4375 1.796875 0.4375q0.859375 0 1.578125 -0.375q0.71875 -0.375 1.171875 -1.078125q0.46875 -0.71875 0.5625 -1.6875l-3.6875 0l0 -0.90625l4.71875 0l0 1.125q-0.125 1.125 -0.703125 2.03125q-0.5625 0.90625 -1.546875 1.4375q-0.96875 0.53125 -2.203125 0.53125q-1.359375 0 -2.40625 -0.609375q-1.03125 -0.609375 -1.609375 -1.6875q-0.578125 -1.09375 -0.578125 -2.484375q0 -1.40625 0.578125 -2.484375q0.578125 -1.09375 1.609375 -1.703125q1.046875 -0.609375 2.390625 -0.609375zm10.697372 4.625q0.859375 0.1875 1.390625 0.828125q0.546875 0.625 0.546875 1.5q0 1.140625 -0.78125 1.84375q-0.78125 0.6875 -2.25 0.6875l-3.5 0l0 -9.390625l3.4375 0q1.421875 0 2.15625 0.625q0.734375 0.625 0.734375 1.71875q0 0.90625 -0.5 1.46875q-0.484375 0.546875 -1.234375 0.71875zm-3.375 -0.421875l2.03125 0q0.890625 0 1.359375 -0.40625q0.46875 -0.421875 0.46875 -1.15625q0 -0.734375 -0.46875 -1.140625q-0.453125 -0.40625 -1.421875 -0.40625l-1.96875 0l0 3.109375zm2.046875 4.265625q0.96875 0 1.484375 -0.4375q0.53125 -0.4375 0.53125 -1.234375q0 -0.796875 -0.546875 -1.234375q-0.53125 -0.453125 -1.484375 -0.453125l-2.03125 0l0 3.359375l2.046875 0z" fill-rule="nonzero"/><path fill="#666666" d="m52.162167 408.1066q0 0.671875 -0.328125 1.25q-0.3125 0.5625 -0.96875 0.921875q-0.65625 0.359375 -1.609375 0.359375q-0.9375 0 -1.671875 -0.34375q-0.71875 -0.34375 -1.15625 -0.921875q-0.421875 -0.59375 -0.5 -1.359375l1.296875 0q0.046875 0.40625 0.28125 0.78125q0.234375 0.375 0.65625 0.625q0.4375 0.25 1.046875 0.25q0.796875 0 1.21875 -0.421875q0.4375 -0.4375 0.4375 -1.109375q0 -0.5625 -0.296875 -0.921875q-0.296875 -0.359375 -0.75 -0.5625q-0.4375 -0.21875 -1.1875 -0.453125q-0.890625 -0.296875 -1.4375 -0.546875q-0.546875 -0.265625 -0.921875 -0.78125q-0.375 -0.53125 -0.375 -1.375q0 -0.734375 0.34375 -1.296875q0.359375 -0.5625 1.015625 -0.859375q0.65625 -0.3125 1.5625 -0.3125q1.375 0 2.1875 0.671875q0.8125 0.671875 0.953125 1.71875l-1.3125 0q-0.109375 -0.5625 -0.578125 -0.984375q-0.453125 -0.4375 -1.25 -0.4375q-0.734375 0 -1.1875 0.390625q-0.4375 0.375 -0.4375 1.0625q0 0.546875 0.28125 0.890625q0.296875 0.34375 0.71875 0.53125q0.4375 0.1875 1.171875 0.4375q0.90625 0.296875 1.453125 0.5625q0.5625 0.265625 0.953125 0.8125q0.390625 0.53125 0.390625 1.421875zm5.117218 1.375l0 1.0625l-0.90625 0q-1.125 0 -1.6875 -0.53125q-0.546875 -0.53125 -0.546875 -1.78125l0 -3.953125l-1.09375 0l0 -1.046875l1.09375 0l0 -1.828125l1.234375 0l0 1.828125l1.890625 0l0 1.046875l-1.890625 0l0 3.96875q0 0.703125 0.25 0.96875q0.265625 0.265625 0.90625 0.265625l0.75 0zm2.6901245 -4.78125q0.359375 -0.75 1.046875 -1.171875q0.703125 -0.421875 1.65625 -0.421875l0 1.3125l-0.375 0q-1.03125 0 -1.6875 0.53125q-0.640625 0.53125 -0.640625 1.734375l0 3.859375l-1.21875 0l0 -7.3125l1.21875 0l0 1.46875zm3.696106 -3.625q0 -0.328125 0.21875 -0.53125q0.23437119 -0.203125 0.6093712 -0.203125q0.359375 0 0.578125 0.203125q0.234375 0.203125 0.234375 0.53125q0 0.34375 -0.234375 0.546875q-0.21875 0.203125 -0.578125 0.203125q-0.375 0 -0.6093712 -0.203125q-0.21875 -0.203125 -0.21875 -0.546875zm1.4218712 2.15625l0 7.3125l-1.2187462 0l0 -7.3125l1.2187462 0zm5.9868774 -0.09375q0.96875 0 1.71875 0.453125q0.765625 0.453125 1.203125 1.3125q0.4375 0.84375 0.4375 1.984375q0 1.15625 -0.4375 2.0q-0.4375 0.84375 -1.203125 1.296875q-0.75 0.453125 -1.71875 0.453125q-1.078125 0 -1.8125 -0.53125q-0.734375 -0.546875 -1.015625 -1.421875l0 5.328125l-1.21875 0l0 -10.78125l1.21875 0l0 1.859375q0.28125 -0.875 1.015625 -1.40625q0.734375 -0.546875 1.8125 -0.546875zm-0.34375 1.078125q-0.71875 0 -1.296875 0.328125q-0.5625 0.328125 -0.890625 0.9375q-0.3125 0.609375 -0.3125 1.40625q0 0.796875 0.3125 1.40625q0.328125 0.609375 0.890625 0.953125q0.578125 0.328125 1.296875 0.328125q1.125 0 1.796875 -0.71875q0.671875 -0.71875 0.671875 -1.96875q0 -1.25 -0.671875 -1.953125q-0.671875 -0.71875 -1.796875 -0.71875zm11.900162 -1.078125q1.046875 0 1.875 0.453125q0.84375 0.453125 1.3125 1.3125q0.46875 0.84375 0.46875 1.984375q0 1.15625 -0.46875 2.0q-0.46875 0.84375 -1.3125 1.296875q-0.828125 0.453125 -1.875 0.453125q-1.0625 0 -1.890625 -0.453125q-0.828125 -0.453125 -1.3125 -1.296875q-0.484375 -0.84375 -0.484375 -2.0q0 -1.140625 0.484375 -1.984375q0.484375 -0.859375 1.3125 -1.3125q0.828125 -0.453125 1.890625 -0.453125zm0 1.0625q-0.65625 0 -1.21875 0.296875q-0.546875 0.296875 -0.890625 0.90625q-0.328125 0.59375 -0.328125 1.484375q0 0.890625 0.328125 1.5q0.34375 0.59375 0.890625 0.890625q0.5625 0.296875 1.21875 0.296875q0.640625 0 1.1875 -0.296875q0.5625 -0.296875 0.90625 -0.890625q0.34375 -0.609375 0.34375 -1.5q0 -0.890625 -0.34375 -1.484375q-0.34375 -0.609375 -0.90625 -0.90625q-0.546875 -0.296875 -1.1875 -0.296875zm6.4605713 0.5q0.359375 -0.75 1.046875 -1.171875q0.703125 -0.421875 1.65625 -0.421875l0 1.3125l-0.375 0q-1.03125 0 -1.6875 0.53125q-0.640625 0.53125 -0.640625 1.734375l0 3.859375l-1.21875 0l0 -7.3125l1.21875 0l0 1.46875zm11.347519 -3.640625q1.71875 0 2.84375 0.84375q1.125 0.84375 1.546875 2.3125l-1.28125 0q-0.359375 -0.9375 -1.15625 -1.484375q-0.796875 -0.5625 -1.953125 -0.5625q-0.921875 0 -1.65625 0.453125q-0.71875 0.4375 -1.140625 1.28125q-0.421875 0.828125 -0.421875 1.953125q0 1.109375 0.421875 1.9375q0.421875 0.8125 1.140625 1.265625q0.734375 0.4375 1.65625 0.4375q1.15625 0 1.953125 -0.546875q0.796875 -0.546875 1.15625 -1.484375l1.28125 0q-0.421875 1.46875 -1.546875 2.3125q-1.125 0.84375 -2.84375 0.84375q-1.3125 0 -2.328125 -0.609375q-1.015625 -0.609375 -1.578125 -1.6875q-0.5625 -1.09375 -0.5625 -2.46875q0 -1.40625 0.5625 -2.5q0.5625 -1.09375 1.578125 -1.6875q1.015625 -0.609375 2.328125 -0.609375zm9.872452 2.046875q1.28125 0 2.0625 0.828125q0.78125 0.8125 0.78125 2.359375l0 4.25l-1.203125 0l0 -4.140625q0 -1.09375 -0.5625 -1.671875q-0.5625 -0.59375 -1.515625 -0.59375q-1.0 0 -1.609375 0.640625q-0.59375 0.640625 -0.59375 1.890625l0 3.875l-1.21875 0l0 -9.859375l1.21875 0l0 4.28125q0.28125 -0.90625 0.984375 -1.375q0.71875 -0.484375 1.65625 -0.484375zm7.7105713 0.03125q1.0625 0 1.796875 0.53125q0.75 0.53125 1.046875 1.421875l0 -1.859375l1.21875 0l0 7.3125l-1.21875 0l0 -1.859375q-0.296875 0.890625 -1.046875 1.421875q-0.734375 0.53125 -1.796875 0.53125q-0.96875 0 -1.734375 -0.453125q-0.75 -0.453125 -1.1875 -1.296875q-0.4375 -0.84375 -0.4375 -2.0q0 -1.140625 0.4375 -1.984375q0.4375 -0.859375 1.1875 -1.3125q0.765625 -0.453125 1.734375 -0.453125zm0.34375 1.078125q-1.109375 0 -1.78125 0.71875q-0.671875 0.703125 -0.671875 1.953125q0 1.25 0.671875 1.96875q0.671875 0.71875 1.78125 0.71875q0.71875 0 1.28125 -0.328125q0.578125 -0.34375 0.890625 -0.953125q0.328125 -0.609375 0.328125 -1.40625q0 -0.796875 -0.328125 -1.40625q-0.3125 -0.609375 -0.890625 -0.9375q-0.5625 -0.328125 -1.28125 -0.328125zm5.436249 -3.140625q0 -0.328125 0.21875 -0.53125q0.234375 -0.203125 0.609375 -0.203125q0.359375 0 0.578125 0.203125q0.234375 0.203125 0.234375 0.53125q0 0.34375 -0.234375 0.546875q-0.21875 0.203125 -0.578125 0.203125q-0.375 0 -0.609375 -0.203125q-0.21875 -0.203125 -0.21875 -0.546875zm1.421875 2.15625l0 7.3125l-1.21875 0l0 -7.3125l1.21875 0zm5.799385 -0.125q1.28125 0 2.0625 0.828125q0.78125 0.8125 0.78125 2.359375l0 4.25l-1.203125 0l0 -4.140625q0 -1.09375 -0.5625 -1.671875q-0.5625 -0.59375 -1.515625 -0.59375q-1.0 0 -1.609375 0.640625q-0.59375 0.640625 -0.59375 1.890625l0 3.875l-1.2187576 0l0 -7.3125l1.2187576 0l0 1.734375q0.28125 -0.90625 0.984375 -1.375q0.71875 -0.484375 1.65625 -0.484375z" fill-rule="nonzero"/><path fill="#b6d7a8" d="m217.25853 349.4134l125.18898 0l0 80.66141l-62.594482 20.165344l-62.594498 -20.165344z" fill-rule="evenodd"/><path stroke="#666666" stroke-width="1.0" stroke-linejoin="round" stroke-linecap="butt" d="m217.25853 349.4134l125.18898 0l0 80.66141l-62.594482 20.165344l-62.594498 -20.165344z" fill-rule="evenodd"/><path fill="#666666" d="m255.74574 370.1066l-4.828125 0l0 3.140625q0.328125 -0.453125 0.953125 -0.71875q0.640625 -0.265625 1.375 -0.265625q1.0 0 1.65625 0.421875q0.671875 0.421875 0.984375 1.109375q0.31251526 0.6875 0.31251526 1.53125q0 1.453125 -0.81251526 2.375q-0.8125 0.90625 -2.390625 0.90625q-1.40625 0 -2.3125 -0.765625q-0.890625 -0.765625 -0.984375 -2.0625l1.1875 0q0.15625 0.828125 0.6875 1.296875q0.546875 0.453125 1.375 0.453125q1.015625 0 1.53125 -0.609375q0.53125 -0.609375 0.53125 -1.609375q0 -0.984375 -0.53125 -1.515625q-0.53125 -0.546875 -1.515625 -0.546875q-0.6875 0 -1.21875 0.296875q-0.515625 0.296875 -0.78125 0.796875l-1.171875 0l0 -5.3125l5.953125 0l0 1.078125zm2.7100983 -0.953125l2.859375 8.046875l2.90625 -8.046875l1.3125 0l-3.453125 9.390625l-1.53125 0l-3.4375 -9.390625l1.34375 0zm19.518738 4.6875q0 1.421875 -0.578125 2.484375q-0.5625 1.0625 -1.6875 1.640625q-1.109375 0.578125 -2.671875 0.578125l-2.984375 0l0 -9.390625l2.984375 0q1.5625 0 2.671875 0.5625q1.125 0.5625 1.6875 1.625q0.578125 1.0625 0.578125 2.5zm-5.03125 3.609375q1.84375 0 2.8125 -0.9375q0.984375 -0.953125 0.984375 -2.671875q0 -1.71875 -0.96875 -2.671875q-0.96875 -0.953125 -2.828125 -0.953125l-1.671875 0l0 7.234375l1.671875 0zm6.4624634 -8.375q0 -0.328125 0.21875 -0.53125q0.234375 -0.203125 0.609375 -0.203125q0.359375 0 0.578125 0.203125q0.234375 0.203125 0.234375 0.53125q0 0.34375 -0.234375 0.546875q-0.21875 0.203125 -0.578125 0.203125q-0.375 0 -0.609375 -0.203125q-0.21875 -0.203125 -0.21875 -0.546875zm1.421875 2.15625l0 7.3125l-1.21875 0l0 -7.3125l1.21875 0zm4.9400024 -0.09375q1.0625 0 1.796875 0.53125q0.75 0.53125 1.046875 1.421875l0 -1.859375l1.21875 0l0 7.4375q0 1.015625 -0.4375 1.796875q-0.421875 0.78125 -1.203125 1.21875q-0.765625 0.4375 -1.796875 0.4375q-1.46875 0 -2.40625 -0.71875q-0.9375 -0.703125 -1.1875 -1.90625l1.203125 0q0.203125 0.71875 0.796875 1.140625q0.59375 0.421875 1.53125 0.421875q0.984375 0 1.625 -0.640625q0.65625 -0.625 0.65625 -1.75l0 -1.984375q-0.296875 0.890625 -1.046875 1.421875q-0.734375 0.53125 -1.796875 0.53125q-0.96875 0 -1.734375 -0.453125q-0.75 -0.453125 -1.1875 -1.296875q-0.4375 -0.84375 -0.4375 -2.0q0 -1.140625 0.4375 -1.984375q0.4375 -0.859375 1.1875 -1.3125q0.765625 -0.453125 1.734375 -0.453125zm0.34375 1.078125q-1.109375 0 -1.78125 0.71875q-0.671875 0.703125 -0.671875 1.953125q0 1.25 0.671875 1.96875q0.671875 0.71875 1.78125 0.71875q0.71875 0 1.28125 -0.328125q0.578125 -0.34375 0.890625 -0.953125q0.328125 -0.609375 0.328125 -1.40625q0 -0.796875 -0.328125 -1.40625q-0.3125 -0.609375 -0.890625 -0.9375q-0.5625 -0.328125 -1.28125 -0.328125zm5.436249 -3.140625q0 -0.328125 0.21875 -0.53125q0.234375 -0.203125 0.609375 -0.203125q0.359375 0 0.578125 0.203125q0.234375 0.203125 0.234375 0.53125q0 0.34375 -0.234375 0.546875q-0.21875 0.203125 -0.578125 0.203125q-0.375 0 -0.609375 -0.203125q-0.21875 -0.203125 -0.21875 -0.546875zm1.421875 2.15625l0 7.3125l-1.21875 0l0 -7.3125l1.21875 0zm5.4400024 6.25l0 1.0625l-0.90625 0q-1.125 0 -1.6875 -0.53125q-0.546875 -0.53125 -0.546875 -1.78125l0 -3.953125l-1.09375 0l0 -1.046875l1.09375 0l0 -1.828125l1.234375 0l0 1.828125l1.890625 0l0 1.046875l-1.890625 0l0 3.96875q0 0.703125 0.25 0.96875q0.265625 0.265625 0.90625 0.265625l0.75 0zm4.4713745 -6.34375q1.0625 0 1.796875 0.53125q0.75 0.53125 1.046875 1.421875l0 -1.859375l1.21875 0l0 7.3125l-1.21875 0l0 -1.859375q-0.296875 0.890625 -1.046875 1.421875q-0.734375 0.53125 -1.796875 0.53125q-0.96875 0 -1.734375 -0.453125q-0.75 -0.453125 -1.1875 -1.296875q-0.4375 -0.84375 -0.4375 -2.0q0 -1.140625 0.4375 -1.984375q0.4375 -0.859375 1.1875 -1.3125q0.765625 -0.453125 1.734375 -0.453125zm0.34375 1.078125q-1.109375 0 -1.78125 0.71875q-0.671875 0.703125 -0.671875 1.953125q0 1.25 0.671875 1.96875q0.671875 0.71875 1.78125 0.71875q0.71875 0 1.28125 -0.328125q0.578125 -0.34375 0.890625 -0.953125q0.328125 -0.609375 0.328125 -1.40625q0 -0.796875 -0.328125 -1.40625q-0.3125 -0.609375 -0.890625 -0.9375q-0.5625 -0.328125 -1.28125 -0.328125zm6.858124 -3.53125l0 9.859375l-1.21875 0l0 -9.859375l1.21875 0z" fill-rule="nonzero"/><path fill="#666666" d="m247.34798 394.5441l-2.453125 -3.84375l-1.3125 0l0 3.84375l-1.21875 0l0 -9.390625l3.09375 0q1.609375 0 2.40625 0.765625q0.796875 0.765625 0.796875 2.03125q0 1.140625 -0.640625 1.84375q-0.640625 0.703125 -1.859375 0.875l2.5625 3.875l-1.375 0zm-3.765625 -4.71875l1.765625 0q2.078125 0 2.078125 -1.8125q0 -1.8125 -2.078125 -1.8125l-1.765625 0l0 3.625zm10.817139 -4.765625q1.6406403 0 2.7500153 0.8125q1.125 0.8125 1.5 2.203125l-1.28125 0q-0.328125 -0.84375 -1.109375 -1.359375q-0.78126526 -0.53125 -1.8437653 -0.53125q-0.953125 0 -1.71875 0.453125q-0.765625 0.4375 -1.203125 1.265625q-0.421875 0.828125 -0.421875 1.953125q0 1.140625 0.4375 1.984375q0.4375 0.828125 1.21875 1.28125q0.78125 0.4375 1.796875 0.4375q0.859375 0 1.5781403 -0.375q0.71875 -0.375 1.171875 -1.078125q0.46875 -0.71875 0.5625 -1.6875l-3.6875153 0l0 -0.90625l4.7187653 0l0 1.125q-0.125 1.125 -0.703125 2.03125q-0.5625 0.90625 -1.546875 1.4375q-0.96876526 0.53125 -2.2031403 0.53125q-1.359375 0 -2.40625 -0.609375q-1.03125 -0.609375 -1.609375 -1.6875q-0.578125 -1.09375 -0.578125 -2.484375q0 -1.40625 0.578125 -2.484375q0.578125 -1.09375 1.609375 -1.703125q1.046875 -0.609375 2.390625 -0.609375zm10.697372 4.625q0.859375 0.1875 1.390625 0.828125q0.546875 0.625 0.546875 1.5q0 1.140625 -0.78125 1.84375q-0.78125 0.6875 -2.25 0.6875l-3.5 0l0 -9.390625l3.4375 0q1.421875 0 2.15625 0.625q0.734375 0.625 0.734375 1.71875q0 0.90625 -0.5 1.46875q-0.484375 0.546875 -1.234375 0.71875zm-3.375 -0.421875l2.03125 0q0.890625 0 1.359375 -0.40625q0.46875 -0.421875 0.46875 -1.15625q0 -0.734375 -0.46875 -1.140625q-0.453125 -0.40625 -1.421875 -0.40625l-1.96875 0l0 3.109375zm2.046875 4.265625q0.96875 0 1.484375 -0.4375q0.53125 -0.4375 0.53125 -1.234375q0 -0.796875 -0.546875 -1.234375q-0.53125 -0.453125 -1.484375 -0.453125l-2.03125 0l0 3.359375l2.046875 0zm12.029694 -11.546875l-3.65625 14.84375l-1.171875 0l3.640625 -14.84375l1.1875 0zm9.294678 12.5625l-2.453125 -3.84375l-1.3125 0l0 3.84375l-1.21875 0l0 -9.390625l3.09375 0q1.609375 0 2.40625 0.765625q0.796875 0.765625 0.796875 2.03125q0 1.140625 -0.640625 1.84375q-0.640625 0.703125 -1.859375 0.875l2.5625 3.875l-1.375 0zm-3.765625 -4.71875l1.765625 0q2.078125 0 2.078125 -1.8125q0 -1.8125 -2.078125 -1.8125l-1.765625 0l0 3.625zm10.817139 -4.765625q1.640625 0 2.75 0.8125q1.125 0.8125 1.5 2.203125l-1.28125 0q-0.328125 -0.84375 -1.109375 -1.359375q-0.78125 -0.53125 -1.84375 -0.53125q-0.953125 0 -1.71875 0.453125q-0.765625 0.4375 -1.203125 1.265625q-0.421875 0.828125 -0.421875 1.953125q0 1.140625 0.4375 1.984375q0.4375 0.828125 1.21875 1.28125q0.78125 0.4375 1.796875 0.4375q0.859375 0 1.578125 -0.375q0.71875 -0.375 1.171875 -1.078125q0.46875 -0.71875 0.5625 -1.6875l-3.6875 0l0 -0.90625l4.71875 0l0 1.125q-0.125 1.125 -0.703125 2.03125q-0.5625 0.90625 -1.546875 1.4375q-0.96875 0.53125 -2.203125 0.53125q-1.359375 0 -2.40625 -0.609375q-1.03125 -0.609375 -1.609375 -1.6875q-0.578125 -1.09375 -0.578125 -2.484375q0 -1.40625 0.578125 -2.484375q0.578125 -1.09375 1.609375 -1.703125q1.046875 -0.609375 2.390625 -0.609375zm10.697357 4.625q0.859375 0.1875 1.390625 0.828125q0.546875 0.625 0.546875 1.5q0 1.140625 -0.78125 1.84375q-0.78125 0.6875 -2.25 0.6875l-3.5 0l0 -9.390625l3.4375 0q1.421875 0 2.15625 0.625q0.734375 0.625 0.734375 1.71875q0 0.90625 -0.5 1.46875q-0.484375 0.546875 -1.234375 0.71875zm-3.375 -0.421875l2.03125 0q0.890625 0 1.359375 -0.40625q0.46875 -0.421875 0.46875 -1.15625q0 -0.734375 -0.46875 -1.140625q-0.453125 -0.40625 -1.421875 -0.40625l-1.96875 0l0 3.109375zm2.046875 4.265625q0.96875 0 1.484375 -0.4375q0.53125 -0.4375 0.53125 -1.234375q0 -0.796875 -0.546875 -1.234375q-0.53125 -0.453125 -1.484375 -0.453125l-2.03125 0l0 3.359375l2.046875 0zm16.347046 -8.375l-2.390625 9.390625l-1.484375 0l-2.171875 -7.671875l-2.171875 7.671875l-1.46875 0l-2.40625 -9.390625l1.34375 0l1.796875 7.984375l2.234375 -7.984375l1.34375 0l2.234375 7.953125l1.8125 -7.953125l1.328125 0z" fill-rule="nonzero"/><path fill="#666666" d="m242.01256 408.1066q0 0.671875 -0.328125 1.25q-0.3125 0.5625 -0.96875 0.921875q-0.65625 0.359375 -1.609375 0.359375q-0.9375 0 -1.671875 -0.34375q-0.71875 -0.34375 -1.15625 -0.921875q-0.421875 -0.59375 -0.5 -1.359375l1.296875 0q0.046875 0.40625 0.28125 0.78125q0.234375 0.375 0.65625 0.625q0.4375 0.25 1.046875 0.25q0.796875 0 1.21875 -0.421875q0.4375 -0.4375 0.4375 -1.109375q0 -0.5625 -0.296875 -0.921875q-0.296875 -0.359375 -0.75 -0.5625q-0.4375 -0.21875 -1.1875 -0.453125q-0.890625 -0.296875 -1.4375 -0.546875q-0.546875 -0.265625 -0.921875 -0.78125q-0.375 -0.53125 -0.375 -1.375q0 -0.734375 0.34375 -1.296875q0.359375 -0.5625 1.015625 -0.859375q0.65625 -0.3125 1.5625 -0.3125q1.375 0 2.1875 0.671875q0.8125 0.671875 0.953125 1.71875l-1.3125 0q-0.109375 -0.5625 -0.578125 -0.984375q-0.453125 -0.4375 -1.25 -0.4375q-0.734375 0 -1.1875 0.390625q-0.4375 0.375 -0.4375 1.0625q0 0.546875 0.28125 0.890625q0.296875 0.34375 0.71875 0.53125q0.4375 0.1875 1.171875 0.4375q0.90625 0.296875 1.453125 0.5625q0.5625 0.265625 0.953125 0.8125q0.390625 0.53125 0.390625 1.421875zm5.117218 1.375l0 1.0625l-0.90625 0q-1.125 0 -1.6875 -0.53125q-0.546875 -0.53125 -0.546875 -1.78125l0 -3.953125l-1.09375 0l0 -1.046875l1.09375 0l0 -1.828125l1.234375 0l0 1.828125l1.890625 0l0 1.046875l-1.890625 0l0 3.96875q0 0.703125 0.25 0.96875q0.265625 0.265625 0.90625 0.265625l0.75 0zm2.6901245 -4.78125q0.359375 -0.75 1.046875 -1.171875q0.703125 -0.421875 1.65625 -0.421875l0 1.3125l-0.375 0q-1.03125 0 -1.6875 0.53125q-0.640625 0.53125 -0.640625 1.734375l0 3.859375l-1.21875 0l0 -7.3125l1.21875 0l0 1.46875zm3.696106 -3.625q0 -0.328125 0.21875 -0.53125q0.234375 -0.203125 0.609375 -0.203125q0.359375 0 0.578125 0.203125q0.234375 0.203125 0.234375 0.53125q0 0.34375 -0.234375 0.546875q-0.21875 0.203125 -0.578125 0.203125q-0.375 0 -0.609375 -0.203125q-0.21875 -0.203125 -0.21875 -0.546875zm1.421875 2.15625l0 7.3125l-1.21875 0l0 -7.3125l1.21875 0zm5.9868927 -0.09375q0.96875 0 1.71875 0.453125q0.765625 0.453125 1.203125 1.3125q0.4375 0.84375 0.4375 1.984375q0 1.15625 -0.4375 2.0q-0.4375 0.84375 -1.203125 1.296875q-0.75 0.453125 -1.71875 0.453125q-1.078125 0 -1.8125 -0.53125q-0.734375 -0.546875 -1.015625 -1.421875l0 5.328125l-1.21875 0l0 -10.78125l1.21875 0l0 1.859375q0.28125 -0.875 1.015625 -1.40625q0.734375 -0.546875 1.8125 -0.546875zm-0.34375 1.078125q-0.71875 0 -1.296875 0.328125q-0.5625 0.328125 -0.890625 0.9375q-0.3125 0.609375 -0.3125 1.40625q0 0.796875 0.3125 1.40625q0.328125 0.609375 0.890625 0.953125q0.578125 0.328125 1.296875 0.328125q1.125 0 1.796875 -0.71875q0.671875 -0.71875 0.671875 -1.96875q0 -1.25 -0.671875 -1.953125q-0.671875 -0.71875 -1.796875 -0.71875zm11.9001465 -1.078125q1.046875 0 1.875 0.453125q0.84375 0.453125 1.3125 1.3125q0.46875 0.84375 0.46875 1.984375q0 1.15625 -0.46875 2.0q-0.46875 0.84375 -1.3125 1.296875q-0.828125 0.453125 -1.875 0.453125q-1.0625 0 -1.890625 -0.453125q-0.828125 -0.453125 -1.3125 -1.296875q-0.484375 -0.84375 -0.484375 -2.0q0 -1.140625 0.484375 -1.984375q0.484375 -0.859375 1.3125 -1.3125q0.828125 -0.453125 1.890625 -0.453125zm0 1.0625q-0.65625 0 -1.21875 0.296875q-0.546875 0.296875 -0.890625 0.90625q-0.328125 0.59375 -0.328125 1.484375q0 0.890625 0.328125 1.5q0.34375 0.59375 0.890625 0.890625q0.5625 0.296875 1.21875 0.296875q0.640625 0 1.1875 -0.296875q0.5625 -0.296875 0.90625 -0.890625q0.34375 -0.609375 0.34375 -1.5q0 -0.890625 -0.34375 -1.484375q-0.34375 -0.609375 -0.90625 -0.90625q-0.546875 -0.296875 -1.1875 -0.296875zm6.4605713 0.5q0.359375 -0.75 1.046875 -1.171875q0.703125 -0.421875 1.65625 -0.421875l0 1.3125l-0.375 0q-1.03125 0 -1.6875 0.53125q-0.640625 0.53125 -0.640625 1.734375l0 3.859375l-1.21875 0l0 -7.3125l1.21875 0l0 1.46875zm11.347534 -3.640625q1.71875 0 2.84375 0.84375q1.125 0.84375 1.546875 2.3125l-1.28125 0q-0.359375 -0.9375 -1.15625 -1.484375q-0.796875 -0.5625 -1.953125 -0.5625q-0.921875 0 -1.65625 0.453125q-0.71875 0.4375 -1.140625 1.28125q-0.421875 0.828125 -0.421875 1.953125q0 1.109375 0.421875 1.9375q0.421875 0.8125 1.140625 1.265625q0.734375 0.4375 1.65625 0.4375q1.15625 0 1.953125 -0.546875q0.796875 -0.546875 1.15625 -1.484375l1.28125 0q-0.421875 1.46875 -1.546875 2.3125q-1.125 0.84375 -2.84375 0.84375q-1.3125 0 -2.328125 -0.609375q-1.015625 -0.609375 -1.578125 -1.6875q-0.5625 -1.09375 -0.5625 -2.46875q0 -1.40625 0.5625 -2.5q0.5625 -1.09375 1.578125 -1.6875q1.015625 -0.609375 2.328125 -0.609375zm9.872437 2.046875q1.28125 0 2.0625 0.828125q0.78125 0.8125 0.78125 2.359375l0 4.25l-1.203125 0l0 -4.140625q0 -1.09375 -0.5625 -1.671875q-0.5625 -0.59375 -1.515625 -0.59375q-1.0 0 -1.609375 0.640625q-0.59375 0.640625 -0.59375 1.890625l0 3.875l-1.21875 0l0 -9.859375l1.21875 0l0 4.28125q0.28125 -0.90625 0.984375 -1.375q0.71875 -0.484375 1.65625 -0.484375zm7.7105713 0.03125q1.0625 0 1.796875 0.53125q0.75 0.53125 1.046875 1.421875l0 -1.859375l1.21875 0l0 7.3125l-1.21875 0l0 -1.859375q-0.296875 0.890625 -1.046875 1.421875q-0.734375 0.53125 -1.796875 0.53125q-0.96875 0 -1.734375 -0.453125q-0.75 -0.453125 -1.1875 -1.296875q-0.4375 -0.84375 -0.4375 -2.0q0 -1.140625 0.4375 -1.984375q0.4375 -0.859375 1.1875 -1.3125q0.765625 -0.453125 1.734375 -0.453125zm0.34375 1.078125q-1.109375 0 -1.78125 0.71875q-0.671875 0.703125 -0.671875 1.953125q0 1.25 0.671875 1.96875q0.671875 0.71875 1.78125 0.71875q0.71875 0 1.28125 -0.328125q0.578125 -0.34375 0.890625 -0.953125q0.328125 -0.609375 0.328125 -1.40625q0 -0.796875 -0.328125 -1.40625q-0.3125 -0.609375 -0.890625 -0.9375q-0.5625 -0.328125 -1.28125 -0.328125zm5.436249 -3.140625q0 -0.328125 0.21875 -0.53125q0.234375 -0.203125 0.609375 -0.203125q0.359375 0 0.578125 0.203125q0.234375 0.203125 0.234375 0.53125q0 0.34375 -0.234375 0.546875q-0.21875 0.203125 -0.578125 0.203125q-0.375 0 -0.609375 -0.203125q-0.21875 -0.203125 -0.21875 -0.546875zm1.421875 2.15625l0 7.3125l-1.21875 0l0 -7.3125l1.21875 0zm5.7993774 -0.125q1.28125 0 2.0625 0.828125q0.78125 0.8125 0.78125 2.359375l0 4.25l-1.203125 0l0 -4.140625q0 -1.09375 -0.5625 -1.671875q-0.5625 -0.59375 -1.515625 -0.59375q-1.0 0 -1.609375 0.640625q-0.59375 0.640625 -0.59375 1.890625l0 3.875l-1.21875 0l0 -7.3125l1.21875 0l0 1.734375q0.28125 -0.90625 0.984375 -1.375q0.71875 -0.484375 1.65625 -0.484375z" fill-rule="nonzero"/><path fill="#b6d7a8" d="m407.1089 349.4134l125.188965 0l0 80.66141l-62.594482 20.165344l-62.594482 -20.165344z" fill-rule="evenodd"/><path stroke="#666666" stroke-width="1.0" stroke-linejoin="round" stroke-linecap="butt" d="m407.1089 349.4134l125.188965 0l0 80.66141l-62.594482 20.165344l-62.594482 -20.165344z" fill-rule="evenodd"/><path fill="#666666" d="m445.5961 370.1066l-4.828125 0l0 3.140625q0.328125 -0.453125 0.953125 -0.71875q0.640625 -0.265625 1.375 -0.265625q1.0 0 1.65625 0.421875q0.671875 0.421875 0.984375 1.109375q0.3125 0.6875 0.3125 1.53125q0 1.453125 -0.8125 2.375q-0.8125 0.90625 -2.390625 0.90625q-1.40625 0 -2.3125 -0.765625q-0.890625 -0.765625 -0.984375 -2.0625l1.1875 0q0.15625 0.828125 0.6875 1.296875q0.546875 0.453125 1.375 0.453125q1.015625 0 1.53125 -0.609375q0.53125 -0.609375 0.53125 -1.609375q0 -0.984375 -0.53125 -1.515625q-0.53125 -0.546875 -1.515625 -0.546875q-0.6875 0 -1.21875 0.296875q-0.515625 0.296875 -0.78125 0.796875l-1.171875 0l0 -5.3125l5.953125 0l0 1.078125zm2.710083 -0.953125l2.859375 8.046875l2.90625 -8.046875l1.3125 0l-3.453125 9.390625l-1.53125 0l-3.4375 -9.390625l1.34375 0zm19.518738 4.6875q0 1.421875 -0.578125 2.484375q-0.5625 1.0625 -1.6875 1.640625q-1.109375 0.578125 -2.671875 0.578125l-2.984375 0l0 -9.390625l2.984375 0q1.5625 0 2.671875 0.5625q1.125 0.5625 1.6875 1.625q0.578125 1.0625 0.578125 2.5zm-5.03125 3.609375q1.84375 0 2.8125 -0.9375q0.984375 -0.953125 0.984375 -2.671875q0 -1.71875 -0.96875 -2.671875q-0.96875 -0.953125 -2.828125 -0.953125l-1.671875 0l0 7.234375l1.671875 0zm6.4624634 -8.375q0 -0.328125 0.21875 -0.53125q0.234375 -0.203125 0.609375 -0.203125q0.359375 0 0.578125 0.203125q0.234375 0.203125 0.234375 0.53125q0 0.34375 -0.234375 0.546875q-0.21875 0.203125 -0.578125 0.203125q-0.375 0 -0.609375 -0.203125q-0.21875 -0.203125 -0.21875 -0.546875zm1.421875 2.15625l0 7.3125l-1.21875 0l0 -7.3125l1.21875 0zm4.9400024 -0.09375q1.0625 0 1.796875 0.53125q0.75 0.53125 1.046875 1.421875l0 -1.859375l1.21875 0l0 7.4375q0 1.015625 -0.4375 1.796875q-0.421875 0.78125 -1.203125 1.21875q-0.765625 0.4375 -1.796875 0.4375q-1.46875 0 -2.40625 -0.71875q-0.9375 -0.703125 -1.1875 -1.90625l1.203125 0q0.203125 0.71875 0.796875 1.140625q0.59375 0.421875 1.53125 0.421875q0.984375 0 1.625 -0.640625q0.65625 -0.625 0.65625 -1.75l0 -1.984375q-0.296875 0.890625 -1.046875 1.421875q-0.734375 0.53125 -1.796875 0.53125q-0.96875 0 -1.734375 -0.453125q-0.75 -0.453125 -1.1875 -1.296875q-0.4375 -0.84375 -0.4375 -2.0q0 -1.140625 0.4375 -1.984375q0.4375 -0.859375 1.1875 -1.3125q0.765625 -0.453125 1.734375 -0.453125zm0.34375 1.078125q-1.109375 0 -1.78125 0.71875q-0.671875 0.703125 -0.671875 1.953125q0 1.25 0.671875 1.96875q0.671875 0.71875 1.78125 0.71875q0.71875 0 1.28125 -0.328125q0.578125 -0.34375 0.890625 -0.953125q0.328125 -0.609375 0.328125 -1.40625q0 -0.796875 -0.328125 -1.40625q-0.3125 -0.609375 -0.890625 -0.9375q-0.5625 -0.328125 -1.28125 -0.328125zm5.436249 -3.140625q0 -0.328125 0.21875 -0.53125q0.234375 -0.203125 0.609375 -0.203125q0.359375 0 0.578125 0.203125q0.234375 0.203125 0.234375 0.53125q0 0.34375 -0.234375 0.546875q-0.21875 0.203125 -0.578125 0.203125q-0.375 0 -0.609375 -0.203125q-0.21875 -0.203125 -0.21875 -0.546875zm1.421875 2.15625l0 7.3125l-1.21875 0l0 -7.3125l1.21875 0zm5.4400024 6.25l0 1.0625l-0.90625 0q-1.125 0 -1.6875 -0.53125q-0.546875 -0.53125 -0.546875 -1.78125l0 -3.953125l-1.09375 0l0 -1.046875l1.09375 0l0 -1.828125l1.234375 0l0 1.828125l1.890625 0l0 1.046875l-1.890625 0l0 3.96875q0 0.703125 0.25 0.96875q0.265625 0.265625 0.90625 0.265625l0.75 0zm4.4713745 -6.34375q1.0625 0 1.796875 0.53125q0.75 0.53125 1.046875 1.421875l0 -1.859375l1.21875 0l0 7.3125l-1.21875 0l0 -1.859375q-0.296875 0.890625 -1.046875 1.421875q-0.734375 0.53125 -1.796875 0.53125q-0.96875 0 -1.734375 -0.453125q-0.75 -0.453125 -1.1875 -1.296875q-0.4375 -0.84375 -0.4375 -2.0q0 -1.140625 0.4375 -1.984375q0.4375 -0.859375 1.1875 -1.3125q0.765625 -0.453125 1.734375 -0.453125zm0.34375 1.078125q-1.109375 0 -1.78125 0.71875q-0.671875 0.703125 -0.671875 1.953125q0 1.25 0.671875 1.96875q0.671875 0.71875 1.78125 0.71875q0.71875 0 1.28125 -0.328125q0.578125 -0.34375 0.890625 -0.953125q0.328125 -0.609375 0.328125 -1.40625q0 -0.796875 -0.328125 -1.40625q-0.3125 -0.609375 -0.890625 -0.9375q-0.5625 -0.328125 -1.28125 -0.328125zm6.858124 -3.53125l0 9.859375l-1.21875 0l0 -9.859375l1.21875 0z" fill-rule="nonzero"/><path fill="#666666" d="m437.19833 394.5441l-2.453125 -3.84375l-1.3125 0l0 3.84375l-1.21875 0l0 -9.390625l3.09375 0q1.609375 0 2.40625 0.765625q0.796875 0.765625 0.796875 2.03125q0 1.140625 -0.640625 1.84375q-0.640625 0.703125 -1.859375 0.875l2.5625 3.875l-1.375 0zm-3.765625 -4.71875l1.765625 0q2.078125 0 2.078125 -1.8125q0 -1.8125 -2.078125 -1.8125l-1.765625 0l0 3.625zm10.817139 -4.765625q1.640625 0 2.75 0.8125q1.125 0.8125 1.5 2.203125l-1.28125 0q-0.328125 -0.84375 -1.109375 -1.359375q-0.78125 -0.53125 -1.84375 -0.53125q-0.953125 0 -1.71875 0.453125q-0.765625 0.4375 -1.203125 1.265625q-0.421875 0.828125 -0.421875 1.953125q0 1.140625 0.4375 1.984375q0.4375 0.828125 1.21875 1.28125q0.78125 0.4375 1.796875 0.4375q0.859375 0 1.578125 -0.375q0.71875 -0.375 1.171875 -1.078125q0.46875 -0.71875 0.5625 -1.6875l-3.6875 0l0 -0.90625l4.71875 0l0 1.125q-0.125 1.125 -0.703125 2.03125q-0.5625 0.90625 -1.546875 1.4375q-0.96875 0.53125 -2.203125 0.53125q-1.359375 0 -2.40625 -0.609375q-1.03125 -0.609375 -1.609375 -1.6875q-0.578125 -1.09375 -0.578125 -2.484375q0 -1.40625 0.578125 -2.484375q0.578125 -1.09375 1.609375 -1.703125q1.046875 -0.609375 2.390625 -0.609375zm10.697357 4.625q0.859375 0.1875 1.390625 0.828125q0.546875 0.625 0.546875 1.5q0 1.140625 -0.78125 1.84375q-0.78125 0.6875 -2.25 0.6875l-3.5 0l0 -9.390625l3.4375 0q1.421875 0 2.15625 0.625q0.734375 0.625 0.734375 1.71875q0 0.90625 -0.5 1.46875q-0.484375 0.546875 -1.234375 0.71875zm-3.375 -0.421875l2.03125 0q0.890625 0 1.359375 -0.40625q0.46875 -0.421875 0.46875 -1.15625q0 -0.734375 -0.46875 -1.140625q-0.453125 -0.40625 -1.421875 -0.40625l-1.96875 0l0 3.109375zm2.046875 4.265625q0.96875 0 1.484375 -0.4375q0.53125 -0.4375 0.53125 -1.234375q0 -0.796875 -0.546875 -1.234375q-0.53125 -0.453125 -1.484375 -0.453125l-2.03125 0l0 3.359375l2.046875 0zm12.029694 -11.546875l-3.65625 14.84375l-1.171875 0l3.640625 -14.84375l1.1875 0zm9.294678 12.5625l-2.453125 -3.84375l-1.3125 0l0 3.84375l-1.21875 0l0 -9.390625l3.09375 0q1.609375 0 2.40625 0.765625q0.796875 0.765625 0.796875 2.03125q0 1.140625 -0.640625 1.84375q-0.640625 0.703125 -1.859375 0.875l2.5625 3.875l-1.375 0zm-3.765625 -4.71875l1.765625 0q2.078125 0 2.078125 -1.8125q0 -1.8125 -2.078125 -1.8125l-1.765625 0l0 3.625zm10.817139 -4.765625q1.640625 0 2.75 0.8125q1.125 0.8125 1.5 2.203125l-1.28125 0q-0.328125 -0.84375 -1.109375 -1.359375q-0.78125 -0.53125 -1.84375 -0.53125q-0.953125 0 -1.71875 0.453125q-0.765625 0.4375 -1.203125 1.265625q-0.421875 0.828125 -0.421875 1.953125q0 1.140625 0.4375 1.984375q0.4375 0.828125 1.21875 1.28125q0.78125 0.4375 1.796875 0.4375q0.859375 0 1.578125 -0.375q0.71875 -0.375 1.171875 -1.078125q0.46875 -0.71875 0.5625 -1.6875l-3.6875 0l0 -0.90625l4.71875 0l0 1.125q-0.125 1.125 -0.703125 2.03125q-0.5625 0.90625 -1.546875 1.4375q-0.96875 0.53125 -2.203125 0.53125q-1.359375 0 -2.40625 -0.609375q-1.03125 -0.609375 -1.609375 -1.6875q-0.578125 -1.09375 -0.578125 -2.484375q0 -1.40625 0.578125 -2.484375q0.578125 -1.09375 1.609375 -1.703125q1.046875 -0.609375 2.390625 -0.609375zm10.697357 4.625q0.859375 0.1875 1.390625 0.828125q0.546875 0.625 0.546875 1.5q0 1.140625 -0.78125 1.84375q-0.78125 0.6875 -2.25 0.6875l-3.5 0l0 -9.390625l3.4375 0q1.421875 0 2.15625 0.625q0.734375 0.625 0.734375 1.71875q0 0.90625 -0.5 1.46875q-0.484375 0.546875 -1.234375 0.71875zm-3.375 -0.421875l2.03125 0q0.890625 0 1.359375 -0.40625q0.46875 -0.421875 0.46875 -1.15625q0 -0.734375 -0.46875 -1.140625q-0.453125 -0.40625 -1.421875 -0.40625l-1.96875 0l0 3.109375zm2.046875 4.265625q0.96875 0 1.484375 -0.4375q0.53125 -0.4375 0.53125 -1.234375q0 -0.796875 -0.546875 -1.234375q-0.53125 -0.453125 -1.484375 -0.453125l-2.03125 0l0 3.359375l2.046875 0zm16.347046 -8.375l-2.390625 9.390625l-1.484375 0l-2.171875 -7.671875l-2.171875 7.671875l-1.46875 0l-2.40625 -9.390625l1.34375 0l1.796875 7.984375l2.234375 -7.984375l1.34375 0l2.234375 7.953125l1.8125 -7.953125l1.328125 0z" fill-rule="nonzero"/><path fill="#666666" d="m422.6303 409.59097l3.328125 0l0 0.953125l-4.546875 0l0 -9.390625l1.21875 0l0 8.4375zm5.7843933 -7.453125l0 3.203125l3.5625 0l0 0.9375l-3.5625 0l0 3.28125l3.96875 0l0 0.984375l-5.1875 0l0 -9.390625l5.1875 0l0 0.984375l-3.96875 0zm13.447113 3.703125q0 1.421875 -0.578125 2.484375q-0.5625 1.0625 -1.6875 1.640625q-1.109375 0.578125 -2.671875 0.578125l-2.984375 0l0 -9.390625l2.984375 0q1.5625 0 2.671875 0.5625q1.125 0.5625 1.6875 1.625q0.578125 1.0625 0.578125 2.5zm-5.03125 3.609375q1.84375 0 2.8125 -0.9375q0.984375 -0.953125 0.984375 -2.671875q0 -1.71875 -0.96875 -2.671875q-0.96875 -0.953125 -2.828125 -0.953125l-1.671875 0l0 7.234375l1.671875 0zm11.176392 -8.296875l0 9.390625l-1.21875 0l0 -9.390625l1.21875 0zm5.7993774 1.953125q1.28125 0 2.0625 0.828125q0.78125 0.8125 0.78125 2.359375l0 4.25l-1.203125 0l0 -4.140625q0 -1.09375 -0.5625 -1.671875q-0.5625 -0.59375 -1.515625 -0.59375q-1.0 0 -1.609375 0.640625q-0.59375 0.640625 -0.59375 1.890625l0 3.875l-1.21875 0l0 -7.3125l1.21875 0l0 1.734375q0.28125 -0.90625 0.984375 -1.375q0.71875 -0.484375 1.65625 -0.484375zm7.0074463 0.03125q1.234375 0 1.984375 0.640625q0.765625 0.640625 0.921875 1.734375l-1.15625 0q-0.078125 -0.640625 -0.546875 -1.0625q-0.453125 -0.421875 -1.234375 -0.421875q-0.65625 0 -1.015625 0.3125q-0.359375 0.3125 -0.359375 0.84375q0 0.40625 0.234375 0.65625q0.25 0.234375 0.609375 0.359375q0.375 0.125 1.015625 0.28125q0.8125 0.1875 1.3125 0.390625q0.5 0.1875 0.84375 0.609375q0.359375 0.421875 0.359375 1.140625q0 0.890625 -0.671875 1.453125q-0.671875 0.5625 -1.796875 0.5625q-1.296875 0 -2.125 -0.625q-0.828125 -0.625 -0.96875 -1.75l1.171875 0q0.0625 0.671875 0.578125 1.09375q0.515625 0.40625 1.34375 0.40625q0.625 0 0.984375 -0.3125q0.359375 -0.328125 0.359375 -0.859375q0 -0.421875 -0.265625 -0.671875q-0.25 -0.25 -0.625 -0.375q-0.359375 -0.140625 -1.015625 -0.296875q-0.8125 -0.1875 -1.3125 -0.375q-0.484375 -0.1875 -0.828125 -0.59375q-0.328125 -0.40625 -0.328125 -1.09375q0 -0.921875 0.671875 -1.484375q0.6875 -0.5625 1.859375 -0.5625zm8.09375 6.34375l0 1.0625l-0.90625 0q-1.125 0 -1.6875 -0.53125q-0.546875 -0.53125 -0.546875 -1.78125l0 -3.953125l-1.09375 0l0 -1.046875l1.09375 0l0 -1.828125l1.234375 0l0 1.828125l1.890625 0l0 1.046875l-1.890625 0l0 3.96875q0 0.703125 0.25 0.96875q0.265625 0.265625 0.90625 0.265625l0.75 0zm4.4713745 -6.34375q1.0625 0 1.796875 0.53125q0.75 0.53125 1.046875 1.421875l0 -1.859375l1.21875 0l0 7.3125l-1.21875 0l0 -1.859375q-0.296875 0.890625 -1.046875 1.421875q-0.734375 0.53125 -1.796875 0.53125q-0.96875 0 -1.734375 -0.453125q-0.75 -0.453125 -1.1875 -1.296875q-0.4375 -0.84375 -0.4375 -2.0q0 -1.140625 0.4375 -1.984375q0.4375 -0.859375 1.1875 -1.3125q0.765625 -0.453125 1.734375 -0.453125zm0.34375 1.078125q-1.109375 0 -1.78125 0.71875q-0.671875 0.703125 -0.671875 1.953125q0 1.25 0.671875 1.96875q0.671875 0.71875 1.78125 0.71875q0.71875 0 1.28125 -0.328125q0.578125 -0.34375 0.890625 -0.953125q0.328125 -0.609375 0.328125 -1.40625q0 -0.796875 -0.328125 -1.40625q-0.3125 -0.609375 -0.890625 -0.9375q-0.5625 -0.328125 -1.28125 -0.328125zm6.858124 -3.53125l0 9.859375l-1.21875 0l0 -9.859375l1.21875 0zm3.1587524 0l0 9.859375l-1.21875 0l0 -9.859375l1.21875 0zm4.9400024 2.453125q1.0625 0 1.796875 0.53125q0.75 0.53125 1.046875 1.421875l0 -1.859375l1.21875 0l0 7.3125l-1.21875 0l0 -1.859375q-0.296875 0.890625 -1.046875 1.421875q-0.734375 0.53125 -1.796875 0.53125q-0.96875 0 -1.734375 -0.453125q-0.75 -0.453125 -1.1875 -1.296875q-0.4375 -0.84375 -0.4375 -2.0q0 -1.140625 0.4375 -1.984375q0.4375 -0.859375 1.1875 -1.3125q0.765625 -0.453125 1.734375 -0.453125zm0.34375 1.078125q-1.109375 0 -1.78125 0.71875q-0.671875 0.703125 -0.671875 1.953125q0 1.25 0.671875 1.96875q0.671875 0.71875 1.78125 0.71875q0.71875 0 1.28125 -0.328125q0.578125 -0.34375 0.890625 -0.953125q0.328125 -0.609375 0.328125 -1.40625q0 -0.796875 -0.328125 -1.40625q-0.3125 -0.609375 -0.890625 -0.9375q-0.5625 -0.328125 -1.28125 -0.328125zm9.139374 5.265625l0 1.0625l-0.90625 0q-1.125 0 -1.6875 -0.53125q-0.546875 -0.53125 -0.546875 -1.78125l0 -3.953125l-1.09375 0l0 -1.046875l1.09375 0l0 -1.828125l1.234375 0l0 1.828125l1.890625 0l0 1.046875l-1.890625 0l0 3.96875q0 0.703125 0.25 0.96875q0.265625 0.265625 0.90625 0.265625l0.75 0zm1.2682495 -8.40625q0 -0.328125 0.21875 -0.53125q0.234375 -0.203125 0.609375 -0.203125q0.359375 0 0.578125 0.203125q0.234375 0.203125 0.234375 0.53125q0 0.34375 -0.234375 0.546875q-0.21875 0.203125 -0.578125 0.203125q-0.375 0 -0.609375 -0.203125q-0.21875 -0.203125 -0.21875 -0.546875zm1.421875 2.15625l0 7.3125l-1.21875 0l0 -7.3125l1.21875 0zm5.2681274 -0.09375q1.046875 0 1.875 0.453125q0.84375 0.453125 1.3125 1.3125q0.46875 0.84375 0.46875 1.984375q0 1.15625 -0.46875 2.0q-0.46875 0.84375 -1.3125 1.296875q-0.828125 0.453125 -1.875 0.453125q-1.0625 0 -1.890625 -0.453125q-0.828125 -0.453125 -1.3125 -1.296875q-0.484375 -0.84375 -0.484375 -2.0q0 -1.140625 0.484375 -1.984375q0.484375 -0.859375 1.3125 -1.3125q0.828125 -0.453125 1.890625 -0.453125zm0 1.0625q-0.65625 0 -1.21875 0.296875q-0.546875 0.296875 -0.890625 0.90625q-0.328125 0.59375 -0.328125 1.484375q0 0.890625 0.328125 1.5q0.34375 0.59375 0.890625 0.890625q0.5625 0.296875 1.21875 0.296875q0.640625 0 1.1875 -0.296875q0.5625 -0.296875 0.90625 -0.890625q0.34375 -0.609375 0.34375 -1.5q0 -0.890625 -0.34375 -1.484375q-0.34375 -0.609375 -0.90625 -0.90625q-0.546875 -0.296875 -1.1875 -0.296875zm9.101196 -1.09375q1.28125 0 2.0625 0.828125q0.78125 0.8125 0.78125 2.359375l0 4.25l-1.203125 0l0 -4.140625q0 -1.09375 -0.5625 -1.671875q-0.5625 -0.59375 -1.515625 -0.59375q-1.0 0 -1.609375 0.640625q-0.59375 0.640625 -0.59375 1.890625l0 3.875l-1.21875 0l0 -7.3125l1.21875 0l0 1.734375q0.28125 -0.90625 0.984375 -1.375q0.71875 -0.484375 1.65625 -0.484375z" fill-rule="nonzero"/><path fill="#9fc5e8" d="m27.405514 22.959318l125.188965 0l0 112.32808l-125.188965 0z" fill-rule="evenodd"/><path stroke="#666666" stroke-width="1.0" stroke-linejoin="round" stroke-linecap="butt" d="m27.405514 22.959318l125.188965 0l0 112.32808l-125.188965 0z" fill-rule="evenodd"/><path fill="#666666" d="m50.707943 66.68899l0 9.234375l-1.203125 0l0 -7.375l-2.953125 7.375l-1.078125 0l-2.953125 -7.34375l0 7.34375l-1.21875 0l0 -9.234375l1.453125 0l3.28125 7.75l3.234375 -7.75l1.4375 0zm5.2773895 1.828125q1.046875 0 1.875 0.453125q0.84375 0.453125 1.3125 1.3125q0.46875 0.84375 0.46875 1.984375q0 1.15625 -0.46875 2.0q-0.46875 0.84375 -1.3125 1.296875q-0.828125 0.453125 -1.875 0.453125q-1.0625 0 -1.890625 -0.453125q-0.828125 -0.453125 -1.3125 -1.296875q-0.484375 -0.84375 -0.484375 -2.0q0 -1.140625 0.484375 -1.984375q0.484375 -0.859375 1.3125 -1.3125q0.828125 -0.453125 1.890625 -0.453125zm0 1.0625q-0.65625 0 -1.21875 0.296875q-0.546875 0.296875 -0.890625 0.90625q-0.328125 0.59375 -0.328125 1.484375q0 0.890625 0.328125 1.5q0.34375 0.59375 0.890625 0.890625q0.5625 0.296875 1.21875 0.296875q0.640625 0 1.1875 -0.296875q0.5625 -0.296875 0.90625 -0.890625q0.34375 -0.609375 0.34375 -1.5q0 -0.890625 -0.34375 -1.484375q-0.34375 -0.609375 -0.90625 -0.90625q-0.546875 -0.296875 -1.1875 -0.296875zm8.569942 -1.0625q1.046875 0 1.875 0.453125q0.84375 0.453125 1.3125 1.3125q0.46875 0.84375 0.46875 1.984375q0 1.15625 -0.46875 2.0q-0.46875 0.84375 -1.3125 1.296875q-0.828125 0.453125 -1.875 0.453125q-1.0624962 0 -1.8906212 -0.453125q-0.828125 -0.453125 -1.3125 -1.296875q-0.484375 -0.84375 -0.484375 -2.0q0 -1.140625 0.484375 -1.984375q0.484375 -0.859375 1.3125 -1.3125q0.828125 -0.453125 1.8906212 -0.453125zm0 1.0625q-0.6562462 0 -1.2187462 0.296875q-0.546875 0.296875 -0.890625 0.90625q-0.328125 0.59375 -0.328125 1.484375q0 0.890625 0.328125 1.5q0.34375 0.59375 0.890625 0.890625q0.5625 0.296875 1.2187462 0.296875q0.640625 0 1.1875 -0.296875q0.5625 -0.296875 0.90625 -0.890625q0.34375 -0.609375 0.34375 -1.5q0 -0.890625 -0.34375 -1.484375q-0.34375 -0.609375 -0.90625 -0.90625q-0.546875 -0.296875 -1.1875 -0.296875zm8.241821 -1.0625q1.0625 0 1.796875 0.53125q0.75 0.53125 1.046875 1.421875l0 -4.40625l1.21875 0l0 9.859375l-1.21875 0l0 -1.859375q-0.296875 0.890625 -1.046875 1.421875q-0.734375 0.53125 -1.796875 0.53125q-0.96875 0 -1.734375 -0.453125q-0.75 -0.453125 -1.1875 -1.296875q-0.4375 -0.84375 -0.4375 -2.0q0 -1.140625 0.4375 -1.984375q0.4375 -0.859375 1.1875 -1.3125q0.765625 -0.453125 1.734375 -0.453125zm0.34375 1.078125q-1.109375 0 -1.78125 0.71875q-0.671875 0.703125 -0.671875 1.953125q0 1.25 0.671875 1.96875q0.671875 0.71875 1.78125 0.71875q0.71875 0 1.28125 -0.328125q0.578125 -0.34375 0.890625 -0.953125q0.328125 -0.609375 0.328125 -1.40625q0 -0.796875 -0.328125 -1.40625q-0.3125 -0.609375 -0.890625 -0.9375q-0.5625 -0.328125 -1.28125 -0.328125zm5.436249 -3.140625q0 -0.328125 0.21875 -0.53125q0.234375 -0.203125 0.609375 -0.203125q0.359375 0 0.578125 0.203125q0.234375 0.203125 0.234375 0.53125q0 0.34375 -0.234375 0.546875q-0.21875 0.203125 -0.578125 0.203125q-0.375 0 -0.609375 -0.203125q-0.21875 -0.203125 -0.21875 -0.546875zm1.421875 2.15625l0 7.3125l-1.21875 0l0 -7.3125l1.21875 0zm8.674377 3.25q0 0.390625 -0.046875 0.65625l-5.859375 0q0.046875 1.265625 0.71875 1.890625q0.671875 0.625 1.640625 0.625q0.875 0 1.46875 -0.4375q0.59375 -0.453125 0.734375 -1.203125l1.296875 0q-0.140625 0.765625 -0.609375 1.359375q-0.453125 0.59375 -1.1875 0.9375q-0.734375 0.328125 -1.640625 0.328125q-1.0625 0 -1.875 -0.453125q-0.8125 -0.453125 -1.28125 -1.296875q-0.453125 -0.84375 -0.453125 -2.0q0 -1.140625 0.453125 -1.984375q0.46875 -0.859375 1.28125 -1.3125q0.8125 -0.453125 1.875 -0.453125q1.0625 0 1.84375 0.453125q0.796875 0.453125 1.21875 1.21875q0.421875 0.75 0.421875 1.671875zm-1.21875 0.078125q0.03125 -0.8125 -0.28125 -1.359375q-0.296875 -0.546875 -0.828125 -0.8125q-0.53125 -0.265625 -1.15625 -0.265625q-1.0 0 -1.6875 0.625q-0.671875 0.609375 -0.734375 1.8125l4.6875 0zm11.608765 1.8125l-4.140625 0l-0.78125 2.171875l-1.3125 0l3.484375 -9.21875l1.375 0l3.453125 9.21875l-1.296875 0l-0.78125 -2.171875zm-0.359375 -0.953125l-1.71875 -4.734375l-1.71875 4.734375l3.4375 0zm7.526306 -4.3125q1.28125 0 2.0625 0.828125q0.78125 0.8125 0.78125 2.359375l0 4.25l-1.203125 0l0 -4.140625q0 -1.09375 -0.5625 -1.671875q-0.5625 -0.59375 -1.515625 -0.59375q-1.0 0 -1.609375 0.640625q-0.59375 0.640625 -0.59375 1.890625l0 3.875l-1.21875 0l0 -7.3125l1.21875 0l0 1.734375q0.28125 -0.90625 0.984375 -1.375q0.71875 -0.484375 1.65625 -0.484375zm7.7105713 0.03125q1.0625 0 1.796875 0.53125q0.75 0.53125 1.046875 1.421875l0 -1.859375l1.21875 0l0 7.3125l-1.21875 0l0 -1.859375q-0.296875 0.890625 -1.046875 1.421875q-0.734375 0.53125 -1.796875 0.53125q-0.96875 0 -1.734375 -0.453125q-0.75 -0.453125 -1.1875 -1.296875q-0.4375 -0.84375 -0.4375 -2.0q0 -1.140625 0.4375 -1.984375q0.4375 -0.859375 1.1875 -1.3125q0.765625 -0.453125 1.734375 -0.453125zm0.34375 1.078125q-1.109375 0 -1.78125 0.71875q-0.671875 0.703125 -0.671875 1.953125q0 1.25 0.671875 1.96875q0.671875 0.71875 1.78125 0.71875q0.71875 0 1.28125 -0.328125q0.578125 -0.34375 0.890625 -0.953125q0.328125 -0.609375 0.328125 -1.40625q0 -0.796875 -0.328125 -1.40625q-0.3125 -0.609375 -0.890625 -0.9375q-0.5625 -0.328125 -1.28125 -0.328125zm6.858124 -3.53125l0 9.859375l-1.21875 0l0 -9.859375l1.21875 0zm5.2681274 2.453125q1.046875 0 1.8750076 0.453125q0.84375 0.453125 1.3125 1.3125q0.46875 0.84375 0.46875 1.984375q0 1.15625 -0.46875 2.0q-0.46875 0.84375 -1.3125 1.296875q-0.8281326 0.453125 -1.8750076 0.453125q-1.0625 0 -1.890625 -0.453125q-0.828125 -0.453125 -1.3125 -1.296875q-0.484375 -0.84375 -0.484375 -2.0q0 -1.140625 0.484375 -1.984375q0.484375 -0.859375 1.3125 -1.3125q0.828125 -0.453125 1.890625 -0.453125zm0 1.0625q-0.65625 0 -1.21875 0.296875q-0.546875 0.296875 -0.890625 0.90625q-0.328125 0.59375 -0.328125 1.484375q0 0.890625 0.328125 1.5q0.34375 0.59375 0.890625 0.890625q0.5625 0.296875 1.21875 0.296875q0.640625 0 1.1875 -0.296875q0.5625076 -0.296875 0.9062576 -0.890625q0.34375 -0.609375 0.34375 -1.5q0 -0.890625 -0.34375 -1.484375q-0.34375 -0.609375 -0.9062576 -0.90625q-0.546875 -0.296875 -1.1875 -0.296875zm8.241829 -1.0625q1.0625 0 1.796875 0.53125q0.75 0.53125 1.046875 1.421875l0 -1.859375l1.21875 0l0 7.4375q0 1.015625 -0.4375 1.796875q-0.421875 0.78125 -1.203125 1.21875q-0.765625 0.4375 -1.796875 0.4375q-1.46875 0 -2.40625 -0.71875q-0.9375 -0.703125 -1.1875 -1.90625l1.203125 0q0.203125 0.71875 0.796875 1.140625q0.59375 0.421875 1.53125 0.421875q0.984375 0 1.625 -0.640625q0.65625 -0.625 0.65625 -1.75l0 -1.984375q-0.296875 0.890625 -1.046875 1.421875q-0.734375 0.53125 -1.796875 0.53125q-0.96875 0 -1.734375 -0.453125q-0.75 -0.453125 -1.1875 -1.296875q-0.4375 -0.84375 -0.4375 -2.0q0 -1.140625 0.4375 -1.984375q0.4375 -0.859375 1.1875 -1.3125q0.765625 -0.453125 1.734375 -0.453125zm0.34375 1.078125q-1.109375 0 -1.78125 0.71875q-0.671875 0.703125 -0.671875 1.953125q0 1.25 0.671875 1.96875q0.671875 0.71875 1.78125 0.71875q0.71875 0 1.28125 -0.328125q0.578125 -0.34375 0.890625 -0.953125q0.328125 -0.609375 0.328125 -1.40625q0 -0.796875 -0.328125 -1.40625q-0.3125 -0.609375 -0.890625 -0.9375q-0.5625 -0.328125 -1.28125 -0.328125z" fill-rule="nonzero"/><path fill="#666666" d="m83.08966 89.75149l-4.140625 0l-0.78125 2.171875l-1.3125 0l3.484375 -9.21875l1.375 0l3.453125 9.21875l-1.296875 0l-0.78125 -2.171875zm-0.359375 -0.953125l-1.71875 -4.734375l-1.71875 4.734375l3.4375 0zm7.713806 -4.28125q0.96875 0 1.71875 0.453125q0.765625 0.453125 1.203125 1.3125q0.4375 0.84375 0.4375 1.984375q0 1.15625 -0.4375 2.0q-0.4375 0.84375 -1.203125 1.296875q-0.75 0.453125 -1.71875 0.453125q-1.078125 0 -1.8125 -0.53125q-0.734375 -0.546875 -1.015625 -1.421875l0 5.328125l-1.21875 0l0 -10.78125l1.21875 0l0 1.859375q0.28125 -0.875 1.015625 -1.40625q0.734375 -0.546875 1.8125 -0.546875zm-0.34375 1.078125q-0.71875 0 -1.296875 0.328125q-0.5625 0.328125 -0.890625 0.9375q-0.3125 0.609375 -0.3125 1.40625q0 0.796875 0.3125 1.40625q0.328125 0.609375 0.890625 0.953125q0.578125 0.328125 1.296875 0.328125q1.125 0 1.796875 -0.71875q0.671875 -0.71875 0.671875 -1.96875q0 -1.25 -0.671875 -1.953125q-0.671875 -0.71875 -1.796875 -0.71875zm9.326874 -1.078125q0.96875 0 1.71875 0.453125q0.765625 0.453125 1.203125 1.3125q0.4375 0.84375 0.4375 1.984375q0 1.15625 -0.4375 2.0q-0.4375 0.84375 -1.203125 1.296875q-0.75 0.453125 -1.71875 0.453125q-1.078125 0 -1.8125 -0.53125q-0.734375 -0.546875 -1.015625 -1.421875l0 5.328125l-1.21875 0l0 -10.78125l1.21875 0l0 1.859375q0.28125 -0.875 1.015625 -1.40625q0.734375 -0.546875 1.8125 -0.546875zm-0.34375 1.078125q-0.71875 0 -1.296875 0.328125q-0.5625 0.328125 -0.890625 0.9375q-0.3125 0.609375 -0.3125 1.40625q0 0.796875 0.3125 1.40625q0.328125 0.609375 0.890625 0.953125q0.578125 0.328125 1.296875 0.328125q1.125 0 1.796875 -0.71875q0.671875 -0.71875 0.671875 -1.96875q0 -1.25 -0.671875 -1.953125q-0.671875 -0.71875 -1.796875 -0.71875z" fill-rule="nonzero"/><path fill="#9fc5e8" d="m216.32677 22.959318l125.18898 0l0 112.32808l-125.18898 0z" fill-rule="evenodd"/><path stroke="#666666" stroke-width="1.0" stroke-linejoin="round" stroke-linecap="butt" d="m216.32677 22.959318l125.18898 0l0 112.32808l-125.18898 0z" fill-rule="evenodd"/><path fill="#666666" d="m242.18819 66.68899l0 9.234375l-1.203125 0l0 -7.375l-2.953125 7.375l-1.078125 0l-2.953125 -7.34375l0 7.34375l-1.21875 0l0 -9.234375l1.453125 0l3.28125 7.75l3.234375 -7.75l1.4375 0zm5.2773895 1.828125q1.046875 0 1.875 0.453125q0.84375 0.453125 1.3125 1.3125q0.46875 0.84375 0.46875 1.984375q0 1.15625 -0.46875 2.0q-0.46875 0.84375 -1.3125 1.296875q-0.828125 0.453125 -1.875 0.453125q-1.0625 0 -1.890625 -0.453125q-0.828125 -0.453125 -1.3125 -1.296875q-0.484375 -0.84375 -0.484375 -2.0q0 -1.140625 0.484375 -1.984375q0.484375 -0.859375 1.3125 -1.3125q0.828125 -0.453125 1.890625 -0.453125zm0 1.0625q-0.65625 0 -1.21875 0.296875q-0.546875 0.296875 -0.890625 0.90625q-0.328125 0.59375 -0.328125 1.484375q0 0.890625 0.328125 1.5q0.34375 0.59375 0.890625 0.890625q0.5625 0.296875 1.21875 0.296875q0.640625 0 1.1875 -0.296875q0.5625 -0.296875 0.90625 -0.890625q0.34375 -0.609375 0.34375 -1.5q0 -0.890625 -0.34375 -1.484375q-0.34375 -0.609375 -0.90625 -0.90625q-0.546875 -0.296875 -1.1875 -0.296875zm8.569946 -1.0625q1.046875 0 1.875 0.453125q0.84375 0.453125 1.3125 1.3125q0.46875 0.84375 0.46875 1.984375q0 1.15625 -0.46875 2.0q-0.46875 0.84375 -1.3125 1.296875q-0.828125 0.453125 -1.875 0.453125q-1.0625 0 -1.890625 -0.453125q-0.828125 -0.453125 -1.3125 -1.296875q-0.484375 -0.84375 -0.484375 -2.0q0 -1.140625 0.484375 -1.984375q0.484375 -0.859375 1.3125 -1.3125q0.828125 -0.453125 1.890625 -0.453125zm0 1.0625q-0.65625 0 -1.21875 0.296875q-0.546875 0.296875 -0.890625 0.90625q-0.328125 0.59375 -0.328125 1.484375q0 0.890625 0.328125 1.5q0.34375 0.59375 0.890625 0.890625q0.5625 0.296875 1.21875 0.296875q0.640625 0 1.1875 -0.296875q0.5625 -0.296875 0.90625 -0.890625q0.34375 -0.609375 0.34375 -1.5q0 -0.890625 -0.34375 -1.484375q-0.34375 -0.609375 -0.90625 -0.90625q-0.546875 -0.296875 -1.1875 -0.296875zm8.241821 -1.0625q1.0625 0 1.796875 0.53125q0.75 0.53125 1.046875 1.421875l0 -4.40625l1.21875 0l0 9.859375l-1.21875 0l0 -1.859375q-0.296875 0.890625 -1.046875 1.421875q-0.734375 0.53125 -1.796875 0.53125q-0.96875 0 -1.734375 -0.453125q-0.75 -0.453125 -1.1875 -1.296875q-0.4375 -0.84375 -0.4375 -2.0q0 -1.140625 0.4375 -1.984375q0.4375 -0.859375 1.1875 -1.3125q0.765625 -0.453125 1.734375 -0.453125zm0.34375 1.078125q-1.109375 0 -1.78125 0.71875q-0.671875 0.703125 -0.671875 1.953125q0 1.25 0.671875 1.96875q0.671875 0.71875 1.78125 0.71875q0.71875 0 1.28125 -0.328125q0.578125 -0.34375 0.890625 -0.953125q0.328125 -0.609375 0.328125 -1.40625q0 -0.796875 -0.328125 -1.40625q-0.3125 -0.609375 -0.890625 -0.9375q-0.5625 -0.328125 -1.28125 -0.328125zm5.436249 -3.140625q0 -0.328125 0.21875 -0.53125q0.234375 -0.203125 0.609375 -0.203125q0.359375 0 0.578125 0.203125q0.234375 0.203125 0.234375 0.53125q0 0.34375 -0.234375 0.546875q-0.21875 0.203125 -0.578125 0.203125q-0.375 0 -0.609375 -0.203125q-0.21875 -0.203125 -0.21875 -0.546875zm1.421875 2.15625l0 7.3125l-1.21875 0l0 -7.3125l1.21875 0zm8.674377 3.25q0 0.390625 -0.046875 0.65625l-5.859375 0q0.046875 1.265625 0.71875 1.890625q0.671875 0.625 1.640625 0.625q0.875 0 1.46875 -0.4375q0.59375 -0.453125 0.734375 -1.203125l1.296875 0q-0.140625 0.765625 -0.609375 1.359375q-0.453125 0.59375 -1.1875 0.9375q-0.734375 0.328125 -1.640625 0.328125q-1.0625 0 -1.875 -0.453125q-0.8125 -0.453125 -1.28125 -1.296875q-0.453125 -0.84375 -0.453125 -2.0q0 -1.140625 0.453125 -1.984375q0.46875 -0.859375 1.28125 -1.3125q0.8125 -0.453125 1.875 -0.453125q1.0625 0 1.84375 0.453125q0.796875 0.453125 1.21875 1.21875q0.421875 0.75 0.421875 1.671875zm-1.21875 0.078125q0.03125 -0.8125 -0.28125 -1.359375q-0.296875 -0.546875 -0.828125 -0.8125q-0.53125 -0.265625 -1.15625 -0.265625q-1.0 0 -1.6875 0.625q-0.671875 0.609375 -0.734375 1.8125l4.6875 0zm14.015015 -0.71875q0 1.421875 -0.578125 2.484375q-0.5625 1.0625 -1.6875 1.640625q-1.109375 0.578125 -2.671875 0.578125l-2.984375 0l0 -9.390625l2.984375 0q1.5625 0 2.671875 0.5625q1.125 0.5625 1.6875 1.625q0.578125 1.0625 0.578125 2.5zm-5.03125 3.609375q1.84375 0 2.8125 -0.9375q0.984375 -0.953125 0.984375 -2.671875q0 -1.71875 -0.96875 -2.671875q-0.96875 -0.953125 -2.828125 -0.953125l-1.671875 0l0 7.234375l1.671875 0zm6.4624634 -8.375q0 -0.328125 0.21875 -0.53125q0.234375 -0.203125 0.609375 -0.203125q0.359375 0 0.578125 0.203125q0.234375 0.203125 0.234375 0.53125q0 0.34375 -0.234375 0.546875q-0.21875 0.203125 -0.578125 0.203125q-0.375 0 -0.609375 -0.203125q-0.21875 -0.203125 -0.21875 -0.546875zm1.421875 2.15625l0 7.3125l-1.21875 0l0 -7.3125l1.21875 0zm4.9400024 -0.09375q1.0625 0 1.796875 0.53125q0.75 0.53125 1.046875 1.421875l0 -1.859375l1.21875 0l0 7.4375q0 1.015625 -0.4375 1.796875q-0.421875 0.78125 -1.203125 1.21875q-0.765625 0.4375 -1.796875 0.4375q-1.46875 0 -2.40625 -0.71875q-0.9375 -0.703125 -1.1875 -1.90625l1.203125 0q0.203125 0.71875 0.796875 1.140625q0.59375 0.421875 1.53125 0.421875q0.984375 0 1.625 -0.640625q0.65625 -0.625 0.65625 -1.75l0 -1.984375q-0.296875 0.890625 -1.046875 1.421875q-0.734375 0.53125 -1.796875 0.53125q-0.96875 0 -1.734375 -0.453125q-0.75 -0.453125 -1.1875 -1.296875q-0.4375 -0.84375 -0.4375 -2.0q0 -1.140625 0.4375 -1.984375q0.4375 -0.859375 1.1875 -1.3125q0.765625 -0.453125 1.734375 -0.453125zm0.34375 1.078125q-1.109375 0 -1.78125 0.71875q-0.671875 0.703125 -0.671875 1.953125q0 1.25 0.671875 1.96875q0.671875 0.71875 1.78125 0.71875q0.71875 0 1.28125 -0.328125q0.578125 -0.34375 0.890625 -0.953125q0.328125 -0.609375 0.328125 -1.40625q0 -0.796875 -0.328125 -1.40625q-0.3125 -0.609375 -0.890625 -0.9375q-0.5625 -0.328125 -1.28125 -0.328125zm5.436249 -3.140625q0 -0.328125 0.21875 -0.53125q0.234375 -0.203125 0.609375 -0.203125q0.359375 0 0.578125 0.203125q0.234375 0.203125 0.234375 0.53125q0 0.34375 -0.234375 0.546875q-0.21875 0.203125 -0.578125 0.203125q-0.375 0 -0.609375 -0.203125q-0.21875 -0.203125 -0.21875 -0.546875zm1.421875 2.15625l0 7.3125l-1.21875 0l0 -7.3125l1.21875 0zm5.4400024 6.25l0 1.0625l-0.90625 0q-1.125 0 -1.6875 -0.53125q-0.546875 -0.53125 -0.546875 -1.78125l0 -3.953125l-1.09375 0l0 -1.046875l1.09375 0l0 -1.828125l1.234375 0l0 1.828125l1.890625 0l0 1.046875l-1.890625 0l0 3.96875q0 0.703125 0.25 0.96875q0.265625 0.265625 0.90625 0.265625l0.75 0zm4.4713745 -6.34375q1.0625 0 1.796875 0.53125q0.75 0.53125 1.046875 1.421875l0 -1.859375l1.21875 0l0 7.3125l-1.21875 0l0 -1.859375q-0.296875 0.890625 -1.046875 1.421875q-0.734375 0.53125 -1.796875 0.53125q-0.96875 0 -1.734375 -0.453125q-0.75 -0.453125 -1.1875 -1.296875q-0.4375 -0.84375 -0.4375 -2.0q0 -1.140625 0.4375 -1.984375q0.4375 -0.859375 1.1875 -1.3125q0.765625 -0.453125 1.734375 -0.453125zm0.34375 1.078125q-1.109375 0 -1.78125 0.71875q-0.671875 0.703125 -0.671875 1.953125q0 1.25 0.671875 1.96875q0.671875 0.71875 1.78125 0.71875q0.71875 0 1.28125 -0.328125q0.578125 -0.34375 0.890625 -0.953125q0.328125 -0.609375 0.328125 -1.40625q0 -0.796875 -0.328125 -1.40625q-0.3125 -0.609375 -0.890625 -0.9375q-0.5625 -0.328125 -1.28125 -0.328125zm6.858124 -3.53125l0 9.859375l-1.21875 0l0 -9.859375l1.21875 0z" fill-rule="nonzero"/><path fill="#666666" d="m272.01093 89.75149l-4.140625 0l-0.78125 2.171875l-1.3125 0l3.484375 -9.21875l1.375 0l3.453125 9.21875l-1.296875 0l-0.78125 -2.171875zm-0.359375 -0.953125l-1.71875 -4.734375l-1.71875 4.734375l3.4375 0zm7.713806 -4.28125q0.96875 0 1.71875 0.453125q0.765625 0.453125 1.203125 1.3125q0.4375 0.84375 0.4375 1.984375q0 1.15625 -0.4375 2.0q-0.4375 0.84375 -1.203125 1.296875q-0.75 0.453125 -1.71875 0.453125q-1.078125 0 -1.8125 -0.53125q-0.734375 -0.546875 -1.015625 -1.421875l0 5.328125l-1.21875 0l0 -10.78125l1.21875 0l0 1.859375q0.28125 -0.875 1.015625 -1.40625q0.734375 -0.546875 1.8125 -0.546875zm-0.34375 1.078125q-0.71875 0 -1.296875 0.328125q-0.5625 0.328125 -0.890625 0.9375q-0.3125 0.609375 -0.3125 1.40625q0 0.796875 0.3125 1.40625q0.328125 0.609375 0.890625 0.953125q0.578125 0.328125 1.296875 0.328125q1.125 0 1.796875 -0.71875q0.671875 -0.71875 0.671875 -1.96875q0 -1.25 -0.671875 -1.953125q-0.671875 -0.71875 -1.796875 -0.71875zm9.326874 -1.078125q0.96875 0 1.71875 0.453125q0.765625 0.453125 1.203125 1.3125q0.4375 0.84375 0.4375 1.984375q0 1.15625 -0.4375 2.0q-0.4375 0.84375 -1.203125 1.296875q-0.75 0.453125 -1.71875 0.453125q-1.078125 0 -1.8125 -0.53125q-0.734375 -0.546875 -1.015625 -1.421875l0 5.328125l-1.21875 0l0 -10.78125l1.21875 0l0 1.859375q0.28125 -0.875 1.015625 -1.40625q0.734375 -0.546875 1.8125 -0.546875zm-0.34375 1.078125q-0.71875 0 -1.296875 0.328125q-0.5625 0.328125 -0.890625 0.9375q-0.3125 0.609375 -0.3125 1.40625q0 0.796875 0.3125 1.40625q0.328125 0.609375 0.890625 0.953125q0.578125 0.328125 1.296875 0.328125q1.125 0 1.796875 -0.71875q0.671875 -0.71875 0.671875 -1.96875q0 -1.25 -0.671875 -1.953125q-0.671875 -0.71875 -1.796875 -0.71875z" fill-rule="nonzero"/><path fill="#ffe599" d="m27.406507 186.18666l125.1875 0l0 112.329056l-125.1875 0z" fill-rule="evenodd"/><path stroke="#666666" stroke-width="1.0" stroke-linejoin="round" stroke-linecap="butt" d="m27.406507 186.18666l125.1875 0l0 112.329056l-125.1875 0z" fill-rule="evenodd"/><path fill="#666666" d="m50.7082 229.91682l0 9.234375l-1.203125 0l0 -7.375l-2.953125 7.375l-1.078125 0l-2.953125 -7.34375l0 7.34375l-1.21875 0l0 -9.234375l1.453125 0l3.28125 7.75l3.234375 -7.75l1.4375 0zm5.2773895 1.828125q1.046875 0 1.875 0.453125q0.84375 0.453125 1.3125 1.3125q0.46875 0.84375 0.46875 1.984375q0 1.15625 -0.46875 2.0q-0.46875 0.84375 -1.3125 1.296875q-0.828125 0.453125 -1.875 0.453125q-1.0625 0 -1.890625 -0.453125q-0.828125 -0.453125 -1.3125 -1.296875q-0.484375 -0.84375 -0.484375 -2.0q0 -1.140625 0.484375 -1.984375q0.484375 -0.859375 1.3125 -1.3125q0.828125 -0.453125 1.890625 -0.453125zm0 1.0625q-0.65625 0 -1.21875 0.296875q-0.546875 0.296875 -0.890625 0.90625q-0.328125 0.59375 -0.328125 1.484375q0 0.890625 0.328125 1.5q0.34375 0.59375 0.890625 0.890625q0.5625 0.296875 1.21875 0.296875q0.640625 0 1.1875 -0.296875q0.5625 -0.296875 0.90625 -0.890625q0.34375 -0.609375 0.34375 -1.5q0 -0.890625 -0.34375 -1.484375q-0.34375 -0.609375 -0.90625 -0.90625q-0.546875 -0.296875 -1.1875 -0.296875zm8.569946 -1.0625q1.046875 0 1.875 0.453125q0.84375 0.453125 1.3125 1.3125q0.46875 0.84375 0.46875 1.984375q0 1.15625 -0.46875 2.0q-0.46875 0.84375 -1.3125 1.296875q-0.828125 0.453125 -1.875 0.453125q-1.0625 0 -1.890625 -0.453125q-0.828125 -0.453125 -1.3125 -1.296875q-0.484375 -0.84375 -0.484375 -2.0q0 -1.140625 0.484375 -1.984375q0.484375 -0.859375 1.3125 -1.3125q0.828125 -0.453125 1.890625 -0.453125zm0 1.0625q-0.65625 0 -1.21875 0.296875q-0.546875 0.296875 -0.890625 0.90625q-0.328125 0.59375 -0.328125 1.484375q0 0.890625 0.328125 1.5q0.34375 0.59375 0.890625 0.890625q0.5625 0.296875 1.21875 0.296875q0.640625 0 1.1875 -0.296875q0.5625 -0.296875 0.90625 -0.890625q0.34375 -0.609375 0.34375 -1.5q0 -0.890625 -0.34375 -1.484375q-0.34375 -0.609375 -0.90625 -0.90625q-0.546875 -0.296875 -1.1875 -0.296875zm8.241821 -1.0625q1.0625 0 1.796875 0.53125q0.75 0.53125 1.046875 1.421875l0 -4.40625l1.21875 0l0 9.859375l-1.21875 0l0 -1.859375q-0.296875 0.890625 -1.046875 1.421875q-0.734375 0.53125 -1.796875 0.53125q-0.96875 0 -1.734375 -0.453125q-0.75 -0.453125 -1.1875 -1.296875q-0.4375 -0.84375 -0.4375 -2.0q0 -1.140625 0.4375 -1.984375q0.4375 -0.859375 1.1875 -1.3125q0.765625 -0.453125 1.734375 -0.453125zm0.34375 1.078125q-1.109375 0 -1.78125 0.71875q-0.671875 0.703125 -0.671875 1.953125q0 1.25 0.671875 1.96875q0.671875 0.71875 1.78125 0.71875q0.71875 0 1.28125 -0.328125q0.578125 -0.34375 0.890625 -0.953125q0.328125 -0.609375 0.328125 -1.40625q0 -0.796875 -0.328125 -1.40625q-0.3125 -0.609375 -0.890625 -0.9375q-0.5625 -0.328125 -1.28125 -0.328125zm5.436249 -3.140625q0 -0.328125 0.21875 -0.53125q0.234375 -0.203125 0.609375 -0.203125q0.359375 0 0.578125 0.203125q0.234375 0.203125 0.234375 0.53125q0 0.34375 -0.234375 0.546875q-0.21875 0.203125 -0.578125 0.203125q-0.375 0 -0.609375 -0.203125q-0.21875 -0.203125 -0.21875 -0.546875zm1.421875 2.15625l0 7.3125l-1.21875 0l0 -7.3125l1.21875 0zm8.674377 3.25q0 0.390625 -0.046875 0.65625l-5.859375 0q0.046875 1.265625 0.71875 1.890625q0.671875 0.625 1.640625 0.625q0.875 0 1.46875 -0.4375q0.59375 -0.453125 0.734375 -1.203125l1.296875 0q-0.140625 0.765625 -0.609375 1.359375q-0.453125 0.59375 -1.1875 0.9375q-0.734375 0.328125 -1.640625 0.328125q-1.0625 0 -1.875 -0.453125q-0.8125 -0.453125 -1.28125 -1.296875q-0.453125 -0.84375 -0.453125 -2.0q0 -1.140625 0.453125 -1.984375q0.46875 -0.859375 1.28125 -1.3125q0.8125 -0.453125 1.875 -0.453125q1.0625 0 1.84375 0.453125q0.796875 0.453125 1.21875 1.21875q0.421875 0.75 0.421875 1.671875zm-1.21875 0.078125q0.03125 -0.8125 -0.28125 -1.359375q-0.296875 -0.546875 -0.828125 -0.8125q-0.53125 -0.265625 -1.15625 -0.265625q-1.0 0 -1.6875 0.625q-0.671875 0.609375 -0.734375 1.8125l4.6875 0zm11.608765 1.8125l-4.140625 0l-0.78125 2.171875l-1.3125 0l3.484375 -9.21875l1.375 0l3.453125 9.21875l-1.296875 0l-0.78125 -2.171875zm-0.359375 -0.953125l-1.71875 -4.734375l-1.71875 4.734375l3.4375 0zm7.526306 -4.3125q1.28125 0 2.0625 0.828125q0.78125 0.8125 0.78125 2.359375l0 4.25l-1.203125 0l0 -4.140625q0 -1.09375 -0.5625 -1.671875q-0.5625 -0.59375 -1.515625 -0.59375q-1.0 0 -1.609375 0.640625q-0.59375 0.640625 -0.59375 1.890625l0 3.875l-1.21875 0l0 -7.3125l1.21875 0l0 1.734375q0.28125 -0.90625 0.984375 -1.375q0.71875 -0.484375 1.65625 -0.484375zm7.7105713 0.03125q1.0625 0 1.796875 0.53125q0.75 0.53125 1.046875 1.421875l0 -1.859375l1.21875 0l0 7.3125l-1.21875 0l0 -1.859375q-0.296875 0.890625 -1.046875 1.421875q-0.734375 0.53125 -1.796875 0.53125q-0.96875 0 -1.734375 -0.453125q-0.75 -0.453125 -1.1875 -1.296875q-0.4375 -0.84375 -0.4375 -2.0q0 -1.140625 0.4375 -1.984375q0.4375 -0.859375 1.1875 -1.3125q0.765625 -0.453125 1.734375 -0.453125zm0.34375 1.078125q-1.109375 0 -1.78125 0.71875q-0.671875 0.703125 -0.671875 1.953125q0 1.25 0.671875 1.96875q0.671875 0.71875 1.78125 0.71875q0.71875 0 1.28125 -0.328125q0.578125 -0.34375 0.890625 -0.953125q0.328125 -0.609375 0.328125 -1.40625q0 -0.796875 -0.328125 -1.40625q-0.3125 -0.609375 -0.890625 -0.9375q-0.5625 -0.328125 -1.28125 -0.328125zm6.858124 -3.53125l0 9.859375l-1.21875 0l0 -9.859375l1.21875 0zm5.2681274 2.453125q1.046875 0 1.8749924 0.453125q0.84375 0.453125 1.3125 1.3125q0.46875 0.84375 0.46875 1.984375q0 1.15625 -0.46875 2.0q-0.46875 0.84375 -1.3125 1.296875q-0.8281174 0.453125 -1.8749924 0.453125q-1.0625 0 -1.890625 -0.453125q-0.828125 -0.453125 -1.3125 -1.296875q-0.484375 -0.84375 -0.484375 -2.0q0 -1.140625 0.484375 -1.984375q0.484375 -0.859375 1.3125 -1.3125q0.828125 -0.453125 1.890625 -0.453125zm0 1.0625q-0.65625 0 -1.21875 0.296875q-0.546875 0.296875 -0.890625 0.90625q-0.328125 0.59375 -0.328125 1.484375q0 0.890625 0.328125 1.5q0.34375 0.59375 0.890625 0.890625q0.5625 0.296875 1.21875 0.296875q0.640625 0 1.1875 -0.296875q0.5624924 -0.296875 0.9062424 -0.890625q0.34375 -0.609375 0.34375 -1.5q0 -0.890625 -0.34375 -1.484375q-0.34375 -0.609375 -0.9062424 -0.90625q-0.546875 -0.296875 -1.1875 -0.296875zm8.241814 -1.0625q1.0625 0 1.796875 0.53125q0.75 0.53125 1.046875 1.421875l0 -1.859375l1.21875 0l0 7.4375q0 1.015625 -0.4375 1.796875q-0.421875 0.78125 -1.203125 1.21875q-0.765625 0.4375 -1.796875 0.4375q-1.46875 0 -2.40625 -0.71875q-0.9375 -0.703125 -1.1875 -1.90625l1.203125 0q0.203125 0.71875 0.796875 1.140625q0.59375 0.421875 1.53125 0.421875q0.984375 0 1.625 -0.640625q0.65625 -0.625 0.65625 -1.75l0 -1.984375q-0.296875 0.890625 -1.046875 1.421875q-0.734375 0.53125 -1.796875 0.53125q-0.96875 0 -1.734375 -0.453125q-0.75 -0.453125 -1.1875 -1.296875q-0.4375 -0.84375 -0.4375 -2.0q0 -1.140625 0.4375 -1.984375q0.4375 -0.859375 1.1875 -1.3125q0.765625 -0.453125 1.734375 -0.453125zm0.34375 1.078125q-1.109375 0 -1.78125 0.71875q-0.671875 0.703125 -0.671875 1.953125q0 1.25 0.671875 1.96875q0.671875 0.71875 1.78125 0.71875q0.71875 0 1.28125 -0.328125q0.578125 -0.34375 0.890625 -0.953125q0.328125 -0.609375 0.328125 -1.40625q0 -0.796875 -0.328125 -1.40625q-0.3125 -0.609375 -0.890625 -0.9375q-0.5625 -0.328125 -1.28125 -0.328125z" fill-rule="nonzero"/><path fill="#666666" d="m62.264893 245.66682q1.71875 0 2.84375 0.84375q1.125 0.84375 1.546875 2.3125l-1.28125 0q-0.359375 -0.9375 -1.15625 -1.484375q-0.796875 -0.5625 -1.953125 -0.5625q-0.921875 0 -1.65625 0.453125q-0.71875 0.4375 -1.140625 1.28125q-0.421875 0.828125 -0.421875 1.953125q0 1.109375 0.421875 1.9375q0.421875 0.8125 1.140625 1.265625q0.734375 0.4375 1.65625 0.4375q1.15625 0 1.953125 -0.546875q0.796875 -0.546875 1.15625 -1.484375l1.28125 0q-0.421875 1.46875 -1.546875 2.3125q-1.125 0.84375 -2.84375 0.84375q-1.3125 0 -2.328125 -0.609375q-1.015625 -0.609375 -1.578125 -1.6875q-0.5625 -1.09375 -0.5625 -2.46875q0 -1.40625 0.5625 -2.5q0.5625 -1.09375 1.578125 -1.6875q1.015625 -0.609375 2.328125 -0.609375zm9.341202 2.078125q1.046875 0 1.875 0.453125q0.84375 0.453125 1.3125 1.3125q0.46875 0.84375 0.46875 1.984375q0 1.15625 -0.46875 2.0q-0.46875 0.84375 -1.3125 1.296875q-0.828125 0.453125 -1.875 0.453125q-1.0625 0 -1.890625 -0.453125q-0.828125 -0.453125 -1.3125 -1.296875q-0.484375 -0.84375 -0.484375 -2.0q0 -1.140625 0.484375 -1.984375q0.484375 -0.859375 1.3125 -1.3125q0.828125 -0.453125 1.890625 -0.453125zm0 1.0625q-0.65625 0 -1.21875 0.296875q-0.546875 0.296875 -0.890625 0.90625q-0.328125 0.59375 -0.328125 1.484375q0 0.890625 0.328125 1.5q0.34375 0.59375 0.890625 0.890625q0.5625 0.296875 1.21875 0.296875q0.640625 0 1.1875 -0.296875q0.5625 -0.296875 0.90625 -0.890625q0.34375 -0.609375 0.34375 -1.5q0 -0.890625 -0.34375 -1.484375q-0.34375 -0.609375 -0.90625 -0.90625q-0.546875 -0.296875 -1.1875 -0.296875zm9.101196 -1.09375q1.28125 0 2.0625 0.828125q0.78125 0.8125 0.78125 2.359375l0 4.25l-1.203125 0l0 -4.140625q0 -1.09375 -0.5625 -1.671875q-0.5625 -0.59375 -1.515625 -0.59375q-1.0 0 -1.609375 0.640625q-0.59375 0.640625 -0.59375 1.890625l0 3.875l-1.21875 0l0 -7.3125l1.21875 0l0 1.734375q0.28125 -0.90625 0.984375 -1.375q0.71875 -0.484375 1.65625 -0.484375zm8.210571 6.375l0 1.0625l-0.90625 0q-1.125 0 -1.6875 -0.53125q-0.546875 -0.53125 -0.546875 -1.78125l0 -3.953125l-1.09375 0l0 -1.046875l1.09375 0l0 -1.828125l1.234375 0l0 1.828125l1.890625 0l0 1.046875l-1.890625 0l0 3.96875q0 0.703125 0.25 0.96875q0.265625 0.265625 0.90625 0.265625l0.75 0zm2.6901245 -4.78125q0.359375 -0.75 1.046875 -1.171875q0.703125 -0.421875 1.65625 -0.421875l0 1.3125l-0.375 0q-1.03125 0 -1.6875 0.53125q-0.640625 0.53125 -0.640625 1.734375l0 3.859375l-1.21875 0l0 -7.3125l1.21875 0l0 1.46875zm7.227356 -1.5625q1.046875 0 1.875 0.453125q0.84375 0.453125 1.3125 1.3125q0.46875 0.84375 0.46875 1.984375q0 1.15625 -0.46875 2.0q-0.46875 0.84375 -1.3125 1.296875q-0.828125 0.453125 -1.875 0.453125q-1.0625 0 -1.890625 -0.453125q-0.828125 -0.453125 -1.3125 -1.296875q-0.484375 -0.84375 -0.484375 -2.0q0 -1.140625 0.484375 -1.984375q0.484375 -0.859375 1.3125 -1.3125q0.828125 -0.453125 1.890625 -0.453125zm0 1.0625q-0.65625 0 -1.21875 0.296875q-0.546875 0.296875 -0.890625 0.90625q-0.328125 0.59375 -0.328125 1.484375q0 0.890625 0.328125 1.5q0.34375 0.59375 0.890625 0.890625q0.5625 0.296875 1.21875 0.296875q0.640625 0 1.1875 -0.296875q0.5625 -0.296875 0.90625 -0.890625q0.34375 -0.609375 0.34375 -1.5q0 -0.890625 -0.34375 -1.484375q-0.34375 -0.609375 -0.90625 -0.90625q-0.546875 -0.296875 -1.1875 -0.296875zm6.4605713 -3.515625l0 9.859375l-1.21875 0l0 -9.859375l1.21875 0zm3.1587524 0l0 9.859375l-1.21875 0l0 -9.859375l1.21875 0zm8.674377 5.796875q0 0.390625 -0.046875 0.65625l-5.859375 0q0.046875 1.265625 0.71875 1.890625q0.671875 0.625 1.640625 0.625q0.875 0 1.46875 -0.4375q0.59375 -0.453125 0.734375 -1.203125l1.296875 0q-0.140625 0.765625 -0.609375 1.359375q-0.453125 0.59375 -1.1875 0.9375q-0.734375 0.328125 -1.640625 0.328125q-1.0625 0 -1.875 -0.453125q-0.8125 -0.453125 -1.28125 -1.296875q-0.453125 -0.84375 -0.453125 -2.0q0 -1.140625 0.453125 -1.984375q0.46875 -0.859375 1.28125 -1.3125q0.8125 -0.453125 1.875 -0.453125q1.0625 0 1.84375 0.453125q0.796875 0.453125 1.21875 1.21875q0.421875 0.75 0.421875 1.671875zm-1.21875 0.078125q0.03125 -0.8125 -0.28125 -1.359375q-0.296875 -0.546875 -0.828125 -0.8125q-0.53125 -0.265625 -1.15625 -0.265625q-1.0 0 -1.6875 0.625q-0.671875 0.609375 -0.734375 1.8125l4.6875 0zm4.0198517 -1.859375q0.359375 -0.75 1.046875 -1.171875q0.703125 -0.421875 1.65625 -0.421875l0 1.3125l-0.375 0q-1.03125 0 -1.6875 0.53125q-0.640625 0.53125 -0.640625 1.734375l0 3.859375l-1.21875 0l0 -7.3125l1.21875 0l0 1.46875z" fill-rule="nonzero"/><path fill="#ffe599" d="m216.32677 186.18767l125.18898 0l0 112.32808l-125.18898 0z" fill-rule="evenodd"/><path stroke="#666666" stroke-width="1.0" stroke-linejoin="round" stroke-linecap="butt" d="m216.32677 186.18767l125.18898 0l0 112.32808l-125.18898 0z" fill-rule="evenodd"/><path fill="#666666" d="m242.18819 229.91733l0 9.234375l-1.203125 0l0 -7.375l-2.953125 7.375l-1.078125 0l-2.953125 -7.34375l0 7.34375l-1.21875 0l0 -9.234375l1.453125 0l3.28125 7.75l3.234375 -7.75l1.4375 0zm5.2773895 1.828125q1.046875 0 1.875 0.453125q0.84375 0.453125 1.3125 1.3125q0.46875 0.84375 0.46875 1.984375q0 1.15625 -0.46875 2.0q-0.46875 0.84375 -1.3125 1.296875q-0.828125 0.453125 -1.875 0.453125q-1.0625 0 -1.890625 -0.453125q-0.828125 -0.453125 -1.3125 -1.296875q-0.484375 -0.84375 -0.484375 -2.0q0 -1.140625 0.484375 -1.984375q0.484375 -0.859375 1.3125 -1.3125q0.828125 -0.453125 1.890625 -0.453125zm0 1.0625q-0.65625 0 -1.21875 0.296875q-0.546875 0.296875 -0.890625 0.90625q-0.328125 0.59375 -0.328125 1.484375q0 0.890625 0.328125 1.5q0.34375 0.59375 0.890625 0.890625q0.5625 0.296875 1.21875 0.296875q0.640625 0 1.1875 -0.296875q0.5625 -0.296875 0.90625 -0.890625q0.34375 -0.609375 0.34375 -1.5q0 -0.890625 -0.34375 -1.484375q-0.34375 -0.609375 -0.90625 -0.90625q-0.546875 -0.296875 -1.1875 -0.296875zm8.569946 -1.0625q1.046875 0 1.875 0.453125q0.84375 0.453125 1.3125 1.3125q0.46875 0.84375 0.46875 1.984375q0 1.15625 -0.46875 2.0q-0.46875 0.84375 -1.3125 1.296875q-0.828125 0.453125 -1.875 0.453125q-1.0625 0 -1.890625 -0.453125q-0.828125 -0.453125 -1.3125 -1.296875q-0.484375 -0.84375 -0.484375 -2.0q0 -1.140625 0.484375 -1.984375q0.484375 -0.859375 1.3125 -1.3125q0.828125 -0.453125 1.890625 -0.453125zm0 1.0625q-0.65625 0 -1.21875 0.296875q-0.546875 0.296875 -0.890625 0.90625q-0.328125 0.59375 -0.328125 1.484375q0 0.890625 0.328125 1.5q0.34375 0.59375 0.890625 0.890625q0.5625 0.296875 1.21875 0.296875q0.640625 0 1.1875 -0.296875q0.5625 -0.296875 0.90625 -0.890625q0.34375 -0.609375 0.34375 -1.5q0 -0.890625 -0.34375 -1.484375q-0.34375 -0.609375 -0.90625 -0.90625q-0.546875 -0.296875 -1.1875 -0.296875zm8.241821 -1.0625q1.0625 0 1.796875 0.53125q0.75 0.53125 1.046875 1.421875l0 -4.40625l1.21875 0l0 9.859375l-1.21875 0l0 -1.859375q-0.296875 0.890625 -1.046875 1.421875q-0.734375 0.53125 -1.796875 0.53125q-0.96875 0 -1.734375 -0.453125q-0.75 -0.453125 -1.1875 -1.296875q-0.4375 -0.84375 -0.4375 -2.0q0 -1.140625 0.4375 -1.984375q0.4375 -0.859375 1.1875 -1.3125q0.765625 -0.453125 1.734375 -0.453125zm0.34375 1.078125q-1.109375 0 -1.78125 0.71875q-0.671875 0.703125 -0.671875 1.953125q0 1.25 0.671875 1.96875q0.671875 0.71875 1.78125 0.71875q0.71875 0 1.28125 -0.328125q0.578125 -0.34375 0.890625 -0.953125q0.328125 -0.609375 0.328125 -1.40625q0 -0.796875 -0.328125 -1.40625q-0.3125 -0.609375 -0.890625 -0.9375q-0.5625 -0.328125 -1.28125 -0.328125zm5.436249 -3.140625q0 -0.328125 0.21875 -0.53125q0.234375 -0.203125 0.609375 -0.203125q0.359375 0 0.578125 0.203125q0.234375 0.203125 0.234375 0.53125q0 0.34375 -0.234375 0.546875q-0.21875 0.203125 -0.578125 0.203125q-0.375 0 -0.609375 -0.203125q-0.21875 -0.203125 -0.21875 -0.546875zm1.421875 2.15625l0 7.3125l-1.21875 0l0 -7.3125l1.21875 0zm8.674377 3.25q0 0.390625 -0.046875 0.65625l-5.859375 0q0.046875 1.265625 0.71875 1.890625q0.671875 0.625 1.640625 0.625q0.875 0 1.46875 -0.4375q0.59375 -0.453125 0.734375 -1.203125l1.296875 0q-0.140625 0.765625 -0.609375 1.359375q-0.453125 0.59375 -1.1875 0.9375q-0.734375 0.328125 -1.640625 0.328125q-1.0625 0 -1.875 -0.453125q-0.8125 -0.453125 -1.28125 -1.296875q-0.453125 -0.84375 -0.453125 -2.0q0 -1.140625 0.453125 -1.984375q0.46875 -0.859375 1.28125 -1.3125q0.8125 -0.453125 1.875 -0.453125q1.0625 0 1.84375 0.453125q0.796875 0.453125 1.21875 1.21875q0.421875 0.75 0.421875 1.671875zm-1.21875 0.078125q0.03125 -0.8125 -0.28125 -1.359375q-0.296875 -0.546875 -0.828125 -0.8125q-0.53125 -0.265625 -1.15625 -0.265625q-1.0 0 -1.6875 0.625q-0.671875 0.609375 -0.734375 1.8125l4.6875 0zm14.015015 -0.71875q0 1.421875 -0.578125 2.484375q-0.5625 1.0625 -1.6875 1.640625q-1.109375 0.578125 -2.671875 0.578125l-2.984375 0l0 -9.390625l2.984375 0q1.5625 0 2.671875 0.5625q1.125 0.5625 1.6875 1.625q0.578125 1.0625 0.578125 2.5zm-5.03125 3.609375q1.84375 0 2.8125 -0.9375q0.984375 -0.953125 0.984375 -2.671875q0 -1.71875 -0.96875 -2.671875q-0.96875 -0.953125 -2.828125 -0.953125l-1.671875 0l0 7.234375l1.671875 0zm6.4624634 -8.375q0 -0.328125 0.21875 -0.53125q0.234375 -0.203125 0.609375 -0.203125q0.359375 0 0.578125 0.203125q0.234375 0.203125 0.234375 0.53125q0 0.34375 -0.234375 0.546875q-0.21875 0.203125 -0.578125 0.203125q-0.375 0 -0.609375 -0.203125q-0.21875 -0.203125 -0.21875 -0.546875zm1.421875 2.15625l0 7.3125l-1.21875 0l0 -7.3125l1.21875 0zm4.9400024 -0.09375q1.0625 0 1.796875 0.53125q0.75 0.53125 1.046875 1.421875l0 -1.859375l1.21875 0l0 7.4375q0 1.015625 -0.4375 1.796875q-0.421875 0.78125 -1.203125 1.21875q-0.765625 0.4375 -1.796875 0.4375q-1.46875 0 -2.40625 -0.71875q-0.9375 -0.703125 -1.1875 -1.90625l1.203125 0q0.203125 0.71875 0.796875 1.140625q0.59375 0.421875 1.53125 0.421875q0.984375 0 1.625 -0.640625q0.65625 -0.625 0.65625 -1.75l0 -1.984375q-0.296875 0.890625 -1.046875 1.421875q-0.734375 0.53125 -1.796875 0.53125q-0.96875 0 -1.734375 -0.453125q-0.75 -0.453125 -1.1875 -1.296875q-0.4375 -0.84375 -0.4375 -2.0q0 -1.140625 0.4375 -1.984375q0.4375 -0.859375 1.1875 -1.3125q0.765625 -0.453125 1.734375 -0.453125zm0.34375 1.078125q-1.109375 0 -1.78125 0.71875q-0.671875 0.703125 -0.671875 1.953125q0 1.25 0.671875 1.96875q0.671875 0.71875 1.78125 0.71875q0.71875 0 1.28125 -0.328125q0.578125 -0.34375 0.890625 -0.953125q0.328125 -0.609375 0.328125 -1.40625q0 -0.796875 -0.328125 -1.40625q-0.3125 -0.609375 -0.890625 -0.9375q-0.5625 -0.328125 -1.28125 -0.328125zm5.436249 -3.140625q0 -0.328125 0.21875 -0.53125q0.234375 -0.203125 0.609375 -0.203125q0.359375 0 0.578125 0.203125q0.234375 0.203125 0.234375 0.53125q0 0.34375 -0.234375 0.546875q-0.21875 0.203125 -0.578125 0.203125q-0.375 0 -0.609375 -0.203125q-0.21875 -0.203125 -0.21875 -0.546875zm1.421875 2.15625l0 7.3125l-1.21875 0l0 -7.3125l1.21875 0zm5.4400024 6.25l0 1.0625l-0.90625 0q-1.125 0 -1.6875 -0.53125q-0.546875 -0.53125 -0.546875 -1.78125l0 -3.953125l-1.09375 0l0 -1.046875l1.09375 0l0 -1.828125l1.234375 0l0 1.828125l1.890625 0l0 1.046875l-1.890625 0l0 3.96875q0 0.703125 0.25 0.96875q0.265625 0.265625 0.90625 0.265625l0.75 0zm4.4713745 -6.34375q1.0625 0 1.796875 0.53125q0.75 0.53125 1.046875 1.421875l0 -1.859375l1.21875 0l0 7.3125l-1.21875 0l0 -1.859375q-0.296875 0.890625 -1.046875 1.421875q-0.734375 0.53125 -1.796875 0.53125q-0.96875 0 -1.734375 -0.453125q-0.75 -0.453125 -1.1875 -1.296875q-0.4375 -0.84375 -0.4375 -2.0q0 -1.140625 0.4375 -1.984375q0.4375 -0.859375 1.1875 -1.3125q0.765625 -0.453125 1.734375 -0.453125zm0.34375 1.078125q-1.109375 0 -1.78125 0.71875q-0.671875 0.703125 -0.671875 1.953125q0 1.25 0.671875 1.96875q0.671875 0.71875 1.78125 0.71875q0.71875 0 1.28125 -0.328125q0.578125 -0.34375 0.890625 -0.953125q0.328125 -0.609375 0.328125 -1.40625q0 -0.796875 -0.328125 -1.40625q-0.3125 -0.609375 -0.890625 -0.9375q-0.5625 -0.328125 -1.28125 -0.328125zm6.858124 -3.53125l0 9.859375l-1.21875 0l0 -9.859375l1.21875 0z" fill-rule="nonzero"/><path fill="#666666" d="m251.1859 245.66733q1.71875 0 2.84375 0.84375q1.125 0.84375 1.546875 2.3125l-1.28125 0q-0.359375 -0.9375 -1.15625 -1.484375q-0.796875 -0.5625 -1.953125 -0.5625q-0.921875 0 -1.65625 0.453125q-0.71875 0.4375 -1.140625 1.28125q-0.421875 0.828125 -0.421875 1.953125q0 1.109375 0.421875 1.9375q0.421875 0.8125 1.140625 1.265625q0.734375 0.4375 1.65625 0.4375q1.15625 0 1.953125 -0.546875q0.796875 -0.546875 1.15625 -1.484375l1.28125 0q-0.421875 1.46875 -1.546875 2.3125q-1.125 0.84375 -2.84375 0.84375q-1.3125 0 -2.328125 -0.609375q-1.015625 -0.609375 -1.578125 -1.6875q-0.5625 -1.09375 -0.5625 -2.46875q0 -1.40625 0.5625 -2.5q0.5625 -1.09375 1.578125 -1.6875q1.015625 -0.609375 2.328125 -0.609375zm9.341202 2.078125q1.046875 0 1.875 0.453125q0.84375 0.453125 1.3125 1.3125q0.46875 0.84375 0.46875 1.984375q0 1.15625 -0.46875 2.0q-0.46875 0.84375 -1.3125 1.296875q-0.828125 0.453125 -1.875 0.453125q-1.0625 0 -1.890625 -0.453125q-0.828125 -0.453125 -1.3125 -1.296875q-0.484375 -0.84375 -0.484375 -2.0q0 -1.140625 0.484375 -1.984375q0.484375 -0.859375 1.3125 -1.3125q0.828125 -0.453125 1.890625 -0.453125zm0 1.0625q-0.65625 0 -1.21875 0.296875q-0.546875 0.296875 -0.890625 0.90625q-0.328125 0.59375 -0.328125 1.484375q0 0.890625 0.328125 1.5q0.34375 0.59375 0.890625 0.890625q0.5625 0.296875 1.21875 0.296875q0.640625 0 1.1875 -0.296875q0.5625 -0.296875 0.90625 -0.890625q0.34375 -0.609375 0.34375 -1.5q0 -0.890625 -0.34375 -1.484375q-0.34375 -0.609375 -0.90625 -0.90625q-0.546875 -0.296875 -1.1875 -0.296875zm9.101196 -1.09375q1.28125 0 2.0625 0.828125q0.78125 0.8125 0.78125 2.359375l0 4.25l-1.203125 0l0 -4.140625q0 -1.09375 -0.5625 -1.671875q-0.5625 -0.59375 -1.515625 -0.59375q-1.0 0 -1.609375 0.640625q-0.59375 0.640625 -0.59375 1.890625l0 3.875l-1.21875 0l0 -7.3125l1.21875 0l0 1.734375q0.28125 -0.90625 0.984375 -1.375q0.71875 -0.484375 1.65625 -0.484375zm8.210571 6.375l0 1.0625l-0.90625 0q-1.125 0 -1.6875 -0.53125q-0.546875 -0.53125 -0.546875 -1.78125l0 -3.953125l-1.09375 0l0 -1.046875l1.09375 0l0 -1.828125l1.234375 0l0 1.828125l1.890625 0l0 1.046875l-1.890625 0l0 3.96875q0 0.703125 0.25 0.96875q0.265625 0.265625 0.90625 0.265625l0.75 0zm2.6901245 -4.78125q0.359375 -0.75 1.046875 -1.171875q0.703125 -0.421875 1.65625 -0.421875l0 1.3125l-0.375 0q-1.03125 0 -1.6875 0.53125q-0.640625 0.53125 -0.640625 1.734375l0 3.859375l-1.21875 0l0 -7.3125l1.21875 0l0 1.46875zm7.227356 -1.5625q1.046875 0 1.875 0.453125q0.84375 0.453125 1.3125 1.3125q0.46875 0.84375 0.46875 1.984375q0 1.15625 -0.46875 2.0q-0.46875 0.84375 -1.3125 1.296875q-0.828125 0.453125 -1.875 0.453125q-1.0625 0 -1.890625 -0.453125q-0.828125 -0.453125 -1.3125 -1.296875q-0.484375 -0.84375 -0.484375 -2.0q0 -1.140625 0.484375 -1.984375q0.484375 -0.859375 1.3125 -1.3125q0.828125 -0.453125 1.890625 -0.453125zm0 1.0625q-0.65625 0 -1.21875 0.296875q-0.546875 0.296875 -0.890625 0.90625q-0.328125 0.59375 -0.328125 1.484375q0 0.890625 0.328125 1.5q0.34375 0.59375 0.890625 0.890625q0.5625 0.296875 1.21875 0.296875q0.640625 0 1.1875 -0.296875q0.5625 -0.296875 0.90625 -0.890625q0.34375 -0.609375 0.34375 -1.5q0 -0.890625 -0.34375 -1.484375q-0.34375 -0.609375 -0.90625 -0.90625q-0.546875 -0.296875 -1.1875 -0.296875zm6.4605713 -3.515625l0 9.859375l-1.21875 0l0 -9.859375l1.21875 0zm3.1587524 0l0 9.859375l-1.21875 0l0 -9.859375l1.21875 0zm8.674377 5.796875q0 0.390625 -0.046875 0.65625l-5.859375 0q0.046875 1.265625 0.71875 1.890625q0.671875 0.625 1.640625 0.625q0.875 0 1.46875 -0.4375q0.59375 -0.453125 0.734375 -1.203125l1.296875 0q-0.140625 0.765625 -0.609375 1.359375q-0.453125 0.59375 -1.1875 0.9375q-0.734375 0.328125 -1.640625 0.328125q-1.0625 0 -1.875 -0.453125q-0.8125 -0.453125 -1.28125 -1.296875q-0.453125 -0.84375 -0.453125 -2.0q0 -1.140625 0.453125 -1.984375q0.46875 -0.859375 1.28125 -1.3125q0.8125 -0.453125 1.875 -0.453125q1.0625 0 1.84375 0.453125q0.796875 0.453125 1.21875 1.21875q0.421875 0.75 0.421875 1.671875zm-1.21875 0.078125q0.03125 -0.8125 -0.28125 -1.359375q-0.296875 -0.546875 -0.828125 -0.8125q-0.53125 -0.265625 -1.15625 -0.265625q-1.0 0 -1.6875 0.625q-0.671875 0.609375 -0.734375 1.8125l4.6875 0zm4.0198364 -1.859375q0.359375 -0.75 1.046875 -1.171875q0.703125 -0.421875 1.65625 -0.421875l0 1.3125l-0.375 0q-1.03125 0 -1.6875 0.53125q-0.640625 0.53125 -0.640625 1.734375l0 3.859375l-1.21875 0l0 -7.3125l1.21875 0l0 1.46875z" fill-rule="nonzero"/><path fill="#000000" fill-opacity="0.0" d="m341.51575 242.3517l128.18896 0l0 107.05513" fill-rule="evenodd"/><path stroke="#666666" stroke-width="1.0" stroke-linejoin="round" stroke-linecap="butt" d="m341.51575 242.3517l128.18896 0l0 101.05513" fill-rule="evenodd"/><path fill="#666666" stroke="#666666" stroke-width="1.0" stroke-linecap="butt" d="m468.05298 343.40683l1.6517334 4.538086l1.6517334 -4.538086z" fill-rule="evenodd"/><path fill="#000000" fill-opacity="0.0" d="m90.002625 349.4134l0 -50.897644" fill-rule="evenodd"/><path stroke="#666666" stroke-width="1.0" stroke-linejoin="round" stroke-linecap="butt" d="m90.002625 343.4134l0 -44.897644" fill-rule="evenodd"/><path fill="#666666" stroke="#666666" stroke-width="1.0" stroke-linecap="butt" d="m88.35089 343.4134l1.6517334 4.538086l1.6517334 -4.538086z" fill-rule="evenodd"/><path fill="#000000" fill-opacity="0.0" d="m90.00026 186.18666l0 -50.897644" fill-rule="evenodd"/><path stroke="#666666" stroke-width="1.0" stroke-linejoin="round" stroke-linecap="butt" d="m90.00026 180.18666l0 -38.897644" fill-rule="evenodd"/><path fill="#666666" stroke="#666666" stroke-width="1.0" stroke-linecap="butt" d="m88.348526 180.18666l1.6517334 4.538101l1.6517258 -4.538101z" fill-rule="evenodd"/><path fill="#666666" stroke="#666666" stroke-width="1.0" stroke-linecap="butt" d="m91.651985 141.28902l-1.6517258 -4.538086l-1.6517334 4.538086z" fill-rule="evenodd"/><path fill="#000000" fill-opacity="0.0" d="m278.92126 186.18767l0 -50.897644" fill-rule="evenodd"/><path stroke="#666666" stroke-width="1.0" stroke-linejoin="round" stroke-linecap="butt" d="m278.92126 180.18767l0 -38.897644" fill-rule="evenodd"/><path fill="#666666" stroke="#666666" stroke-width="1.0" stroke-linecap="butt" d="m277.26953 180.18767l1.6517334 4.538101l1.6517334 -4.538101z" fill-rule="evenodd"/><path fill="#666666" stroke="#666666" stroke-width="1.0" stroke-linecap="butt" d="m280.573 141.29002l-1.6517334 -4.538101l-1.6517334 4.538101z" fill-rule="evenodd"/><path fill="#000000" fill-opacity="0.0" d="m278.92126 298.51575l0.94488525 50.897644" fill-rule="evenodd"/><path stroke="#666666" stroke-width="1.0" stroke-linejoin="round" stroke-linecap="butt" d="m278.92126 298.51575l0.8335266 44.89865" fill-rule="evenodd"/><path fill="#666666" stroke="#666666" stroke-width="1.0" stroke-linecap="butt" d="m278.10333 343.44507l1.7356873 4.506653l1.5671997 -4.5679626z" fill-rule="evenodd"/></g></svg>