M48
;DRILL file {KiCad (5.0.0-3-g5ebb6b6)} date Friday 22 March 2019 at 16:01:39
;FORMAT={-:-/ absolute / inch / decimal}
FMAT,2
INCH,TZ
T1C0.0157
T2C0.0394
T3C0.0492
T4C0.1181
%
G90
G05
M72
T1
X3.4055Y-3.7303
T2
X2.4744Y-3.4685
X2.4744Y-3.5685
X2.4744Y-4.0685
X2.4744Y-4.1685
X3.3563Y-3.4685
X3.3563Y-3.5685
X3.3563Y-4.0685
X3.3563Y-4.1685
X3.622Y-3.8878
X3.622Y-4.0846
T3
X3.937Y-3.7244
X3.937Y-3.8228
X3.937Y-3.9213
X4.1339Y-3.7244
X4.1339Y-3.8228
X4.1339Y-3.9213
T4
X2.0177Y-4.1732
X4.0453Y-3.4646
X4.0453Y-4.1732
X2.0177Y-3.4646
T2
X2.0866Y-3.7697G85X2.0866Y-3.8484
G05
X2.1654Y-3.9941G85X2.2441Y-3.9941
G05
X2.3228Y-3.7697G85X2.3228Y-3.8484
G05
T0
M30
